SplineFontDB: 3.0
FontName: Jones-it-MediumItalic
FullName: Jones* Medium Italic
FamilyName: Jones*-Medium
Weight: Medium
Copyright: 
UComments: "2016-1-29: Created with FontForge (http://fontforge.org)"
Version: 002.000
ItalicAngle: -9
UnderlinePosition: -150
UnderlineWidth: 75
Ascent: 784
Descent: 216
InvalidEm: 0
LayerCount: 2
Layer: 0 0 "Back" 1
Layer: 1 0 "Fore" 0
XUID: [1021 31 -699969567 4970488]
FSType: 0
OS2Version: 2
OS2_WeightWidthSlopeOnly: 0
OS2_UseTypoMetrics: 0
CreationTime: 1454127431
ModificationTime: 1456599351
PfmFamily: 17
TTFWeight: 500
TTFWidth: 5
LineGap: 0
VLineGap: 0
OS2TypoAscent: 784
OS2TypoAOffset: 0
OS2TypoDescent: -216
OS2TypoDOffset: 0
OS2TypoLinegap: 200
OS2WinAscent: 850
OS2WinAOffset: 0
OS2WinDescent: 300
OS2WinDOffset: 0
HheadAscent: 850
HheadAOffset: 0
HheadDescent: -300
HheadDOffset: 0
OS2SubXSize: 650
OS2SubYSize: 600
OS2SubXOff: 0
OS2SubYOff: 75
OS2SupXSize: 650
OS2SupYSize: 600
OS2SupXOff: 0
OS2SupYOff: 350
OS2StrikeYSize: 50
OS2StrikeYPos: 314
OS2CapHeight: 700
OS2XHeight: 520
OS2Vendor: 'PfEd'
Lookup: 5 0 0 "lig" { "lig-1"  } ['calt' ('DFLT' <'dflt' > 'grek' <'dflt' > 'latn' <'dflt' > ) ]
Lookup: 1 0 0 "fi" { "fi-1"  } ['ss01' ('DFLT' <'dflt' > 'grek' <'dflt' > 'latn' <'dflt' > ) ]
Lookup: 258 0 0 "kern" { "kerning" [150,0,2] } ['kern' ('DFLT' <'dflt' > 'grek' <'dflt' > 'latn' <'dflt' > ) ]
MarkAttachClasses: 1
DEI: 91125
KernClass2: 13 10 "kerning"
 3 A L
 5 D O Q
 3 F P
 3 K X
 3 V W
 13 b e h m n o p
 15 a c g q r s u z
 14 d f i j l t fi
 3 k x
 3 v w
 3 R B
 3 T Y
 1 A
 7 C G O Q
 3 T Y
 3 V W
 15 a m n p r s u z
 11 c d e g o q
 18 b f h i j k l t fi
 5 v w y
 1 x

StartChar: E
Encoding: 69 69 0
Width: 670
VWidth: 0
Flags: HMW
AnchorPoint: "ced" 495 0 basechar 0
AnchorPoint: "dot" 365 760 basechar 0
LayerCount: 2
Fore
SplineSet
156 408 m 5
 631 408 l 1
 615 308 l 1
 140 308 l 5
 156 408 l 5
204 700 m 5
 729 700 l 1
 713 600 l 1
 188 600 l 5
 204 700 l 5
106 100 m 5
 631 100 l 1
 615 0 l 1
 90 0 l 5
 106 100 l 5
204 700 m 5
 314 700 l 5
 200 0 l 5
 90 0 l 5
 204 700 l 5
EndSplineSet
EndChar

StartChar: I
Encoding: 73 73 1
Width: 300
VWidth: 0
Flags: HMW
AnchorPoint: "ced" 145 0 basechar 0
AnchorPoint: "dot" 140 760 basechar 0
LayerCount: 2
Fore
SplineSet
209 700 m 1
 319 700 l 5
 205 0 l 5
 95 0 l 1
 209 700 l 1
EndSplineSet
EndChar

StartChar: F
Encoding: 70 70 2
Width: 665
VWidth: 0
Flags: HMW
AnchorPoint: "ced" 135 0 basechar 0
AnchorPoint: "dot" 365 760 basechar 0
LayerCount: 2
Fore
SplineSet
153 388 m 5
 633 388 l 1
 617 288 l 1
 137 288 l 5
 153 388 l 5
204 700 m 5
 734 700 l 1
 718 600 l 1
 188 600 l 5
 204 700 l 5
204 700 m 5
 314 700 l 5
 200 0 l 5
 90 0 l 5
 204 700 l 5
EndSplineSet
EndChar

StartChar: H
Encoding: 72 72 3
Width: 765
VWidth: 0
Flags: HMW
AnchorPoint: "ced" 635 0 basechar 0
AnchorPoint: "dot" 380 760 basechar 0
LayerCount: 2
Fore
SplineSet
679 700 m 5
 789 700 l 5
 675 0 l 5
 565 0 l 5
 679 700 l 5
156 408 m 1
 686 408 l 5
 670 308 l 5
 140 308 l 1
 156 408 l 1
204 700 m 1
 314 700 l 1
 200 0 l 1
 90 0 l 1
 204 700 l 1
EndSplineSet
EndChar

StartChar: L
Encoding: 76 76 4
Width: 655
VWidth: 0
Flags: HMW
AnchorPoint: "ced" 365 0 basechar 0
AnchorPoint: "dot" 385 760 basechar 0
LayerCount: 2
Fore
SplineSet
106 100 m 1
 636 100 l 5
 620 0 l 5
 90 0 l 1
 106 100 l 1
204 700 m 1
 314 700 l 1
 200 0 l 1
 90 0 l 1
 204 700 l 1
EndSplineSet
EndChar

StartChar: T
Encoding: 84 84 5
Width: 690
VWidth: 0
Flags: HMW
AnchorPoint: "ced" 347 0 basechar 0
AnchorPoint: "dot" 345 760 basechar 0
LayerCount: 2
Fore
SplineSet
154 700 m 1
 764 700 l 5
 748 600 l 5
 138 600 l 1
 154 700 l 1
404 700 m 1
 514 700 l 1
 400 0 l 1
 290 0 l 1
 404 700 l 1
EndSplineSet
EndChar

StartChar: O
Encoding: 79 79 7
Width: 850
VWidth: 0
Flags: HMW
AnchorPoint: "ced" 425 0 basechar 0
AnchorPoint: "dot" 425 760 basechar 0
LayerCount: 2
Fore
SplineSet
220 350 m 4
 199 204 287 90 438 90 c 4
 589 90 709 204 730 350 c 4
 751 496 662 610 511 610 c 4
 360 610 241 496 220 350 c 4
110 350 m 4
 138 549 320 710 525 710 c 4
 730 710 868 549 840 350 c 4
 812 151 629 -10 424 -10 c 4
 219 -10 82 151 110 350 c 4
EndSplineSet
EndChar

StartChar: C
Encoding: 67 67 8
Width: 732
VWidth: 0
Flags: HMW
AnchorPoint: "ced" 425 0 basechar 0
AnchorPoint: "dot" 425 760 basechar 0
LayerCount: 2
Fore
SplineSet
220 350 m 0
 199 204 287 90 438 90 c 0
 521 90 604 125 660 181 c 1
 718 113 l 1
 642 38 540 -10 424 -10 c 4
 219 -10 82 151 110 350 c 0
 138 549 320 710 525 710 c 4
 641 710 731 662 785 587 c 1
 707 519 l 1
 667 575 594 610 511 610 c 0
 360 610 241 496 220 350 c 0
EndSplineSet
EndChar

StartChar: A
Encoding: 65 65 9
Width: 800
VWidth: 0
Flags: HMW
AnchorPoint: "ced" 697 0 basechar 0
AnchorPoint: "ring" 390 700 basechar 0
AnchorPoint: "dot" 390 760 basechar 0
LayerCount: 2
Fore
SplineSet
464 700 m 1
 564 700 l 1
 552 690 l 1
 462 690 l 1
 464 700 l 1
238 270 m 1
 630 270 l 1
 615 175 l 5
 223 175 l 5
 238 270 l 1
660 0 m 1
 462 690 l 1
 564 700 l 1
 770 0 l 1
 660 0 l 1
464 700 m 1
 562 690 l 1
 140 0 l 1
 30 0 l 1
 464 700 l 1
EndSplineSet
EndChar

StartChar: V
Encoding: 86 86 10
Width: 780
VWidth: 0
Flags: HMW
AnchorPoint: "ced" 390 0 basechar 0
AnchorPoint: "dot" 389 760 basechar 0
LayerCount: 2
Fore
SplineSet
440 0 m 5
 340 0 l 1
 345 30 l 1
 445 30 l 5
 440 0 l 5
259 700 m 1
 445 30 l 1
 340 0 l 1
 144 700 l 1
 259 700 l 1
440 0 m 1
 345 30 l 1
 749 700 l 1
 864 700 l 1
 440 0 l 1
EndSplineSet
EndChar

StartChar: G
Encoding: 71 71 11
Width: 782
VWidth: 0
Flags: HMW
AnchorPoint: "ced" 425 0 basechar 0
AnchorPoint: "dot" 425 760 basechar 0
LayerCount: 2
Fore
SplineSet
772 370 m 5
 756 270 l 5
 479 270 l 5
 495 370 l 5
 772 370 l 5
730 113 m 5
 620 113 l 5
 662 370 l 5
 772 370 l 5
 730 113 l 5
227 350 m 0
 203 204 289 90 440 90 c 4
 523 90 610 120 673 181 c 5
 730 113 l 5
 653 38 539 -10 423 -10 c 4
 218 -10 85 151 117 350 c 0
 149 549 336 710 541 710 c 4
 657 710 735 662 788 587 c 1
 709 519 l 1
 670 575 607 610 524 610 c 4
 373 610 251 496 227 350 c 0
EndSplineSet
EndChar

StartChar: D
Encoding: 68 68 12
Width: 810
VWidth: 0
Flags: HMW
AnchorPoint: "ced" 325 0 basechar 0
AnchorPoint: "dot" 345 760 basechar 0
LayerCount: 2
Fore
SplineSet
204 700 m 1
 494 700 l 1
 478 600 l 1
 188 600 l 1
 204 700 l 1
106 100 m 1
 396 100 l 1
 380 0 l 1
 90 0 l 1
 106 100 l 1
204 700 m 1
 314 700 l 1
 200 0 l 1
 90 0 l 1
 204 700 l 1
396 100 m 5
 547 100 673 204 697 350 c 4
 721 496 629 600 478 600 c 5
 494 700 l 5
 699 700 839 549 807 350 c 4
 775 151 585 0 380 0 c 5
 396 100 l 5
EndSplineSet
EndChar

StartChar: U
Encoding: 85 85 13
Width: 760
VWidth: 0
Flags: HMW
AnchorPoint: "ced" 380 0 basechar 0
AnchorPoint: "dot" 380 760 basechar 0
LayerCount: 2
Fore
SplineSet
621 280 m 1
 689 700 l 1
 794 700 l 1
 726 280 l 1
 621 280 l 1
126 280 m 1
 194 700 l 1
 299 700 l 1
 231 280 l 1
 126 280 l 1
621 280 m 5
 726 280 l 1
 698 111 547 -10 378 -10 c 4
 209 -10 98 111 126 280 c 1
 231 280 l 5
 213 171 287 85 394 85 c 4
 501 85 603 171 621 280 c 5
EndSplineSet
EndChar

StartChar: o
Encoding: 111 111 14
Width: 650
VWidth: 0
Flags: HMW
AnchorPoint: "ced" 325 0 basechar 0
AnchorPoint: "dot" 325 673 basechar 0
LayerCount: 2
Fore
SplineSet
192 260 m 0
 178 161 230 85 337 85 c 0
 444 85 518 161 532 260 c 0
 546 359 494 435 387 435 c 0
 280 435 206 359 192 260 c 0
87 260 m 0
 108 409 241 530 400 530 c 0
 559 530 658 409 637 260 c 0
 616 111 483 -10 324 -10 c 0
 165 -10 66 111 87 260 c 0
EndSplineSet
EndChar

StartChar: B
Encoding: 66 66 15
Width: 695
VWidth: 0
Flags: HMW
AnchorPoint: "ced" 327 0 basechar 0
AnchorPoint: "dot" 308 760 basechar 0
LayerCount: 2
Fore
SplineSet
426 408 m 1
 509 408 558 427 570 502 c 0
 582 577 541 600 458 600 c 1
 474 700 l 1
 603 700 702 636 680 502 c 0
 658 369 544 340 415 340 c 1
 426 408 l 1
204 700 m 5
 314 700 l 5
 200 0 l 5
 90 0 l 5
 204 700 l 5
106 100 m 5
 416 100 l 1
 400 0 l 1
 90 0 l 5
 106 100 l 5
204 700 m 5
 474 700 l 1
 458 600 l 1
 188 600 l 5
 204 700 l 5
156 408 m 5
 466 408 l 1
 450 308 l 1
 140 308 l 5
 156 408 l 5
416 100 m 1
 499 100 555 120 568 200 c 0
 581 280 533 308 450 308 c 1
 461 375 l 1
 590 375 701 339 678 200 c 0
 655 61 529 0 400 0 c 1
 416 100 l 1
EndSplineSet
EndChar

StartChar: K
Encoding: 75 75 16
Width: 745
VWidth: 0
Flags: HMW
AnchorPoint: "ced" 665 0 basechar 0
AnchorPoint: "dot" 345 760 basechar 0
LayerCount: 2
Fore
SplineSet
343 413 m 1
 467 413 l 1
 730 0 l 1
 606 0 l 1
 343 413 l 1
669 700 m 1
 794 700 l 1
 234 207 l 1
 132 230 l 1
 669 700 l 1
204 700 m 1
 314 700 l 1
 200 0 l 1
 90 0 l 1
 204 700 l 1
EndSplineSet
EndChar

StartChar: R
Encoding: 82 82 17
Width: 718
VWidth: 0
Flags: HMW
AnchorPoint: "ced" 615 0 basechar 0
AnchorPoint: "dot" 340 760 basechar 0
LayerCount: 2
Fore
SplineSet
442 348 m 5
 530 348 598 397 610 472 c 4
 622 547 571 600 483 600 c 5
 499 700 l 5
 638 700 742 607 720 472 c 4
 698 338 564 248 425 248 c 5
 442 348 l 5
204 700 m 1
 314 700 l 1
 200 0 l 1
 90 0 l 1
 204 700 l 1
229 700 m 1
 499 700 l 5
 483 600 l 5
 213 600 l 1
 229 700 l 1
172 348 m 1
 442 348 l 5
 425 248 l 5
 155 248 l 1
 172 348 l 1
375 320 m 5
 500 320 l 5
 688 0 l 5
 563 0 l 5
 375 320 l 5
EndSplineSet
EndChar

StartChar: P
Encoding: 80 80 18
Width: 643
VWidth: 0
Flags: HMW
AnchorPoint: "ced" 140 0 basechar 0
AnchorPoint: "dot" 310 760 basechar 0
LayerCount: 2
Fore
SplineSet
407 348 m 5
 495 348 563 397 575 472 c 4
 587 547 536 600 448 600 c 5
 464 700 l 5
 603 700 707 607 685 472 c 4
 663 338 529 248 390 248 c 5
 407 348 l 5
204 700 m 5
 314 700 l 5
 200 0 l 5
 90 0 l 5
 204 700 l 5
209 700 m 5
 464 700 l 5
 448 600 l 5
 193 600 l 5
 209 700 l 5
152 348 m 5
 407 348 l 5
 390 248 l 5
 135 248 l 5
 152 348 l 5
EndSplineSet
EndChar

StartChar: Q
Encoding: 81 81 19
Width: 849
VWidth: 0
Flags: HMW
AnchorPoint: "ced" 425 0 basechar 0
AnchorPoint: "dot" 425 760 basechar 0
LayerCount: 2
Fore
SplineSet
220 350 m 0
 199 204 287 90 438 90 c 0
 589 90 709 204 730 350 c 0
 751 496 662 610 511 610 c 0
 360 610 241 496 220 350 c 0
110 350 m 0
 138 549 320 710 525 710 c 0
 730 710 868 549 840 350 c 0
 812 151 629 -10 424 -10 c 0
 219 -10 82 151 110 350 c 0
729 -44 m 1
 499 224 l 1
 576 292 l 1
 807 25 l 1
 729 -44 l 1
EndSplineSet
EndChar

StartChar: J
Encoding: 74 74 20
Width: 599
VWidth: 0
Flags: HMW
AnchorPoint: "ced" 275 0 basechar 0
AnchorPoint: "dot" 255 760 basechar 0
LayerCount: 2
Fore
SplineSet
476 260 m 1
 548 700 l 1
 653 700 l 1
 581 260 l 1
 476 260 l 1
476 260 m 1
 581 260 l 1
 552 81 432 -10 273 -10 c 4
 155 -10 79 41 46 157 c 1
 136 208 l 1
 157 125 220 85 289 85 c 4
 376 85 457 141 476 260 c 1
EndSplineSet
EndChar

StartChar: S
Encoding: 83 83 21
Width: 625
VWidth: 0
Flags: HMW
AnchorPoint: "ced" 315 0 basechar 0
AnchorPoint: "dot" 335 760 basechar 0
LayerCount: 2
Fore
SplineSet
492 190 m 1
 598 195 l 1
 581 76 486 -10 327 -10 c 0
 198 -10 115 56 61 113 c 1
 131 190 l 1
 173 146 231 85 339 85 c 4
 437 85 484 130 492 190 c 1
256 519 m 1
 151 514 l 1
 167 625 276 710 415 710 c 0
 534 710 596 674 641 622 c 1
 574 549 l 1
 535 593 480 615 412 615 c 0
 314 615 263 566 256 519 c 1
397 406 m 0
 530 384 617 327 598 195 c 1
 492 190 l 1
 503 269 451 300 345 317 c 0
 215 338 136 406 151 514 c 5
 256 519 l 1
 247 454 301 422 397 406 c 0
EndSplineSet
EndChar

StartChar: M
Encoding: 77 77 22
Width: 932
VWidth: 0
Flags: HMW
AnchorPoint: "ced" 790 0 basechar 0
AnchorPoint: "dot" 470 760 basechar 0
LayerCount: 2
Fore
SplineSet
511 130 m 1
 463 130 l 1
 479 230 l 5
 527 230 l 5
 511 130 l 1
836 640 m 1
 856 700 l 1
 956 700 l 1
 953 680 l 1
 836 640 l 1
931 640 m 1
 511 130 l 1
 479 230 l 5
 856 700 l 1
 931 640 l 1
953 680 m 1
 842 0 l 1
 732 0 l 1
 836 640 l 1
 953 680 l 1
304 640 m 1
 201 680 l 1
 204 700 l 1
 304 700 l 1
 304 640 l 1
209 640 m 1
 304 700 l 1
 527 230 l 5
 463 130 l 1
 209 640 l 1
201 680 m 1
 304 640 l 1
 200 0 l 1
 90 0 l 1
 201 680 l 1
EndSplineSet
EndChar

StartChar: Y
Encoding: 89 89 23
Width: 680
VWidth: 0
Flags: HMW
AnchorPoint: "ced" 345 0 basechar 0
AnchorPoint: "dot" 337 760 basechar 0
LayerCount: 2
Fore
SplineSet
333 295 m 1
 443 295 l 1
 395 0 l 1
 285 0 l 1
 333 295 l 1
134 700 m 1
 254 700 l 1
 443 295 l 1
 360 217 l 1
 134 700 l 1
654 700 m 1
 774 700 l 1
 390 217 l 1
 333 295 l 1
 654 700 l 1
EndSplineSet
EndChar

StartChar: W
Encoding: 87 87 24
Width: 1065
VWidth: 0
Flags: HMW
AnchorPoint: "ced" 755 0 basechar 0
AnchorPoint: "dot" 530 760 basechar 0
LayerCount: 2
Fore
SplineSet
584 700 m 1
 709 700 l 1
 683 690 l 1
 606 690 l 1
 584 700 l 1
815 0 m 1
 715 0 l 1
 717 10 l 1
 817 10 l 1
 815 0 l 1
709 700 m 1
 817 10 l 1
 715 0 l 1
 606 690 l 1
 709 700 l 1
815 0 m 1
 717 10 l 1
 1044 700 l 1
 1154 700 l 1
 815 0 l 1
350 0 m 5
 250 0 l 5
 252 10 l 5
 352 10 l 5
 350 0 l 5
249 700 m 1
 352 10 l 5
 250 0 l 5
 139 700 l 1
 249 700 l 1
350 0 m 5
 252 10 l 5
 584 700 l 1
 683 690 l 1
 350 0 l 5
EndSplineSet
EndChar

StartChar: N
Encoding: 78 78 25
Width: 790
VWidth: 0
Flags: HMW
AnchorPoint: "ced" 650 0 basechar 0
AnchorPoint: "dot" 400 760 basechar 0
LayerCount: 2
Fore
SplineSet
700 0 m 1
 600 0 l 1
 604 24 l 1
 702 14 l 1
 700 0 l 1
304 700 m 1
 301 680 l 1
 201 680 l 1
 204 700 l 1
 304 700 l 1
197 660 m 5
 304 700 l 1
 707 40 l 1
 600 0 l 1
 197 660 l 5
704 700 m 1
 814 700 l 1
 700 0 l 1
 593 20 l 1
 704 700 l 1
204 700 m 1
 311 680 l 1
 200 0 l 1
 90 0 l 1
 204 700 l 1
EndSplineSet
EndChar

StartChar: X
Encoding: 88 88 26
Width: 750
VWidth: 0
Flags: HMW
AnchorPoint: "ced" 635 0 basechar 0
AnchorPoint: "dot" 374 760 basechar 0
LayerCount: 2
Fore
SplineSet
169 700 m 1
 294 700 l 1
 715 0 l 1
 590 0 l 1
 169 700 l 1
684 700 m 1
 809 700 l 1
 160 0 l 1
 35 0 l 1
 684 700 l 1
EndSplineSet
EndChar

StartChar: Z
Encoding: 90 90 27
Width: 680
VWidth: 0
Flags: HMW
AnchorPoint: "ced" 495 0 basechar 0
AnchorPoint: "dot" 335 760 basechar 0
LayerCount: 2
Fore
SplineSet
694 610 m 1
 684 610 l 1
 699 700 l 1
 709 700 l 1
 694 610 l 1
80 90 m 1
 90 90 l 1
 75 0 l 1
 65 0 l 1
 80 90 l 1
199 700 m 1
 699 700 l 1
 683 600 l 1
 183 600 l 1
 199 700 l 1
91 100 m 1
 631 100 l 1
 615 0 l 1
 75 0 l 1
 91 100 l 1
574 610 m 5
 694 610 l 1
 200 90 l 1
 80 90 l 1
 574 610 l 5
EndSplineSet
EndChar

StartChar: l
Encoding: 108 108 28
Width: 265
VWidth: 0
Flags: HMW
AnchorPoint: "ced" 133 0 basechar 0
AnchorPoint: "dot" 133 793 basechar 0
LayerCount: 2
Fore
SplineSet
199 730 m 1
 304 730 l 1
 185 0 l 1
 80 0 l 1
 199 730 l 1
EndSplineSet
EndChar

StartChar: b
Encoding: 98 98 29
Width: 655
VWidth: 0
Flags: HMW
AnchorPoint: "ced" 356 0 basechar 0
AnchorPoint: "dot" 360 673 basechar 0
LayerCount: 2
Fore
SplineSet
222 260 m 4
 204 151 262 85 359 85 c 4
 456 85 529 151 547 260 c 4
 565 369 513 435 416 435 c 4
 319 435 240 369 222 260 c 4
187 260 m 4
 211 409 282 530 451 530 c 4
 580 530 678 419 652 260 c 4
 626 101 492 -10 363 -10 c 4
 204 -10 163 111 187 260 c 4
194 730 m 5
 299 730 l 5
 180 0 l 5
 75 0 l 5
 194 730 l 5
EndSplineSet
EndChar

StartChar: c
Encoding: 99 99 30
Width: 573
VWidth: 0
Flags: HMW
AnchorPoint: "ced" 325 0 basechar 0
AnchorPoint: "dot" 325 673 basechar 0
LayerCount: 2
Fore
SplineSet
187 260 m 0
 173 161 230 85 337 85 c 0
 396 85 458 114 496 158 c 5
 551 92 l 1
 495 28 421 -10 324 -10 c 0
 165 -10 61 111 82 260 c 0
 103 409 241 530 400 530 c 0
 497 530 560 491 598 428 c 1
 525 361 l 1
 499 405 446 435 387 435 c 0
 280 435 201 359 187 260 c 0
EndSplineSet
EndChar

StartChar: d
Encoding: 100 100 31
Width: 655
VWidth: 0
Flags: HMW
AnchorPoint: "ced" 300 0 basechar 0
AnchorPoint: "dot" 295 673 basechar 0
LayerCount: 2
Fore
SplineSet
517 260 m 4
 535 369 478 435 381 435 c 4
 284 435 210 369 192 260 c 4
 174 151 227 85 324 85 c 4
 421 85 499 151 517 260 c 4
552 260 m 4
 528 111 447 -10 288 -10 c 4
 159 -10 61 101 87 260 c 4
 113 419 247 530 376 530 c 4
 545 530 576 409 552 260 c 4
699 730 m 5
 580 0 l 5
 475 0 l 5
 594 730 l 5
 699 730 l 5
EndSplineSet
EndChar

StartChar: k
Encoding: 107 107 32
Width: 615
VWidth: 0
Flags: W
HStem: 0 21G<75 183.26 468.254 600> 500 20G<516.377 665> 710 20G<190.74 299>
AnchorPoint: "ced" 535 0 basechar 0
AnchorPoint: "dot" 335 673 basechar 0
LayerCount: 2
Fore
SplineSet
282 291 m 1
 391 311 l 1
 600 0 l 1
 482 0 l 1
 282 291 l 1
539 520 m 1
 665 520 l 1
 198 110 l 1
 125 154 l 1
 539 520 l 1
194 730 m 1
 299 730 l 1
 180 0 l 1
 75 0 l 1
 194 730 l 1
EndSplineSet
EndChar

StartChar: e
Encoding: 101 101 33
Width: 615
VWidth: 0
Flags: HMW
AnchorPoint: "ced" 320 0 basechar 0
AnchorPoint: "dot" 310 673 basechar 0
LayerCount: 2
Fore
SplineSet
607 260 m 5
 603 230 l 5
 498 230 l 5
 502 260 l 5
 607 260 l 5
498 230 m 5
 162 230 l 1
 172 307 l 1
 508 307 l 5
 498 230 l 5
502 260 m 5
 517 369 469 435 372 435 c 0
 275 435 207 369 192 260 c 1
 87 260 l 1
 109 419 236 530 385 530 c 4
 534 530 629 419 607 260 c 5
 502 260 l 5
87 260 m 1
 192 260 l 1
 177 151 235 85 332 85 c 0
 396 85 456 108 500 157 c 5
 556 92 l 5
 500 28 416 -10 319 -10 c 4
 160 -10 65 101 87 260 c 1
EndSplineSet
EndChar

StartChar: p
Encoding: 112 112 34
Width: 655
VWidth: 0
Flags: HMW
AnchorPoint: "ced" 355 0 basechar 0
AnchorPoint: "dot" 360 673 basechar 0
LayerCount: 2
Fore
SplineSet
222 260 m 0
 204 151 262 85 359 85 c 0
 456 85 529 151 547 260 c 0
 565 369 513 435 416 435 c 0
 319 435 240 369 222 260 c 0
187 260 m 0
 211 409 292 530 451 530 c 0
 580 530 678 419 652 260 c 0
 626 101 492 -10 363 -10 c 0
 194 -10 163 111 187 260 c 0
42 -200 m 1
 160 520 l 1
 265 520 l 1
 147 -200 l 1
 42 -200 l 1
EndSplineSet
EndChar

StartChar: q
Encoding: 113 113 35
Width: 655
VWidth: 0
Flags: HMW
AnchorPoint: "ced" 300 0 basechar 0
AnchorPoint: "dot" 295 673 basechar 0
LayerCount: 2
Fore
SplineSet
517 260 m 0
 535 369 478 435 381 435 c 0
 284 435 210 369 192 260 c 0
 174 151 227 85 324 85 c 0
 421 85 499 151 517 260 c 0
552 260 m 0
 528 111 457 -10 288 -10 c 0
 159 -10 61 101 87 260 c 0
 113 419 247 530 376 530 c 0
 535 530 576 409 552 260 c 0
546 -210 m 1
 441 -210 l 1
 560 520 l 1
 665 520 l 1
 546 -210 l 1
EndSplineSet
EndChar

StartChar: h
Encoding: 104 104 36
Width: 635
VWidth: 0
Flags: HMW
AnchorPoint: "ced" 510 0 basechar 0
AnchorPoint: "dot" 350 673 basechar 0
LayerCount: 2
Fore
SplineSet
617 320 m 5
 565 0 l 5
 460 0 l 5
 509 300 l 5
 617 320 l 5
194 730 m 5
 299 730 l 5
 180 0 l 5
 75 0 l 5
 194 730 l 5
509 300 m 5
 522 379 501 435 401 435 c 4
 312 435 242 380 226 280 c 5
 191 280 l 5
 214 419 307 530 446 530 c 4
 585 530 638 449 617 320 c 5
 509 300 l 5
EndSplineSet
EndChar

StartChar: n
Encoding: 110 110 37
Width: 635
VWidth: 0
Flags: HMW
AnchorPoint: "ced" 520 0 basechar 0
AnchorPoint: "dot" 330 673 basechar 0
LayerCount: 2
Fore
SplineSet
617 320 m 5
 565 0 l 5
 460 0 l 5
 509 300 l 5
 617 320 l 5
160 520 m 5
 265 520 l 5
 180 0 l 5
 75 0 l 5
 160 520 l 5
509 300 m 5
 522 379 501 435 401 435 c 4
 312 435 242 380 226 280 c 5
 191 280 l 5
 214 419 307 530 446 530 c 4
 585 530 638 449 617 320 c 5
 509 300 l 5
EndSplineSet
EndChar

StartChar: m
Encoding: 109 109 38
Width: 900
VWidth: 0
Flags: HMW
AnchorPoint: "ced" 785 0 basechar 0
AnchorPoint: "dot" 450 673 basechar 0
LayerCount: 2
Fore
SplineSet
887 320 m 1
 835 0 l 1
 730 0 l 1
 779 300 l 1
 887 320 l 1
779 300 m 1
 792 380 782 440 697 440 c 0
 624 440 569 380 553 280 c 1
 518 280 l 1
 541 419 607 530 751 530 c 4
 885 530 908 449 887 320 c 1
 779 300 l 1
559 320 m 1
 507 0 l 1
 403 0 l 1
 452 300 l 1
 559 320 l 1
160 520 m 1
 265 520 l 1
 180 0 l 1
 75 0 l 1
 160 520 l 1
452 300 m 1
 465 380 457 440 372 440 c 0
 299 440 242 380 226 280 c 1
 191 280 l 1
 214 419 282 530 426 530 c 4
 570 530 580 449 559 320 c 1
 452 300 l 1
EndSplineSet
EndChar

StartChar: r
Encoding: 114 114 39
Width: 410
VWidth: 0
Flags: HMW
AnchorPoint: "ced" 140 0 basechar 0
AnchorPoint: "dot" 220 673 basechar 0
LayerCount: 2
Fore
SplineSet
160 520 m 5
 265 520 l 5
 180 0 l 5
 75 0 l 5
 160 520 l 5
449 425 m 1
 429 425 l 2
 315 425 242 380 224 270 c 5
 189 270 l 5
 212 409 296 520 465 520 c 1
 449 425 l 1
EndSplineSet
EndChar

StartChar: u
Encoding: 117 117 40
Width: 635
VWidth: 0
Flags: HMW
AnchorPoint: "ced" 285 0 basechar 0
AnchorPoint: "dot" 305 673 basechar 0
LayerCount: 2
Fore
SplineSet
103 200 m 1
 155 520 l 1
 260 520 l 1
 211 220 l 1
 103 200 l 1
560 0 m 1
 455 0 l 1
 540 520 l 1
 645 520 l 1
 560 0 l 1
211 220 m 1
 198 141 219 85 319 85 c 0
 408 85 478 140 494 240 c 1
 529 240 l 1
 506 101 412 -10 273 -10 c 0
 134 -10 82 71 103 200 c 1
 211 220 l 1
EndSplineSet
EndChar

StartChar: g
Encoding: 103 103 41
Width: 655
VWidth: 0
Flags: HMW
AnchorPoint: "dot" 300 673 basechar 0
LayerCount: 2
Fore
SplineSet
517 260 m 0
 535 369 478 435 381 435 c 0
 284 435 210 369 192 260 c 0
 174 151 227 85 324 85 c 0
 421 85 499 151 517 260 c 0
552 260 m 0
 528 111 447 -10 288 -10 c 0
 159 -10 61 101 87 260 c 0
 113 419 247 530 376 530 c 0
 545 530 576 409 552 260 c 0
303 -125 m 1
 287 -220 l 5
 140 -220 66 -172 29 -108 c 5
 106 -42 l 5
 134 -91 200 -125 303 -125 c 1
583 20 m 1
 478 20 l 1
 560 520 l 1
 665 520 l 1
 583 20 l 1
478 20 m 1
 583 20 l 1
 560 -119 426 -220 287 -220 c 5
 303 -125 l 1
 380 -125 462 -79 478 20 c 1
EndSplineSet
EndChar

StartChar: i
Encoding: 105 105 42
Width: 255
VWidth: 0
Flags: HMW
AnchorPoint: "ced" 125 0 basechar 0
LayerCount: 2
Fore
SplineSet
170 682 m 4
 176 720 211 750 249 750 c 4
 287 750 312 720 306 682 c 4
 300 644 265 614 227 614 c 4
 189 614 164 644 170 682 c 4
160 520 m 1
 265 520 l 1
 180 0 l 1
 75 0 l 1
 160 520 l 1
EndSplineSet
EndChar

StartChar: t
Encoding: 116 116 43
Width: 430
VWidth: 0
Flags: HMW
AnchorPoint: "ced" 267 0 basechar 0
AnchorPoint: "dot" 305 673 basechar 0
LayerCount: 2
Fore
SplineSet
120 520 m 5
 465 520 l 1
 449 425 l 1
 104 425 l 5
 120 520 l 5
233 140 m 5
 128 140 l 5
 215 673 l 5
 320 673 l 5
 233 140 l 5
288 85 m 1
 322 85 349 96 369 115 c 1
 409 42 l 1
 377 13 328 -10 266 -10 c 1
 288 85 l 1
233 140 m 5
 228 110 250 85 288 85 c 1
 266 -10 l 5
 167 -10 115 61 128 140 c 5
 233 140 l 5
EndSplineSet
EndChar

StartChar: a
Encoding: 97 97 44
Width: 580
VWidth: 0
Flags: HMW
AnchorPoint: "ced" 440 0 basechar 0
AnchorPoint: "ring" 280 673 basechar 0
AnchorPoint: "dot" 280 673 basechar 0
LayerCount: 2
Fore
SplineSet
367 322 m 1
 507 322 l 1
 495 248 l 1
 385 248 l 1
 367 322 l 1
459 330 m 1
 471 405 435 435 354 435 c 1
 375 530 l 1
 518 530 584 454 564 330 c 1
 459 330 l 1
354 435 m 1
 300 435 249 422 193 382 c 1
 148 450 l 1
 213 499 273 530 375 530 c 1
 354 435 l 1
459 330 m 1
 564 330 l 1
 510 0 l 1
 405 0 l 1
 459 330 l 1
168 155 m 1
 159 102 204 75 277 75 c 0
 355 75 421 100 434 180 c 1
 469 180 l 1
 451 71 372 -10 233 -10 c 0
 134 -10 42 41 60 150 c 5
 168 155 l 1
367 322 m 1
 385 248 l 1
 276 248 180 230 168 155 c 1
 60 150 l 5
 84 295 230 322 367 322 c 1
EndSplineSet
EndChar

StartChar: j
Encoding: 106 106 45
Width: 255
VWidth: 0
Flags: HMW
LayerCount: 2
Fore
SplineSet
170 682 m 4
 176 720 211 750 249 750 c 4
 287 750 312 720 306 682 c 4
 300 644 265 614 227 614 c 4
 189 614 164 644 170 682 c 4
160 520 m 1
 265 520 l 1
 170 -60 l 1
 67 -50 l 1
 160 520 l 1
3 -115 m 1
 -6 -210 l 1
 -63 -210 -111 -192 -132 -158 c 1
 -70 -87 l 1
 -56 -106 -30 -115 3 -115 c 1
67 -50 m 1
 170 -60 l 1
 157 -139 83 -210 -6 -210 c 1
 3 -115 l 1
 40 -115 60 -90 67 -50 c 1
EndSplineSet
EndChar

StartChar: s
Encoding: 115 115 46
Width: 520
VWidth: 0
Flags: HMW
AnchorPoint: "ced" 265 0 basechar 0
AnchorPoint: "dot" 265 673 basechar 0
LayerCount: 2
Fore
SplineSet
391 145 m 1
 496 152 l 1
 483 63 415 -10 267 -10 c 0
 158 -10 99 37 53 104 c 1
 138 166 l 1
 177 116 219 85 287 85 c 0
 340 85 385 105 391 145 c 1
232 381 m 1
 124 381 l 1
 136 467 218 530 335 530 c 0
 444 530 491 496 526 448 c 5
 450 380 l 1
 423 412 378 433 316 433 c 0
 258 433 235 403 232 381 c 1
337 314 m 0
 451 294 512 262 496 152 c 1
 391 145 l 1
 396 178 383 209 283 226 c 0
 182 243 110 283 124 381 c 1
 232 381 l 1
 228 351 251 329 337 314 c 0
EndSplineSet
EndChar

StartChar: v
Encoding: 118 118 47
Width: 590
VWidth: 0
Flags: HW
AnchorPoint: "ced" 297 0 basechar 0
AnchorPoint: "dot" 283 673 basechar 0
LayerCount: 2
Fore
SplineSet
345 0 m 1
 245 0 l 1
 246 5 l 1
 346 5 l 1
 345 0 l 1
246 5 m 1
 545 520 l 1
 650 520 l 1
 345 0 l 1
 246 5 l 1
110 520 m 1
 215 520 l 1
 346 5 l 1
 245 0 l 1
 110 520 l 1
EndSplineSet
EndChar

StartChar: f
Encoding: 102 102 48
Width: 375
VWidth: 0
Flags: HMW
AnchorPoint: "ced" 155 0 basechar 0
LayerCount: 2
Fore
SplineSet
120 520 m 1
 443 520 l 1
 427 425 l 1
 104 425 l 1
 120 520 l 1
306 590 m 1
 210 0 l 1
 105 0 l 1
 201 590 l 1
 306 590 l 1
373 645 m 5
 383 740 l 1
 445 740 486 718 507 688 c 1
 445 617 l 1
 429 638 407 645 373 645 c 5
306 590 m 5
 201 590 l 1
 214 669 294 740 383 740 c 1
 373 645 l 5
 338 645 311 619 306 590 c 5
EndSplineSet
Substitution2: "fi-1" fi
EndChar

StartChar: y
Encoding: 121 121 49
Width: 579
VWidth: 0
Flags: HW
AnchorPoint: "dot" 295 673 basechar 0
LayerCount: 2
Fore
SplineSet
114 520 m 5
 224 520 l 5
 365 5 l 5
 259 0 l 5
 114 520 l 5
144 -115 m 5
 135 -210 l 5
 78 -210 32 -184 11 -150 c 5
 74 -77 l 5
 88 -96 110 -115 144 -115 c 5
224 -60 m 6
 534 520 l 5
 639 520 l 5
 329 -60 l 6
 287 -140 224 -210 135 -210 c 5
 144 -115 l 5
 172 -115 203 -100 224 -60 c 6
EndSplineSet
EndChar

StartChar: w
Encoding: 119 119 50
Width: 795
VWidth: 0
Flags: HW
AnchorPoint: "ced" 565 0 basechar 0
AnchorPoint: "dot" 398 673 basechar 0
LayerCount: 2
Fore
SplineSet
440 520 m 1
 525 520 l 1
 517 470 l 1
 432 470 l 1
 440 520 l 1
625 0 m 1
 530 0 l 1
 531 5 l 5
 629 25 l 1
 625 0 l 1
541 5 m 5
 745 520 l 1
 850 520 l 1
 625 0 l 1
 541 5 l 5
442 470 m 1
 525 520 l 1
 619 25 l 1
 530 0 l 1
 442 470 l 1
265 0 m 1
 170 0 l 1
 174 25 l 1
 266 5 l 1
 265 0 l 1
184 25 m 1
 440 520 l 1
 507 470 l 1
 265 0 l 1
 184 25 l 1
115 520 m 1
 220 520 l 1
 256 5 l 1
 170 0 l 1
 115 520 l 1
EndSplineSet
EndChar

StartChar: x
Encoding: 120 120 51
Width: 615
VWidth: 0
Flags: HW
AnchorPoint: "ced" 515 0 basechar 0
AnchorPoint: "dot" 295 673 basechar 0
LayerCount: 2
Fore
SplineSet
30 0 m 1
 530 520 l 1
 650 520 l 1
 150 0 l 1
 30 0 l 1
135 520 m 1
 255 520 l 1
 585 0 l 1
 465 0 l 1
 135 520 l 1
EndSplineSet
EndChar

StartChar: z
Encoding: 122 122 52
Width: 570
VWidth: 0
Flags: HMW
AnchorPoint: "ced" 445 0 basechar 0
AnchorPoint: "dot" 290 673 basechar 0
LayerCount: 2
Fore
SplineSet
63 80 m 1
 84 85 l 1
 70 0 l 1
 50 0 l 1
 63 80 l 1
85 95 m 1
 535 95 l 1
 520 0 l 1
 70 0 l 1
 85 95 l 1
575 520 m 1
 595 520 l 1
 582 440 l 1
 561 435 l 1
 575 520 l 1
155 520 m 1
 575 520 l 1
 559 425 l 1
 139 425 l 1
 155 520 l 1
451 435 m 1
 582 440 l 1
 194 85 l 5
 63 80 l 1
 451 435 l 1
EndSplineSet
EndChar

StartChar: zero
Encoding: 48 48 53
Width: 600
VWidth: 0
Flags: HMW
LayerCount: 2
Fore
SplineSet
182 350 m 0
 158 203 193 90 315 90 c 0
 437 90 508 203 532 350 c 0
 556 497 521 610 399 610 c 0
 277 610 206 497 182 350 c 0
72 350 m 0
 104 549 241 710 416 710 c 0
 591 710 674 549 642 350 c 0
 610 151 473 -10 298 -10 c 0
 123 -10 40 151 72 350 c 0
EndSplineSet
EndChar

StartChar: one
Encoding: 49 49 54
Width: 600
VWidth: 0
Flags: HMW
LayerCount: 2
Fore
SplineSet
504 700 m 1
 500 676 l 1
 400 676 l 1
 404 700 l 1
 504 700 l 1
404 700 m 1
 469 631 l 5
 224 481 l 5
 191 560 l 1
 404 700 l 1
392 690 m 1
 504 700 l 1
 390 0 l 1
 280 0 l 1
 392 690 l 1
EndSplineSet
EndChar

StartChar: six
Encoding: 54 54 55
Width: 600
VWidth: 0
Flags: HMW
LayerCount: 2
Fore
SplineSet
186 220 m 1
 151 220 l 1
 172 349 273 445 402 445 c 1
 359 360 l 1
 261 360 199 300 186 220 c 1
186 220 m 0
 173 140 215 80 313 80 c 0
 411 80 473 140 486 220 c 0
 499 300 457 360 359 360 c 1
 402 445 l 1
 531 445 607 349 586 220 c 0
 565 91 447 -10 298 -10 c 0
 149 -10 65 91 86 220 c 0
 95 277 127 327 169 377 c 2
 443 700 l 1
 563 700 l 5
 255 352 l 5
 241 345 l 1
 198 316 194 271 186 220 c 0
EndSplineSet
EndChar

StartChar: period
Encoding: 46 46 56
Width: 230
VWidth: 0
Flags: HMW
LayerCount: 2
Fore
SplineSet
51 66 m 4
 58 108 97 142 138 142 c 4
 179 142 208 108 201 66 c 4
 194 24 154 -10 113 -10 c 4
 72 -10 44 24 51 66 c 4
EndSplineSet
EndChar

StartChar: semicolon
Encoding: 59 59 57
Width: 254
VWidth: 0
Flags: HMW
LayerCount: 2
Fore
SplineSet
81 66 m 0
 88 108 127 142 168 142 c 0
 219 142 243 108 236 66 c 0
 234 52 219 30 208 17 c 2
 89 -130 l 1
 19 -130 l 1
 114 2 l 5
 92 9 77 39 81 66 c 0
118 480 m 4
 125 522 165 556 206 556 c 4
 247 556 275 522 268 480 c 4
 261 438 222 404 181 404 c 4
 140 404 111 438 118 480 c 4
EndSplineSet
EndChar

StartChar: comma
Encoding: 44 44 58
Width: 254
VWidth: 0
Flags: HMW
LayerCount: 2
Fore
SplineSet
81 66 m 0
 88 108 127 142 168 142 c 0
 219 142 243 108 236 66 c 0
 234 52 219 30 208 17 c 2
 89 -130 l 1
 19 -130 l 1
 114 2 l 5
 92 9 77 39 81 66 c 0
EndSplineSet
EndChar

StartChar: colon
Encoding: 58 58 59
Width: 230
VWidth: 0
Flags: HMW
LayerCount: 2
Fore
SplineSet
51 66 m 4
 58 108 97 142 138 142 c 4
 179 142 208 108 201 66 c 4
 194 24 154 -10 113 -10 c 4
 72 -10 44 24 51 66 c 4
118 480 m 4
 125 522 165 556 206 556 c 4
 247 556 275 522 268 480 c 4
 261 438 222 404 181 404 c 4
 140 404 111 438 118 480 c 4
EndSplineSet
EndChar

StartChar: two
Encoding: 50 50 60
Width: 600
VWidth: 0
Flags: HMW
LayerCount: 2
Fore
SplineSet
64 85 m 1
 84 85 l 1
 70 0 l 1
 50 0 l 1
 64 85 l 1
507 506 m 1
 517 565 477 615 400 615 c 0
 321 615 260 558 211 475 c 1
 135 523 l 1
 194 629 298 710 416 710 c 0
 545 710 630 615 611 496 c 5
 507 506 l 1
70 0 m 1
 85 95 l 1
 565 95 l 1
 550 0 l 1
 70 0 l 1
425 251 m 2
 194 85 l 1
 64 85 l 1
 352 300 l 2
 466 385 494 425 507 506 c 1
 611 496 l 5
 595 396 547 339 425 251 c 2
EndSplineSet
EndChar

StartChar: nine
Encoding: 57 57 61
Width: 600
VWidth: 0
Flags: HMW
LayerCount: 2
Fore
SplineSet
528 480 m 1
 563 480 l 1
 542 351 441 255 312 255 c 1
 355 340 l 1
 453 340 515 400 528 480 c 1
528 480 m 0
 541 560 499 620 401 620 c 0
 303 620 241 560 228 480 c 0
 215 400 257 340 355 340 c 1
 312 255 l 1
 183 255 107 351 128 480 c 0
 149 609 267 710 416 710 c 0
 565 710 649 609 628 480 c 0
 619 423 587 373 545 323 c 2
 271 0 l 1
 151 0 l 5
 459 348 l 5
 473 355 l 1
 516 384 520 429 528 480 c 0
EndSplineSet
EndChar

StartChar: three
Encoding: 51 51 62
Width: 600
VWidth: 0
Flags: HMW
LayerCount: 2
Fore
SplineSet
314 394 m 1
 501 394 606 347 582 197 c 0
 559 57 425 -10 298 -10 c 0
 208 -10 118 14 66 99 c 1
 141 162 l 1
 173 107 246 84 314 84 c 0
 397 84 464 118 477 197 c 4
 490 276 435 320 302 320 c 1
 314 394 l 1
173 602 m 1
 231 660 302 710 416 710 c 0
 550 710 622 629 606 530 c 0
 587 411 479 340 305 340 c 1
 318 415 l 1
 438 415 491 462 500 520 c 0
 509 578 480 615 400 615 c 0
 327 615 277 587 229 539 c 1
 173 602 l 1
EndSplineSet
EndChar

StartChar: eight
Encoding: 56 56 63
Width: 600
VWidth: 0
Flags: HMW
LayerCount: 2
Fore
SplineSet
270 520 m 0
 261 462 298 415 368 415 c 0
 438 415 491 462 500 520 c 0
 509 578 470 615 400 615 c 0
 330 615 279 578 270 520 c 0
166 530 m 0
 182 629 292 710 416 710 c 0
 540 710 622 629 606 530 c 0
 587 411 481 350 357 350 c 0
 233 350 147 411 166 530 c 0
80 187 m 0
 103 327 226 384 363 384 c 0
 500 384 603 327 580 187 c 0
 560 67 435 -10 298 -10 c 0
 161 -10 60 67 80 187 c 0
187 197 m 0
 174 118 231 84 314 84 c 0
 397 84 464 118 477 197 c 0
 490 276 435 320 352 320 c 4
 269 320 200 276 187 197 c 0
EndSplineSet
EndChar

StartChar: four
Encoding: 52 52 64
Width: 600
VWidth: 0
Flags: HMW
LayerCount: 2
Fore
SplineSet
76 220 m 1
 96 220 l 1
 82 135 l 1
 62 135 l 1
 76 220 l 1
97 230 m 1
 587 230 l 1
 572 135 l 1
 82 135 l 1
 97 230 l 1
594 700 m 1
 590 676 l 1
 475 676 l 1
 479 700 l 1
 594 700 l 1
479 700 m 1
 547 659 l 5
 181 220 l 1
 76 220 l 1
 479 700 l 1
486 680 m 1
 594 700 l 1
 480 0 l 1
 375 0 l 1
 486 680 l 1
EndSplineSet
EndChar

StartChar: five
Encoding: 53 53 65
Width: 600
VWidth: 0
Flags: HMW
LayerCount: 2
Fore
SplineSet
121 311 m 1
 136 346 l 1
 206 346 l 1
 211 311 l 1
 121 311 l 1
394 455 m 1
 521 455 609 360 586 220 c 0
 562 70 425 -10 298 -10 c 0
 208 -10 118 14 66 99 c 1
 147 167 l 1
 179 112 251 86 314 86 c 0
 387 86 467 131 481 220 c 0
 494 299 462 360 359 360 c 1
 394 455 l 1
121 311 m 1
 244 700 l 1
 339 700 l 1
 231 341 l 1
 121 311 l 1
244 700 m 1
 624 700 l 1
 609 605 l 1
 229 605 l 1
 244 700 l 1
359 360 m 1
 302 360 258 352 211 311 c 1
 171 311 l 1
 215 400 255 455 394 455 c 1
 359 360 l 1
EndSplineSet
EndChar

StartChar: seven
Encoding: 55 55 66
Width: 600
VWidth: 0
Flags: HMW
LayerCount: 2
Fore
SplineSet
652 620 m 1
 261 0 l 5
 154 0 l 1
 545 620 l 1
 652 620 l 1
644 700 m 1
 665 700 l 1
 652 620 l 1
 631 620 l 1
 644 700 l 1
164 700 m 1
 644 700 l 1
 629 605 l 1
 149 605 l 1
 164 700 l 1
EndSplineSet
EndChar

StartChar: exclam
Encoding: 33 33 67
Width: 230
VWidth: 0
Flags: HMW
LayerCount: 2
Fore
SplineSet
51 66 m 4
 58 108 97 142 138 142 c 4
 179 142 208 108 201 66 c 4
 194 24 154 -10 113 -10 c 4
 72 -10 44 24 51 66 c 4
136 490 m 1
 254 490 l 1
 188 250 l 1
 124 250 l 1
 136 490 l 1
175 730 m 1
 293 730 l 1
 254 490 l 1
 136 490 l 1
 175 730 l 1
EndSplineSet
EndChar

StartChar: quotedbl
Encoding: 34 34 68
Width: 340
VWidth: 0
Flags: HMW
LayerCount: 2
Fore
SplineSet
130 675 m 0
 137 715 166 740 206 740 c 0
 246 740 267 715 260 675 c 4
 259 669 257 664 255 658 c 2
 185 480 l 1
 141 480 l 1
 129 658 l 6
 129 664 129 669 130 675 c 0
300 675 m 0
 307 715 336 740 376 740 c 0
 416 740 437 715 430 675 c 4
 429 669 427 664 425 658 c 2
 355 480 l 1
 311 480 l 1
 299 658 l 6
 299 664 299 669 300 675 c 0
EndSplineSet
EndChar

StartChar: quotesingle
Encoding: 39 39 69
Width: 170
VWidth: 0
Flags: HMW
LayerCount: 2
Fore
SplineSet
130 675 m 0
 137 715 166 740 206 740 c 0
 246 740 267 715 260 675 c 4
 259 669 257 664 255 658 c 2
 185 480 l 1
 141 480 l 1
 129 658 l 6
 129 664 129 669 130 675 c 0
EndSplineSet
EndChar

StartChar: numbersign
Encoding: 35 35 70
Width: 810
VWidth: 0
Flags: HMW
LayerCount: 2
Fore
SplineSet
762 260 m 1
 747 165 l 1
 77 165 l 1
 92 260 l 1
 762 260 l 1
847 535 m 1
 832 440 l 5
 162 440 l 5
 177 535 l 1
 847 535 l 1
669 700 m 1
 769 700 l 1
 535 0 l 1
 435 0 l 1
 669 700 l 1
389 700 m 1
 489 700 l 1
 255 0 l 1
 155 0 l 1
 389 700 l 1
EndSplineSet
EndChar

StartChar: percent
Encoding: 37 37 71
Width: 940
VWidth: 0
Flags: HMW
LayerCount: 2
Fore
SplineSet
649 180 m 0
 639 121 676 75 732 75 c 0
 788 75 839 121 849 180 c 0
 859 239 822 285 766 285 c 0
 710 285 659 239 649 180 c 0
210 550 m 0
 200 491 236 445 292 445 c 0
 348 445 400 491 410 550 c 0
 420 609 383 655 327 655 c 0
 271 655 220 609 210 550 c 0
120 550 m 0
 137 655 236 740 341 740 c 0
 446 740 517 655 500 550 c 0
 483 445 384 360 279 360 c 0
 174 360 103 445 120 550 c 0
559 180 m 0
 576 285 675 370 780 370 c 0
 885 370 956 285 939 180 c 0
 922 75 823 -10 718 -10 c 0
 613 -10 542 75 559 180 c 0
789 730 m 1
 889 730 l 1
 270 0 l 1
 170 0 l 1
 789 730 l 1
EndSplineSet
EndChar

StartChar: dollar
Encoding: 36 36 72
Width: 600
VWidth: 0
Flags: HMW
LayerCount: 2
Fore
SplineSet
486 190 m 1
 592 195 l 1
 573 76 475 -10 316 -10 c 0
 187 -10 106 56 53 113 c 1
 125 190 l 1
 166 146 223 85 331 85 c 4
 429 85 476 130 486 190 c 1
258 519 m 1
 152 514 l 1
 170 625 282 710 421 710 c 0
 540 710 600 674 644 622 c 1
 575 549 l 1
 537 593 483 615 415 615 c 0
 317 615 266 566 258 519 c 1
396 406 m 0
 529 384 613 327 592 195 c 1
 486 190 l 1
 499 269 448 300 342 317 c 0
 212 338 134 406 152 514 c 5
 258 519 l 1
 247 454 300 422 396 406 c 0
408 780 m 1
 478 780 l 1
 338 -80 l 1
 268 -80 l 1
 408 780 l 1
EndSplineSet
EndChar

StartChar: asterisk
Encoding: 42 42 73
Width: 324
VWidth: 0
Flags: HMW
LayerCount: 2
Fore
SplineSet
125 479 m 1
 103 531 l 1
 388 681 l 1
 409 629 l 1
 125 479 l 1
119 629 m 1
 158 681 l 1
 393 531 l 1
 355 479 l 1
 119 629 l 1
251 730 m 1
 311 730 l 1
 262 430 l 1
 202 430 l 1
 251 730 l 1
EndSplineSet
EndChar

StartChar: slash
Encoding: 47 47 74
Width: 430
VWidth: 0
Flags: HMW
LayerCount: 2
Fore
SplineSet
487 780 m 1
 577 780 l 1
 57 -80 l 5
 -33 -80 l 1
 487 780 l 1
EndSplineSet
EndChar

StartChar: ampersand
Encoding: 38 38 75
Width: 715
VWidth: 0
Flags: HMW
LayerCount: 2
Fore
SplineSet
369 395 m 0
 449 416 503 480 511 530 c 1
 611 530 l 1
 596 435 487 367 391 345 c 0
 289 322 216 281 201 190 c 1
 101 190 l 1
 124 330 259 366 369 395 c 0
333 540 m 1
 233 540 l 1
 251 649 342 710 451 710 c 0
 560 710 630 649 611 530 c 1
 511 530 l 1
 521 589 484 625 437 625 c 0
 390 625 342 594 333 540 c 1
348 291 m 2
 277 396 220 460 233 540 c 5
 333 540 l 1
 325 489 368 437 435 339 c 2
 665 0 l 1
 545 0 l 1
 348 291 l 2
617 314 m 1
 696 284 l 1
 638 115 487 -10 318 -10 c 0
 169 -10 82 71 101 190 c 1
 201 190 l 1
 191 131 247 85 344 85 c 0
 461 85 563 165 617 314 c 1
EndSplineSet
EndChar

StartChar: parenleft
Encoding: 40 40 76
Width: 275
VWidth: 0
Flags: HMW
LayerCount: 2
Fore
SplineSet
307 750 m 1
 381 710 l 1
 179 450 118 80 236 -180 c 5
 149 -220 l 1
 -1 90 57 440 307 750 c 1
EndSplineSet
EndChar

StartChar: parenright
Encoding: 41 41 77
Width: 275
VWidth: 0
Flags: HMW
LayerCount: 2
Fore
SplineSet
54 -220 m 1
 -19 -180 l 1
 183 80 244 450 126 710 c 5
 212 750 l 1
 362 440 304 90 54 -220 c 1
EndSplineSet
EndChar

StartChar: hyphen
Encoding: 45 45 78
Width: 430
VWidth: 0
Flags: HMW
LayerCount: 2
Fore
SplineSet
121 345 m 5
 421 345 l 5
 406 250 l 1
 106 250 l 1
 121 345 l 5
EndSplineSet
EndChar

StartChar: plus
Encoding: 43 43 79
Width: 510
VWidth: 0
Flags: HMW
LayerCount: 2
Fore
SplineSet
401 589 m 5
 327 134 l 5
 227 134 l 1
 301 589 l 1
 401 589 l 5
97 409 m 1
 547 409 l 1
 531 314 l 1
 81 314 l 1
 97 409 l 1
EndSplineSet
EndChar

StartChar: equal
Encoding: 61 61 80
Width: 510
VWidth: 0
Flags: HMW
LayerCount: 2
Fore
SplineSet
76 285 m 1
 526 285 l 1
 511 190 l 1
 61 190 l 1
 76 285 l 1
115 520 m 5
 565 520 l 5
 549 425 l 1
 99 425 l 1
 115 520 l 5
EndSplineSet
EndChar

StartChar: backslash
Encoding: 92 92 81
Width: 430
VWidth: 0
Flags: HMW
LayerCount: 2
Fore
SplineSet
197 780 m 1
 437 -80 l 1
 347 -80 l 5
 107 780 l 1
 197 780 l 1
EndSplineSet
EndChar

StartChar: less
Encoding: 60 60 82
Width: 510
VWidth: 0
Flags: HMW
LayerCount: 2
Fore
SplineSet
96 405 m 1
 515 215 l 1
 500 120 l 1
 80 310 l 5
 96 405 l 1
96 405 m 1
 577 595 l 1
 561 500 l 1
 80 310 l 5
 96 405 l 1
EndSplineSet
EndChar

StartChar: greater
Encoding: 62 62 83
Width: 510
VWidth: 0
Flags: HMW
LayerCount: 2
Fore
SplineSet
536 310 m 1
 117 500 l 1
 133 595 l 1
 552 405 l 5
 536 310 l 1
536 310 m 1
 56 120 l 1
 71 215 l 1
 552 405 l 5
 536 310 l 1
EndSplineSet
EndChar

StartChar: question
Encoding: 63 63 84
Width: 555
VWidth: 0
Flags: HMW
LayerCount: 2
Fore
SplineSet
196 66 m 4
 203 108 242 142 283 142 c 4
 324 142 353 108 346 66 c 4
 339 24 299 -10 258 -10 c 4
 217 -10 189 24 196 66 c 4
403 452 m 0
 463 480 489 516 496 556 c 1
 601 556 l 1
 586 461 525 412 441 374 c 0
 378 346 359 331 346 250 c 1
 246 250 l 1
 250 400 328 417 403 452 c 0
496 556 m 1
 504 605 467 645 390 645 c 0
 311 645 254 601 209 538 c 1
 137 593 l 1
 193 679 283 740 406 740 c 0
 550 740 617 655 601 556 c 1
 496 556 l 1
EndSplineSet
EndChar

StartChar: at
Encoding: 64 64 85
Width: 1050
VWidth: 0
Flags: HMW
LayerCount: 2
Fore
SplineSet
722 260 m 4
 740 369 683 435 596 435 c 4
 509 435 430 369 412 260 c 0
 394 151 452 85 539 85 c 0
 626 85 704 151 722 260 c 4
757 260 m 0
 733 111 662 -10 513 -10 c 0
 384 -10 286 101 312 260 c 0
 338 419 472 530 601 530 c 0
 750 530 781 409 757 260 c 0
865 520 m 1
 800 120 l 1
 696 100 l 1
 765 520 l 1
 865 520 l 1
97 260 m 0
 139 519 365 730 644 730 c 0
 903 730 1086 559 1044 300 c 0
 1006 64 872 -10 796 -10 c 0
 702 -10 687 43 696 100 c 1
 800 120 l 1
 790 61 797 33 833 33 c 0
 884 33 983 116 1013 300 c 0
 1053 543 882 701 639 701 c 0
 376 701 168 503 128 260 c 0
 88 17 253 -181 496 -181 c 1
 491 -210 l 1
 232 -210 55 1 97 260 c 0
EndSplineSet
EndChar

StartChar: bracketleft
Encoding: 91 91 86
Width: 305
VWidth: 0
Flags: HMW
LayerCount: 2
Fore
SplineSet
238 634 m 1
 254 730 l 1
 404 730 l 1
 388 634 l 1
 238 634 l 1
102 -200 m 1
 118 -104 l 5
 268 -104 l 5
 252 -200 l 1
 102 -200 l 1
164 730 m 1
 264 730 l 1
 112 -200 l 1
 12 -200 l 1
 164 730 l 1
EndSplineSet
EndChar

StartChar: bracketright
Encoding: 93 93 87
Width: 295
VWidth: 0
Flags: HMW
LayerCount: 2
Fore
SplineSet
143 -104 m 1
 127 -200 l 1
 -23 -200 l 1
 -7 -104 l 1
 143 -104 l 1
279 730 m 1
 263 634 l 5
 113 634 l 5
 129 730 l 1
 279 730 l 1
217 -200 m 1
 117 -200 l 1
 269 730 l 1
 369 730 l 1
 217 -200 l 1
EndSplineSet
EndChar

StartChar: asciicircum
Encoding: 94 94 88
Width: 510
VWidth: 0
Flags: HMW
LayerCount: 2
Fore
SplineSet
470 430 m 5
 319 730 l 1
 429 730 l 1
 560 430 l 1
 470 430 l 5
319 730 m 1
 429 730 l 1
 180 430 l 1
 90 430 l 1
 319 730 l 1
EndSplineSet
EndChar

StartChar: underscore
Encoding: 95 95 89
Width: 600
VWidth: 0
Flags: HMW
LayerCount: 2
Fore
SplineSet
-13 -70 m 5
 591 -70 l 5
 574 -170 l 1
 -30 -170 l 1
 -13 -70 l 5
EndSplineSet
EndChar

StartChar: braceleft
Encoding: 123 123 90
Width: 369
VWidth: 0
Flags: HMW
LayerCount: 2
Fore
SplineSet
106 315 m 5
 124 315 l 5
 108 215 l 1
 90 215 l 1
 106 315 l 5
171 150 m 1
 271 150 l 1
 242 -30 l 1
 139 -50 l 1
 171 150 l 1
241 580 m 1
 338 560 l 1
 309 380 l 1
 209 380 l 1
 241 580 l 1
209 380 m 1
 309 380 l 1
 296 301 219 240 100 240 c 1
 106 315 l 5
 194 315 202 340 209 380 c 1
171 150 m 1
 178 190 168 215 90 215 c 1
 108 290 l 5
 227 290 284 229 271 150 c 1
 171 150 l 1
338 560 m 1
 241 580 l 1
 254 659 333 730 452 730 c 1
 442 635 l 1
 364 635 345 600 338 560 c 1
242 -30 m 1
 235 -70 244 -105 322 -105 c 1
 300 -200 l 1
 181 -200 126 -129 139 -50 c 1
 242 -30 l 1
EndSplineSet
EndChar

StartChar: braceright
Encoding: 125 125 91
Width: 349
VWidth: 0
Flags: HMW
LayerCount: 2
Fore
SplineSet
354 215 m 5
 336 215 l 5
 352 315 l 1
 370 315 l 1
 354 215 l 5
289 380 m 1
 189 380 l 1
 218 560 l 1
 321 580 l 1
 289 380 l 1
219 -50 m 1
 122 -30 l 1
 151 150 l 1
 251 150 l 1
 219 -50 l 1
251 150 m 1
 151 150 l 1
 164 229 241 290 360 290 c 1
 354 215 l 5
 266 215 258 190 251 150 c 1
289 380 m 1
 282 340 292 315 370 315 c 1
 352 240 l 5
 233 240 176 301 189 380 c 1
 289 380 l 1
122 -30 m 1
 219 -50 l 1
 206 -129 127 -200 8 -200 c 1
 18 -105 l 1
 96 -105 115 -70 122 -30 c 1
218 560 m 1
 225 600 216 635 138 635 c 1
 160 730 l 1
 279 730 334 659 321 580 c 1
 218 560 l 1
EndSplineSet
EndChar

StartChar: bar
Encoding: 124 124 92
Width: 320
VWidth: 0
Flags: HMW
LayerCount: 2
Fore
SplineSet
332 780 m 5
 192 -80 l 5
 102 -80 l 1
 242 780 l 1
 332 780 l 5
EndSplineSet
EndChar

StartChar: asciitilde
Encoding: 126 126 93
Width: 470
VWidth: 0
Flags: HMW
LayerCount: 2
Fore
SplineSet
143 174 m 5
 77 194 l 5
 94 272 148 311 199 311 c 4
 263 311 308 247 352 247 c 4
 397 247 410 277 416 314 c 5
 473 294 l 5
 454 206 403 177 353 177 c 4
 291 177 250 241 207 241 c 4
 163 241 149 211 143 174 c 5
EndSplineSet
EndChar

StartChar: quoteleft
Encoding: 8216 8216 94
Width: 214
VWidth: 0
Flags: HMW
LayerCount: 2
Fore
SplineSet
231 534 m 0
 224 492 185 458 144 458 c 0
 93 458 69 492 76 534 c 0
 78 548 93 570 104 583 c 2
 223 730 l 1
 293 730 l 1
 197 598 l 5
 219 591 235 561 231 534 c 0
EndSplineSet
EndChar

StartChar: quoteright
Encoding: 8217 8217 95
Width: 214
VWidth: 0
Flags: HMW
LayerCount: 2
Fore
SplineSet
182 686 m 0
 189 728 228 762 269 762 c 0
 320 762 344 728 337 686 c 0
 335 672 320 650 309 637 c 2
 190 490 l 1
 120 490 l 1
 215 622 l 5
 193 629 178 659 182 686 c 0
EndSplineSet
EndChar

StartChar: quotedblleft
Encoding: 8220 8220 96
Width: 414
VWidth: 0
Flags: HMW
LayerCount: 2
Fore
SplineSet
231 534 m 0
 224 492 185 458 144 458 c 0
 93 458 69 492 76 534 c 0
 78 548 93 570 104 583 c 2
 223 730 l 1
 293 730 l 1
 197 598 l 5
 219 591 235 561 231 534 c 0
431 534 m 0
 424 492 385 458 344 458 c 0
 293 458 269 492 276 534 c 0
 278 548 293 570 304 583 c 2
 423 730 l 1
 493 730 l 1
 397 598 l 5
 419 591 435 561 431 534 c 0
EndSplineSet
EndChar

StartChar: quotedblright
Encoding: 8221 8221 97
Width: 414
VWidth: 0
Flags: HMW
LayerCount: 2
Fore
SplineSet
382 686 m 0
 389 728 428 762 469 762 c 0
 520 762 544 728 537 686 c 0
 535 672 520 650 509 637 c 2
 390 490 l 1
 320 490 l 1
 415 622 l 5
 393 629 378 659 382 686 c 0
182 686 m 0
 189 728 228 762 269 762 c 0
 320 762 344 728 337 686 c 0
 335 672 320 650 309 637 c 2
 190 490 l 1
 120 490 l 1
 215 622 l 5
 193 629 178 659 182 686 c 0
EndSplineSet
EndChar

StartChar: tilde
Encoding: 732 732 98
Width: 500
VWidth: 0
Flags: HMW
AnchorPoint: "dot" 250 610 basechar 0
LayerCount: 2
Fore
SplineSet
228 600 m 1
 150 620 l 5
 167 698 232 737 283 737 c 0
 347 737 395 693 439 693 c 4
 474 693 495 703 501 740 c 1
 577 720 l 1
 558 632 487 603 437 603 c 0
 375 603 331 647 288 647 c 4
 254 647 234 637 228 600 c 1
EndSplineSet
EndChar

StartChar: dotaccent
Encoding: 729 729 99
Width: 500
VWidth: 0
Flags: HMW
AnchorPoint: "dot" 250 590 basechar 0
LayerCount: 2
Fore
SplineSet
282 656 m 0
 289 698 328 732 369 732 c 0
 410 732 439 698 432 656 c 0
 425 614 385 580 344 580 c 0
 303 580 275 614 282 656 c 0
EndSplineSet
EndChar

StartChar: ring
Encoding: 730 730 100
Width: 500
VWidth: 0
Flags: HMW
AnchorPoint: "ring" 250 590 basechar 0
LayerCount: 2
Fore
SplineSet
311 680 m 0
 306 651 324 630 353 630 c 0
 382 630 406 651 411 680 c 0
 416 709 398 730 369 730 c 4
 340 730 316 709 311 680 c 0
261 680 m 0
 270 735 322 780 377 780 c 0
 432 780 470 735 461 680 c 0
 452 625 399 580 344 580 c 0
 289 580 252 625 261 680 c 0
EndSplineSet
EndChar

StartChar: breve
Encoding: 728 728 101
Width: 500
VWidth: 0
Flags: HMW
AnchorPoint: "dot" 244 569 basechar 0
LayerCount: 2
Fore
SplineSet
353 669 m 1
 303 669 272 693 280 741 c 5
 184 735 l 5
 168 636 228 569 337 569 c 1
 353 669 l 1
353 669 m 1
 337 569 l 1
 446 569 528 636 544 735 c 5
 450 741 l 5
 442 693 403 669 353 669 c 1
EndSplineSet
EndChar

StartChar: circumflex
Encoding: 710 710 102
Width: 500
VWidth: 0
Flags: HMW
AnchorPoint: "dot" 250 630 basechar 0
LayerCount: 2
Fore
SplineSet
418 630 m 1
 334 730 l 1
 424 730 l 1
 508 630 l 1
 418 630 l 1
314 730 m 5
 404 730 l 1
 288 630 l 1
 198 630 l 5
 314 730 l 5
EndSplineSet
EndChar

StartChar: caron
Encoding: 711 711 103
Width: 500
VWidth: 0
Flags: HMW
AnchorPoint: "dot" 250 630 basechar 0
LayerCount: 2
Fore
SplineSet
304 730 m 1
 388 630 l 1
 298 630 l 5
 214 730 l 5
 304 730 l 1
408 630 m 1
 318 630 l 1
 434 730 l 1
 524 730 l 1
 408 630 l 1
EndSplineSet
EndChar

StartChar: exclamdown
Encoding: 161 161 104
Width: 190
VWidth: 0
Flags: HMW
LayerCount: 2
Fore
SplineSet
244 454 m 4
 237 412 198 378 157 378 c 4
 116 378 87 412 94 454 c 4
 101 496 140 530 181 530 c 4
 222 530 251 496 244 454 c 4
159 30 m 1
 41 30 l 1
 107 270 l 1
 171 270 l 1
 159 30 l 1
120 -210 m 1
 2 -210 l 1
 41 30 l 1
 159 30 l 1
 120 -210 l 1
EndSplineSet
EndChar

StartChar: cent
Encoding: 162 162 105
Width: 600
VWidth: 0
Flags: HMW
LayerCount: 2
Fore
SplineSet
202 260 m 0
 186 161 242 85 349 85 c 0
 408 85 471 114 510 158 c 5
 563 92 l 1
 506 28 430 -10 333 -10 c 0
 174 -10 73 111 97 260 c 0
 121 409 262 530 421 530 c 0
 518 530 580 491 617 428 c 1
 543 361 l 1
 518 405 465 435 406 435 c 0
 299 435 218 359 202 260 c 0
393 600 m 5
 453 600 l 1
 342 -80 l 1
 282 -80 l 5
 393 600 l 5
EndSplineSet
EndChar

StartChar: questiondown
Encoding: 191 191 106
Width: 555
VWidth: 0
Flags: HMW
LayerCount: 2
Fore
SplineSet
444 454 m 4
 437 412 398 378 357 378 c 4
 316 378 287 412 294 454 c 4
 301 496 340 530 381 530 c 4
 422 530 451 496 444 454 c 4
237 68 m 0
 177 40 151 4 144 -36 c 1
 39 -36 l 1
 54 59 115 108 199 146 c 0
 262 174 281 189 294 270 c 1
 394 270 l 1
 390 120 312 103 237 68 c 0
144 -36 m 1
 136 -85 173 -125 250 -125 c 0
 329 -125 386 -81 431 -18 c 1
 503 -73 l 1
 447 -159 357 -220 234 -220 c 0
 90 -220 23 -135 39 -36 c 1
 144 -36 l 1
EndSplineSet
EndChar

StartChar: uni0203
Encoding: 515 515 107
Width: 580
VWidth: 0
Flags: HMW
LayerCount: 2
Fore
SplineSet
367 322 m 1
 507 322 l 1
 495 248 l 1
 385 248 l 1
 367 322 l 1
459 330 m 1
 471 405 435 435 354 435 c 1
 375 530 l 1
 518 530 584 454 564 330 c 1
 459 330 l 1
354 435 m 1
 300 435 249 422 193 382 c 1
 148 450 l 1
 213 499 273 530 375 530 c 1
 354 435 l 1
459 330 m 1
 564 330 l 1
 510 0 l 1
 405 0 l 1
 459 330 l 1
168 155 m 1
 159 102 204 75 277 75 c 0
 355 75 421 100 434 180 c 1
 469 180 l 1
 451 71 372 -10 233 -10 c 0
 134 -10 42 41 60 150 c 5
 168 155 l 1
367 322 m 1
 385 248 l 1
 276 248 180 230 168 155 c 1
 60 150 l 5
 84 295 230 322 367 322 c 1
395 652 m 1
 345 652 306 628 298 580 c 5
 204 586 l 5
 220 685 302 752 411 752 c 1
 395 652 l 1
395 652 m 1
 411 752 l 1
 520 752 580 685 564 586 c 5
 468 580 l 5
 476 628 445 652 395 652 c 1
EndSplineSet
EndChar

StartChar: sterling
Encoding: 163 163 108
Width: 600
VWidth: 0
Flags: HMW
LayerCount: 2
Fore
SplineSet
162 45 m 1
 57 -1 l 5
 272 273 150 279 191 530 c 1
 291 530 l 1
 261 346 340 220 162 45 c 1
141 -25 m 1
 57 -1 l 5
 144 77 202 92 273 92 c 0
 337 92 372 58 416 58 c 0
 461 58 490 78 516 115 c 1
 566 70 l 1
 527 -18 459 -32 409 -32 c 0
 327 -32 277 12 234 12 c 0
 190 12 165 2 141 -25 c 1
109 390 m 1
 407 390 l 1
 391 295 l 1
 93 295 l 1
 109 390 l 1
405 615 m 1
 415 710 l 1
 497 710 559 669 586 610 c 1
 523 541 l 1
 502 580 459 615 405 615 c 1
291 530 m 1
 191 530 l 1
 209 639 296 710 415 710 c 1
 405 615 l 1
 340 615 301 589 291 530 c 1
EndSplineSet
EndChar

StartChar: currency
Encoding: 164 164 109
Width: 600
VWidth: 0
Flags: HMW
LayerCount: 2
Fore
SplineSet
161 204 m 1
 212 143 l 1
 101 47 l 1
 50 108 l 1
 161 204 l 1
430 148 m 1
 500 209 l 5
 585 108 l 5
 515 47 l 1
 430 148 l 1
602 583 m 1
 653 522 l 1
 522 409 l 1
 471 470 l 1
 602 583 l 1
117 522 m 1
 188 583 l 1
 283 470 l 1
 212 409 l 1
 117 522 l 1
219 315 m 0
 206 238 253 179 329 179 c 0
 405 179 470 238 483 315 c 0
 496 392 449 451 373 451 c 0
 297 451 232 392 219 315 c 0
135 315 m 0
 154 434 267 531 386 531 c 0
 505 531 586 434 567 315 c 0
 548 196 435 99 316 99 c 0
 197 99 116 196 135 315 c 0
EndSplineSet
EndChar

StartChar: yen
Encoding: 165 165 110
Width: 600
VWidth: 0
Flags: HMW
LayerCount: 2
Fore
SplineSet
302 295 m 1
 399 295 l 1
 350 0 l 1
 254 0 l 1
 302 295 l 1
135 700 m 1
 241 700 l 1
 399 295 l 1
 324 217 l 1
 135 700 l 1
592 700 m 1
 697 700 l 1
 351 217 l 1
 302 295 l 1
 592 700 l 1
57 165 m 1
 597 165 l 1
 587 104 l 1
 47 104 l 1
 57 165 l 1
82 316 m 5
 622 316 l 5
 612 255 l 1
 72 255 l 1
 82 316 l 5
EndSplineSet
EndChar

StartChar: brokenbar
Encoding: 166 166 111
Width: 300
VWidth: 0
Flags: HMW
LayerCount: 2
Fore
SplineSet
260 460 m 5
 190 460 l 5
 242 780 l 1
 312 780 l 1
 260 460 l 5
231 280 m 1
 172 -80 l 1
 102 -80 l 1
 161 280 l 1
 231 280 l 1
EndSplineSet
EndChar

StartChar: section
Encoding: 167 167 112
Width: 520
VWidth: 0
Flags: HMW
LayerCount: 2
Fore
SplineSet
418 140 m 1
 498 140 l 1
 485 61 412 -10 273 -10 c 0
 164 -10 106 37 62 104 c 1
 125 155 l 1
 163 105 208 65 286 65 c 0
 359 65 410 90 418 140 c 1
327 287 m 0
 441 268 518 260 498 140 c 1
 418 140 l 1
 425 180 391 201 285 216 c 0
 184 231 63 328 227 473 c 5
 287 473 l 5
 166 343 232 303 327 287 c 0
263 573 m 1
 183 573 l 1
 195 649 282 710 391 710 c 0
 500 710 545 670 580 628 c 1
 522 573 l 1
 489 606 456 635 378 635 c 0
 300 635 268 605 263 573 c 1
381 498 m 0
 495 479 620 400 456 250 c 5
 396 250 l 5
 517 380 446 412 340 427 c 0
 239 442 168 478 183 573 c 1
 263 573 l 1
 255 523 286 514 381 498 c 0
EndSplineSet
EndChar

StartChar: dieresis
Encoding: 168 168 113
Width: 500
VWidth: 0
Flags: HMW
AnchorPoint: "dot" 250 590 basechar 0
LayerCount: 2
Fore
SplineSet
172 656 m 0
 179 698 218 732 259 732 c 0
 300 732 329 698 322 656 c 0
 315 614 275 580 234 580 c 0
 193 580 165 614 172 656 c 0
392 656 m 0
 399 698 438 732 479 732 c 0
 520 732 549 698 542 656 c 0
 535 614 495 580 454 580 c 0
 413 580 385 614 392 656 c 0
EndSplineSet
EndChar

StartChar: copyright
Encoding: 169 169 114
Width: 850
VWidth: 0
Flags: HMW
LayerCount: 2
Fore
SplineSet
363 350 m 0
 351 277 393 220 469 220 c 0
 511 220 552 238 581 266 c 1
 609 232 l 1
 570 194 519 170 461 170 c 4
 359 170 292 250 308 350 c 0
 324 450 417 530 519 530 c 4
 577 530 622 506 648 468 c 1
 608 434 l 1
 589 462 553 480 511 480 c 0
 435 480 375 423 363 350 c 0
170 350 m 0
 141 174 259 30 430 30 c 0
 601 30 765 174 794 350 c 0
 823 526 705 670 534 670 c 0
 363 670 199 526 170 350 c 0
127 350 m 0
 159 549 346 710 541 710 c 0
 736 710 869 549 837 350 c 0
 805 151 618 -10 423 -10 c 0
 228 -10 95 151 127 350 c 0
EndSplineSet
EndChar

StartChar: ordfeminine
Encoding: 170 170 115
Width: 535
VWidth: 0
Flags: HMW
LayerCount: 2
Fore
SplineSet
375 554 m 1
 480 554 l 1
 471 499 l 1
 388 499 l 1
 375 554 l 1
443 560 m 1
 452 616 425 639 364 639 c 1
 380 710 l 1
 487 710 537 653 522 560 c 1
 443 560 l 1
364 639 m 1
 324 639 286 630 244 600 c 1
 210 650 l 1
 259 687 304 710 380 710 c 1
 364 639 l 1
443 560 m 1
 522 560 l 1
 481 313 l 1
 403 313 l 1
 443 560 l 1
225 429 m 1
 219 389 252 369 307 369 c 0
 365 369 415 388 425 448 c 1
 451 448 l 1
 438 366 378 306 274 306 c 0
 200 306 131 344 144 426 c 5
 225 429 l 1
375 554 m 1
 388 499 l 1
 306 499 234 485 225 429 c 1
 144 426 l 5
 162 535 272 554 375 554 c 1
133 263 m 5
 466 263 l 5
 454 192 l 1
 121 192 l 1
 133 263 l 5
EndSplineSet
EndChar

StartChar: registered
Encoding: 174 174 116
Width: 850
VWidth: 0
Flags: HMW
LayerCount: 2
Fore
SplineSet
501 349 m 5
 545 349 579 373 585 411 c 4
 591 449 566 475 522 475 c 5
 530 525 l 5
 600 525 651 479 640 411 c 4
 629 344 563 299 493 299 c 5
 501 349 l 5
383 525 m 1
 438 525 l 1
 381 175 l 1
 326 175 l 1
 383 525 l 1
395 525 m 1
 530 525 l 5
 522 475 l 5
 387 475 l 1
 395 525 l 1
366 349 m 1
 501 349 l 5
 493 299 l 5
 358 299 l 1
 366 349 l 1
468 335 m 5
 531 335 l 5
 625 175 l 5
 562 175 l 5
 468 335 l 5
170 350 m 0
 141 174 259 30 430 30 c 0
 601 30 765 174 794 350 c 0
 823 526 705 670 534 670 c 0
 363 670 199 526 170 350 c 0
127 350 m 0
 159 549 346 710 541 710 c 0
 736 710 869 549 837 350 c 0
 805 151 618 -10 423 -10 c 0
 228 -10 95 151 127 350 c 0
EndSplineSet
EndChar

StartChar: ordmasculine
Encoding: 186 186 117
Width: 535
VWidth: 0
Flags: HMW
LayerCount: 2
Fore
SplineSet
115 263 m 5
 501 263 l 5
 489 192 l 1
 103 192 l 1
 115 263 l 5
221 510 m 0
 209 436 247 379 327 379 c 0
 407 379 464 436 476 510 c 0
 488 584 449 641 369 641 c 0
 289 641 233 584 221 510 c 0
142 510 m 0
 160 622 262 712 381 712 c 0
 500 712 572 622 554 510 c 0
 536 398 434 308 315 308 c 0
 196 308 124 398 142 510 c 0
EndSplineSet
EndChar

StartChar: plusminus
Encoding: 177 177 118
Width: 510
VWidth: 0
Flags: HMW
LayerCount: 2
Fore
SplineSet
401 589 m 5
 336 189 l 5
 236 189 l 1
 301 589 l 1
 401 589 l 5
100 431 m 1
 550 431 l 1
 537 347 l 1
 87 347 l 1
 100 431 l 1
55 155 m 5
 505 155 l 5
 490 60 l 1
 40 60 l 1
 55 155 l 5
EndSplineSet
EndChar

StartChar: degree
Encoding: 176 176 119
Width: 400
VWidth: 0
Flags: HMW
LayerCount: 2
Fore
SplineSet
241 680 m 0
 235 641 260 610 299 610 c 0
 338 610 375 641 381 680 c 0
 387 719 361 750 322 750 c 0
 283 750 247 719 241 680 c 0
211 680 m 0
 220 735 272 780 327 780 c 0
 382 780 420 735 411 680 c 0
 402 625 349 580 294 580 c 0
 239 580 202 625 211 680 c 0
EndSplineSet
EndChar

StartChar: mu
Encoding: 181 181 120
Width: 635
VWidth: 0
Flags: HMW
LayerCount: 2
Fore
SplineSet
103 200 m 1
 155 520 l 1
 260 520 l 1
 211 220 l 1
 103 200 l 1
560 0 m 1
 455 0 l 1
 540 520 l 1
 645 520 l 1
 560 0 l 1
211 220 m 1
 198 141 219 85 319 85 c 0
 408 85 478 140 494 240 c 1
 529 240 l 1
 506 101 412 -10 273 -10 c 0
 134 -10 82 71 103 200 c 1
 211 220 l 1
116 220 m 1
 216 220 l 5
 148 -198 l 5
 48 -198 l 1
 116 220 l 1
EndSplineSet
EndChar

StartChar: uni00B2
Encoding: 178 178 121
Width: 300
VWidth: 0
Flags: HMW
LayerCount: 2
Fore
SplineSet
90 398 m 1
 100 398 l 1
 93 356 l 1
 83 356 l 1
 90 398 l 1
312 608 m 1
 317 638 296 663 258 663 c 0
 218 663 188 635 164 593 c 1
 125 617 l 1
 155 670 207 710 266 710 c 0
 330 710 373 664 363 604 c 5
 312 608 l 1
93 356 m 1
 101 403 l 1
 341 403 l 1
 333 356 l 1
 93 356 l 1
270 481 m 2
 155 398 l 1
 90 398 l 1
 234 506 l 2
 291 548 305 568 312 608 c 1
 363 604 l 5
 355 554 331 525 270 481 c 2
EndSplineSet
EndChar

StartChar: uni00B3
Encoding: 179 179 122
Width: 300
VWidth: 0
Flags: HMW
LayerCount: 2
Fore
SplineSet
215 552 m 1
 309 552 361 529 349 454 c 0
 338 384 271 350 207 350 c 0
 162 350 117 362 91 404 c 1
 129 436 l 1
 145 408 181 397 215 397 c 0
 257 397 290 414 296 454 c 4
 302 494 275 515 209 515 c 1
 215 552 l 1
144 656 m 1
 173 685 209 710 266 710 c 0
 333 710 369 670 361 620 c 0
 351 560 298 525 211 525 c 1
 217 562 l 1
 277 562 303 586 308 615 c 0
 313 644 298 662 258 662 c 0
 222 662 196 648 172 624 c 1
 144 656 l 1
EndSplineSet
EndChar

StartChar: grave
Encoding: 96 96 123
Width: 320
VWidth: 0
Flags: HMW
AnchorPoint: "dot" 200 590 basechar 0
LayerCount: 2
Fore
SplineSet
276 590 m 1
 179 730 l 1
 299 730 l 5
 356 590 l 5
 276 590 l 1
EndSplineSet
EndChar

StartChar: acute
Encoding: 180 180 124
Width: 320
VWidth: 0
Flags: HMW
AnchorPoint: "dot" 120 590 basechar 0
LayerCount: 2
Fore
SplineSet
236 590 m 1
 156 590 l 5
 259 730 l 5
 379 730 l 1
 236 590 l 1
EndSplineSet
EndChar

StartChar: uni00AD
Encoding: 173 173 125
Width: 470
VWidth: 0
Flags: HMW
LayerCount: 2
Fore
SplineSet
121 345 m 5
 461 345 l 5
 446 250 l 1
 106 250 l 1
 121 345 l 5
EndSplineSet
EndChar

StartChar: logicalnot
Encoding: 172 172 126
Width: 540
VWidth: 0
Flags: HMW
LayerCount: 2
Fore
SplineSet
137 445 m 5
 477 445 l 5
 462 350 l 1
 122 350 l 1
 137 445 l 5
476 435 m 5
 546 435 l 5
 520 275 l 5
 450 275 l 5
 476 435 l 5
EndSplineSet
EndChar

StartChar: macron
Encoding: 175 175 127
Width: 300
VWidth: 0
Flags: HMW
LayerCount: 2
Fore
SplineSet
128 800 m 1
 432 800 l 5
 419 720 l 5
 115 720 l 1
 128 800 l 1
EndSplineSet
EndChar

StartChar: periodcentered
Encoding: 183 183 128
Width: 190
VWidth: 0
Flags: HMW
LayerCount: 2
Fore
SplineSet
91 316 m 4
 98 358 138 392 179 392 c 4
 220 392 248 358 241 316 c 4
 234 274 195 240 154 240 c 4
 113 240 84 274 91 316 c 4
EndSplineSet
EndChar

StartChar: uni00B9
Encoding: 185 185 129
Width: 600
VWidth: 0
Flags: HMW
LayerCount: 2
Fore
SplineSet
433 700 m 1
 431 688 l 1
 381 688 l 1
 383 700 l 1
 433 700 l 1
383 700 m 1
 415 666 l 5
 293 590 l 5
 276 630 l 1
 383 700 l 1
377 695 m 1
 433 700 l 1
 376 350 l 1
 321 350 l 1
 377 695 l 1
EndSplineSet
EndChar

StartChar: paragraph
Encoding: 182 182 130
Width: 600
VWidth: 0
Flags: HMW
LayerCount: 2
Fore
SplineSet
559 700 m 1
 552 656 l 1
 460 656 l 1
 467 700 l 1
 559 700 l 1
639 700 m 1
 525 0 l 1
 445 0 l 1
 559 700 l 1
 639 700 l 1
489 700 m 1
 375 0 l 1
 295 0 l 1
 409 700 l 1
 489 700 l 1
337 260 m 1
 238 260 132 351 153 480 c 0
 174 609 310 700 409 700 c 1
 380 520 366 440 337 260 c 1
EndSplineSet
EndChar

StartChar: cedilla
Encoding: 184 184 131
Width: 320
VWidth: 0
Flags: HMW
AnchorPoint: "ced" 146 -1 basechar 0
LayerCount: 2
Fore
SplineSet
89 30 m 1
 129 30 l 1
 173 -4 241 -44 232 -102 c 0
 223 -159 195 -194 118 -194 c 0
 81 -194 46 -180 27 -165 c 1
 57 -105 l 5
 71 -118 92 -130 112 -130 c 0
 143 -130 158 -121 162 -99 c 0
 168 -64 130 -9 89 30 c 1
EndSplineSet
EndChar

StartChar: guillemotleft
Encoding: 171 171 132
Width: 592
VWidth: 0
Flags: HMW
LayerCount: 2
Fore
SplineSet
96 405 m 1
 347 215 l 1
 332 120 l 1
 80 310 l 5
 96 405 l 1
96 405 m 1
 409 595 l 1
 393 500 l 1
 80 310 l 5
 96 405 l 1
346 405 m 1
 597 215 l 1
 582 120 l 1
 330 310 l 5
 346 405 l 1
346 405 m 1
 659 595 l 1
 643 500 l 1
 330 310 l 5
 346 405 l 1
EndSplineSet
EndChar

StartChar: guillemotright
Encoding: 187 187 133
Width: 592
VWidth: 0
Flags: HMW
LayerCount: 2
Fore
SplineSet
612 310 m 1
 361 500 l 1
 377 595 l 1
 628 405 l 5
 612 310 l 1
612 310 m 1
 300 120 l 1
 315 215 l 1
 628 405 l 5
 612 310 l 1
362 310 m 1
 111 500 l 1
 127 595 l 1
 378 405 l 5
 362 310 l 1
362 310 m 1
 50 120 l 1
 65 215 l 1
 378 405 l 5
 362 310 l 1
EndSplineSet
EndChar

StartChar: Agrave
Encoding: 192 192 134
Width: 800
VWidth: 0
Flags: HMW
LayerCount: 2
Fore
SplineSet
464 700 m 1
 564 700 l 1
 552 690 l 1
 462 690 l 1
 464 700 l 1
238 270 m 1
 630 270 l 1
 615 175 l 5
 223 175 l 5
 238 270 l 1
660 0 m 1
 462 690 l 1
 564 700 l 1
 770 0 l 1
 660 0 l 1
464 700 m 1
 562 690 l 1
 140 0 l 1
 30 0 l 1
 464 700 l 1
473 770 m 1
 376 910 l 1
 496 910 l 5
 553 770 l 5
 473 770 l 1
EndSplineSet
EndChar

StartChar: Aacute
Encoding: 193 193 135
Width: 800
VWidth: 0
Flags: HMW
LayerCount: 2
Fore
SplineSet
464 700 m 1
 564 700 l 1
 552 690 l 1
 462 690 l 1
 464 700 l 1
238 270 m 1
 630 270 l 1
 615 175 l 5
 223 175 l 5
 238 270 l 1
660 0 m 1
 462 690 l 1
 564 700 l 1
 770 0 l 1
 660 0 l 1
464 700 m 1
 562 690 l 1
 140 0 l 1
 30 0 l 1
 464 700 l 1
553 770 m 1
 473 770 l 5
 576 910 l 5
 696 910 l 1
 553 770 l 1
EndSplineSet
EndChar

StartChar: Acircumflex
Encoding: 194 194 136
Width: 800
VWidth: 0
Flags: HMW
LayerCount: 2
Fore
SplineSet
464 700 m 1
 564 700 l 1
 552 690 l 1
 462 690 l 1
 464 700 l 1
238 270 m 1
 630 270 l 1
 615 175 l 5
 223 175 l 5
 238 270 l 1
660 0 m 1
 462 690 l 1
 564 700 l 1
 770 0 l 1
 660 0 l 1
464 700 m 1
 562 690 l 1
 140 0 l 1
 30 0 l 1
 464 700 l 1
578 770 m 1
 494 870 l 1
 584 870 l 1
 668 770 l 1
 578 770 l 1
474 870 m 5
 564 870 l 1
 448 770 l 1
 358 770 l 5
 474 870 l 5
EndSplineSet
EndChar

StartChar: Atilde
Encoding: 195 195 137
Width: 800
VWidth: 0
Flags: HMW
LayerCount: 2
Fore
SplineSet
464 700 m 1
 564 700 l 1
 552 690 l 1
 462 690 l 1
 464 700 l 1
238 270 m 1
 630 270 l 1
 615 175 l 5
 223 175 l 5
 238 270 l 1
660 0 m 1
 462 690 l 1
 564 700 l 1
 770 0 l 1
 660 0 l 1
464 700 m 1
 562 690 l 1
 140 0 l 1
 30 0 l 1
 464 700 l 1
393 770 m 1
 315 790 l 5
 332 868 397 907 448 907 c 0
 512 907 561 863 605 863 c 4
 640 863 660 873 666 910 c 1
 742 890 l 1
 723 802 652 773 602 773 c 0
 540 773 496 817 453 817 c 4
 419 817 399 807 393 770 c 1
EndSplineSet
EndChar

StartChar: Adieresis
Encoding: 196 196 138
Width: 800
VWidth: 0
Flags: HMW
LayerCount: 2
Fore
SplineSet
464 700 m 1
 564 700 l 1
 552 690 l 1
 462 690 l 1
 464 700 l 1
238 270 m 1
 630 270 l 1
 615 175 l 5
 223 175 l 5
 238 270 l 1
660 0 m 1
 462 690 l 1
 564 700 l 1
 770 0 l 1
 660 0 l 1
464 700 m 1
 562 690 l 1
 140 0 l 1
 30 0 l 1
 464 700 l 1
340 846 m 0
 347 888 387 922 428 922 c 0
 469 922 497 888 490 846 c 0
 483 804 444 770 403 770 c 0
 362 770 333 804 340 846 c 0
560 846 m 0
 567 888 607 922 648 922 c 0
 689 922 717 888 710 846 c 0
 703 804 664 770 623 770 c 0
 582 770 553 804 560 846 c 0
EndSplineSet
EndChar

StartChar: Aring
Encoding: 197 197 139
Width: 800
VWidth: 0
Flags: HMW
LayerCount: 2
Fore
SplineSet
464 700 m 1
 564 700 l 1
 552 690 l 1
 462 690 l 1
 464 700 l 1
238 270 m 1
 630 270 l 1
 615 175 l 5
 223 175 l 5
 238 270 l 1
660 0 m 1
 462 690 l 1
 564 700 l 1
 770 0 l 1
 660 0 l 1
464 700 m 1
 562 690 l 1
 140 0 l 1
 30 0 l 1
 464 700 l 1
461 760 m 0
 456 731 474 710 503 710 c 0
 532 710 556 731 561 760 c 0
 566 789 548 810 519 810 c 4
 490 810 466 789 461 760 c 0
411 760 m 0
 420 815 473 860 528 860 c 0
 583 860 620 815 611 760 c 0
 602 705 550 660 495 660 c 0
 440 660 402 705 411 760 c 0
EndSplineSet
EndChar

StartChar: Ccedilla
Encoding: 199 199 140
Width: 732
VWidth: 0
Flags: HM
LayerCount: 2
Fore
SplineSet
227 350 m 0
 203 204 289 90 440 90 c 0
 523 90 606 125 663 181 c 1
 720 113 l 1
 643 38 539 -10 423 -10 c 4
 218 -10 85 151 117 350 c 0
 149 549 336 710 541 710 c 4
 657 710 745 662 798 587 c 1
 719 519 l 1
 680 575 607 610 524 610 c 0
 373 610 251 496 227 350 c 0
405 -3 m 1
 445 -3 l 1
 489 -37 557 -77 548 -135 c 0
 539 -192 511 -227 434 -227 c 0
 397 -227 362 -213 343 -198 c 1
 373 -138 l 5
 387 -151 407 -163 427 -163 c 0
 458 -163 474 -154 478 -132 c 0
 484 -97 446 -42 405 -3 c 1
EndSplineSet
EndChar

StartChar: Egrave
Encoding: 200 200 141
Width: 670
VWidth: 0
Flags: HM
LayerCount: 2
Fore
SplineSet
156 408 m 5
 631 408 l 1
 615 308 l 1
 140 308 l 5
 156 408 l 5
204 700 m 5
 729 700 l 1
 713 600 l 1
 188 600 l 5
 204 700 l 5
106 100 m 5
 631 100 l 1
 615 0 l 1
 90 0 l 5
 106 100 l 5
204 700 m 5
 314 700 l 5
 200 0 l 5
 90 0 l 5
 204 700 l 5
440 770 m 1
 343 910 l 1
 463 910 l 5
 520 770 l 5
 440 770 l 1
EndSplineSet
EndChar

StartChar: Eacute
Encoding: 201 201 142
Width: 670
VWidth: 0
Flags: HM
LayerCount: 2
Fore
SplineSet
156 408 m 5
 631 408 l 1
 615 308 l 1
 140 308 l 5
 156 408 l 5
204 700 m 5
 729 700 l 1
 713 600 l 1
 188 600 l 5
 204 700 l 5
106 100 m 5
 631 100 l 1
 615 0 l 1
 90 0 l 5
 106 100 l 5
204 700 m 5
 314 700 l 5
 200 0 l 5
 90 0 l 5
 204 700 l 5
520 770 m 1
 440 770 l 5
 543 910 l 5
 663 910 l 1
 520 770 l 1
EndSplineSet
EndChar

StartChar: Ecircumflex
Encoding: 202 202 143
Width: 670
VWidth: 0
Flags: HM
LayerCount: 2
Fore
SplineSet
156 408 m 5
 631 408 l 1
 615 308 l 1
 140 308 l 5
 156 408 l 5
204 700 m 5
 729 700 l 1
 713 600 l 1
 188 600 l 5
 204 700 l 5
106 100 m 5
 631 100 l 1
 615 0 l 1
 90 0 l 5
 106 100 l 5
204 700 m 5
 314 700 l 5
 200 0 l 5
 90 0 l 5
 204 700 l 5
545 770 m 1
 462 870 l 1
 552 870 l 1
 635 770 l 1
 545 770 l 1
442 870 m 5
 532 870 l 1
 415 770 l 1
 325 770 l 5
 442 870 l 5
EndSplineSet
EndChar

StartChar: Edieresis
Encoding: 203 203 144
Width: 670
VWidth: 0
Flags: HM
LayerCount: 2
Fore
SplineSet
156 408 m 5
 631 408 l 1
 615 308 l 1
 140 308 l 5
 156 408 l 5
204 700 m 5
 729 700 l 1
 713 600 l 1
 188 600 l 5
 204 700 l 5
106 100 m 5
 631 100 l 1
 615 0 l 1
 90 0 l 5
 106 100 l 5
204 700 m 5
 314 700 l 5
 200 0 l 5
 90 0 l 5
 204 700 l 5
308 846 m 0
 315 888 354 922 395 922 c 0
 436 922 465 888 458 846 c 0
 451 804 411 770 370 770 c 0
 329 770 301 804 308 846 c 0
528 846 m 0
 535 888 574 922 615 922 c 0
 656 922 685 888 678 846 c 0
 671 804 631 770 590 770 c 0
 549 770 521 804 528 846 c 0
EndSplineSet
EndChar

StartChar: Igrave
Encoding: 204 204 145
Width: 300
VWidth: 0
Flags: HMW
LayerCount: 2
Fore
SplineSet
209 700 m 1
 319 700 l 5
 205 0 l 5
 95 0 l 1
 209 700 l 1
223 770 m 1
 126 910 l 1
 246 910 l 5
 303 770 l 5
 223 770 l 1
EndSplineSet
EndChar

StartChar: Iacute
Encoding: 205 205 146
Width: 300
VWidth: 0
Flags: HMW
LayerCount: 2
Fore
SplineSet
209 700 m 1
 319 700 l 5
 205 0 l 5
 95 0 l 1
 209 700 l 1
303 770 m 1
 223 770 l 5
 326 910 l 5
 446 910 l 1
 303 770 l 1
EndSplineSet
EndChar

StartChar: Icircumflex
Encoding: 206 206 147
Width: 300
VWidth: 0
Flags: HMW
LayerCount: 2
Fore
SplineSet
209 700 m 1
 319 700 l 5
 205 0 l 5
 95 0 l 1
 209 700 l 1
328 770 m 1
 244 870 l 1
 334 870 l 1
 418 770 l 1
 328 770 l 1
224 870 m 5
 314 870 l 1
 198 770 l 1
 108 770 l 5
 224 870 l 5
EndSplineSet
EndChar

StartChar: Idieresis
Encoding: 207 207 148
Width: 300
VWidth: 0
Flags: HMW
LayerCount: 2
Fore
SplineSet
209 700 m 1
 319 700 l 5
 205 0 l 5
 95 0 l 1
 209 700 l 1
90 846 m 0
 97 888 137 922 178 922 c 0
 219 922 247 888 240 846 c 0
 233 804 194 770 153 770 c 0
 112 770 83 804 90 846 c 0
310 846 m 0
 317 888 357 922 398 922 c 0
 439 922 467 888 460 846 c 0
 453 804 414 770 373 770 c 0
 332 770 303 804 310 846 c 0
EndSplineSet
EndChar

StartChar: Ntilde
Encoding: 209 209 149
Width: 790
VWidth: 0
Flags: HMW
LayerCount: 2
Fore
SplineSet
700 0 m 1
 600 0 l 1
 604 24 l 1
 702 14 l 1
 700 0 l 1
304 700 m 1
 301 680 l 1
 201 680 l 1
 204 700 l 1
 304 700 l 1
197 660 m 5
 304 700 l 1
 707 40 l 1
 600 0 l 1
 197 660 l 5
704 700 m 1
 814 700 l 1
 700 0 l 1
 593 20 l 1
 704 700 l 1
204 700 m 1
 311 680 l 1
 200 0 l 1
 90 0 l 1
 204 700 l 1
385 770 m 1
 308 790 l 5
 325 868 390 907 441 907 c 0
 505 907 553 863 597 863 c 4
 632 863 652 873 658 910 c 1
 735 890 l 1
 716 802 645 773 595 773 c 0
 533 773 488 817 445 817 c 4
 411 817 391 807 385 770 c 1
EndSplineSet
EndChar

StartChar: Ograve
Encoding: 210 210 150
Width: 850
VWidth: 0
Flags: HM
LayerCount: 2
Fore
SplineSet
227 350 m 4
 203 204 289 90 440 90 c 4
 591 90 713 204 737 350 c 4
 761 496 675 610 524 610 c 4
 373 610 251 496 227 350 c 4
117 350 m 4
 149 549 336 710 541 710 c 4
 746 710 879 549 847 350 c 4
 815 151 628 -10 423 -10 c 4
 218 -10 85 151 117 350 c 4
510 770 m 1
 413 910 l 1
 533 910 l 5
 590 770 l 5
 510 770 l 1
EndSplineSet
EndChar

StartChar: Oacute
Encoding: 211 211 151
Width: 850
VWidth: 0
Flags: HM
LayerCount: 2
Fore
SplineSet
227 350 m 4
 203 204 289 90 440 90 c 4
 591 90 713 204 737 350 c 4
 761 496 675 610 524 610 c 4
 373 610 251 496 227 350 c 4
117 350 m 4
 149 549 336 710 541 710 c 4
 746 710 879 549 847 350 c 4
 815 151 628 -10 423 -10 c 4
 218 -10 85 151 117 350 c 4
590 770 m 1
 510 770 l 5
 613 910 l 5
 733 910 l 1
 590 770 l 1
EndSplineSet
EndChar

StartChar: Ocircumflex
Encoding: 212 212 152
Width: 850
VWidth: 0
Flags: HM
LayerCount: 2
Fore
SplineSet
227 350 m 4
 203 204 289 90 440 90 c 4
 591 90 713 204 737 350 c 4
 761 496 675 610 524 610 c 4
 373 610 251 496 227 350 c 4
117 350 m 4
 149 549 336 710 541 710 c 4
 746 710 879 549 847 350 c 4
 815 151 628 -10 423 -10 c 4
 218 -10 85 151 117 350 c 4
615 770 m 1
 532 870 l 1
 622 870 l 1
 705 770 l 1
 615 770 l 1
512 870 m 5
 602 870 l 1
 485 770 l 1
 395 770 l 5
 512 870 l 5
EndSplineSet
EndChar

StartChar: Otilde
Encoding: 213 213 153
Width: 850
VWidth: 0
Flags: HM
LayerCount: 2
Fore
SplineSet
227 350 m 4
 203 204 289 90 440 90 c 4
 591 90 713 204 737 350 c 4
 761 496 675 610 524 610 c 4
 373 610 251 496 227 350 c 4
117 350 m 4
 149 549 336 710 541 710 c 4
 746 710 879 549 847 350 c 4
 815 151 628 -10 423 -10 c 4
 218 -10 85 151 117 350 c 4
430 770 m 1
 353 790 l 5
 370 868 435 907 486 907 c 0
 550 907 598 863 642 863 c 4
 677 863 697 873 703 910 c 1
 780 890 l 1
 761 802 690 773 640 773 c 0
 578 773 533 817 490 817 c 4
 456 817 436 807 430 770 c 1
EndSplineSet
EndChar

StartChar: Odieresis
Encoding: 214 214 154
Width: 850
VWidth: 0
Flags: HM
LayerCount: 2
Fore
SplineSet
227 350 m 4
 203 204 289 90 440 90 c 4
 591 90 713 204 737 350 c 4
 761 496 675 610 524 610 c 4
 373 610 251 496 227 350 c 4
117 350 m 4
 149 549 336 710 541 710 c 4
 746 710 879 549 847 350 c 4
 815 151 628 -10 423 -10 c 4
 218 -10 85 151 117 350 c 4
378 846 m 0
 385 888 424 922 465 922 c 0
 506 922 535 888 528 846 c 0
 521 804 481 770 440 770 c 0
 399 770 371 804 378 846 c 0
598 846 m 0
 605 888 644 922 685 922 c 0
 726 922 755 888 748 846 c 0
 741 804 701 770 660 770 c 0
 619 770 591 804 598 846 c 0
EndSplineSet
EndChar

StartChar: Ugrave
Encoding: 217 217 155
Width: 760
VWidth: 0
Flags: HMW
LayerCount: 2
Fore
SplineSet
621 280 m 1
 689 700 l 1
 794 700 l 1
 726 280 l 1
 621 280 l 1
126 280 m 1
 194 700 l 1
 299 700 l 1
 231 280 l 1
 126 280 l 1
621 280 m 5
 726 280 l 1
 698 111 547 -10 378 -10 c 4
 209 -10 98 111 126 280 c 1
 231 280 l 5
 213 171 287 85 394 85 c 4
 501 85 603 171 621 280 c 5
455 770 m 1
 358 910 l 1
 478 910 l 5
 535 770 l 5
 455 770 l 1
EndSplineSet
EndChar

StartChar: Uacute
Encoding: 218 218 156
Width: 760
VWidth: 0
Flags: HMW
LayerCount: 2
Fore
SplineSet
621 280 m 1
 689 700 l 1
 794 700 l 1
 726 280 l 1
 621 280 l 1
126 280 m 1
 194 700 l 1
 299 700 l 1
 231 280 l 1
 126 280 l 1
621 280 m 5
 726 280 l 1
 698 111 547 -10 378 -10 c 4
 209 -10 98 111 126 280 c 1
 231 280 l 5
 213 171 287 85 394 85 c 4
 501 85 603 171 621 280 c 5
535 770 m 1
 455 770 l 5
 558 910 l 5
 678 910 l 1
 535 770 l 1
EndSplineSet
EndChar

StartChar: Ucircumflex
Encoding: 219 219 157
Width: 760
VWidth: 0
Flags: HMW
LayerCount: 2
Fore
SplineSet
621 280 m 1
 689 700 l 1
 794 700 l 1
 726 280 l 1
 621 280 l 1
126 280 m 1
 194 700 l 1
 299 700 l 1
 231 280 l 1
 126 280 l 1
621 280 m 5
 726 280 l 1
 698 111 547 -10 378 -10 c 4
 209 -10 98 111 126 280 c 1
 231 280 l 5
 213 171 287 85 394 85 c 4
 501 85 603 171 621 280 c 5
560 770 m 1
 477 870 l 1
 567 870 l 1
 650 770 l 1
 560 770 l 1
457 870 m 5
 547 870 l 1
 430 770 l 1
 340 770 l 5
 457 870 l 5
EndSplineSet
EndChar

StartChar: Udieresis
Encoding: 220 220 158
Width: 760
VWidth: 0
Flags: HMW
LayerCount: 2
Fore
SplineSet
621 280 m 1
 689 700 l 1
 794 700 l 1
 726 280 l 1
 621 280 l 1
126 280 m 1
 194 700 l 1
 299 700 l 1
 231 280 l 1
 126 280 l 1
621 280 m 5
 726 280 l 1
 698 111 547 -10 378 -10 c 4
 209 -10 98 111 126 280 c 1
 231 280 l 5
 213 171 287 85 394 85 c 4
 501 85 603 171 621 280 c 5
323 846 m 0
 330 888 369 922 410 922 c 0
 451 922 480 888 473 846 c 0
 466 804 426 770 385 770 c 0
 344 770 316 804 323 846 c 0
543 846 m 0
 550 888 589 922 630 922 c 0
 671 922 700 888 693 846 c 0
 686 804 646 770 605 770 c 0
 564 770 536 804 543 846 c 0
EndSplineSet
EndChar

StartChar: Yacute
Encoding: 221 221 159
Width: 680
VWidth: 0
Flags: HMW
LayerCount: 2
Fore
SplineSet
333 295 m 1
 443 295 l 1
 395 0 l 1
 285 0 l 1
 333 295 l 1
134 700 m 1
 254 700 l 1
 443 295 l 1
 360 217 l 1
 134 700 l 1
654 700 m 1
 774 700 l 1
 390 217 l 1
 333 295 l 1
 654 700 l 1
493 770 m 1
 413 770 l 5
 516 910 l 5
 636 910 l 1
 493 770 l 1
EndSplineSet
EndChar

StartChar: agrave
Encoding: 224 224 160
Width: 580
VWidth: 0
Flags: HMW
LayerCount: 2
Fore
SplineSet
367 322 m 1
 507 322 l 1
 495 248 l 1
 385 248 l 1
 367 322 l 1
459 330 m 1
 471 405 435 435 354 435 c 1
 375 530 l 1
 518 530 584 454 564 330 c 1
 459 330 l 1
354 435 m 1
 300 435 249 422 193 382 c 1
 148 450 l 1
 213 499 273 530 375 530 c 1
 354 435 l 1
459 330 m 1
 564 330 l 1
 510 0 l 1
 405 0 l 1
 459 330 l 1
168 155 m 1
 159 102 204 75 277 75 c 0
 355 75 421 100 434 180 c 1
 469 180 l 1
 451 71 372 -10 233 -10 c 0
 134 -10 42 41 60 150 c 5
 168 155 l 1
367 322 m 1
 385 248 l 1
 276 248 180 230 168 155 c 1
 60 150 l 5
 84 295 230 322 367 322 c 1
345 590 m 1
 248 730 l 1
 368 730 l 5
 425 590 l 5
 345 590 l 1
EndSplineSet
EndChar

StartChar: aacute
Encoding: 225 225 161
Width: 580
VWidth: 0
Flags: HMW
LayerCount: 2
Fore
SplineSet
367 322 m 1
 507 322 l 1
 495 248 l 1
 385 248 l 1
 367 322 l 1
459 330 m 1
 471 405 435 435 354 435 c 1
 375 530 l 1
 518 530 584 454 564 330 c 1
 459 330 l 1
354 435 m 1
 300 435 249 422 193 382 c 1
 148 450 l 1
 213 499 273 530 375 530 c 1
 354 435 l 1
459 330 m 1
 564 330 l 1
 510 0 l 1
 405 0 l 1
 459 330 l 1
168 155 m 1
 159 102 204 75 277 75 c 0
 355 75 421 100 434 180 c 1
 469 180 l 1
 451 71 372 -10 233 -10 c 0
 134 -10 42 41 60 150 c 5
 168 155 l 1
367 322 m 1
 385 248 l 1
 276 248 180 230 168 155 c 1
 60 150 l 5
 84 295 230 322 367 322 c 1
425 590 m 1
 345 590 l 5
 448 730 l 5
 568 730 l 1
 425 590 l 1
EndSplineSet
EndChar

StartChar: acircumflex
Encoding: 226 226 162
Width: 580
VWidth: 0
Flags: HMW
LayerCount: 2
Fore
SplineSet
367 322 m 1
 507 322 l 1
 495 248 l 1
 385 248 l 1
 367 322 l 1
459 330 m 1
 471 405 435 435 354 435 c 1
 375 530 l 1
 518 530 584 454 564 330 c 1
 459 330 l 1
354 435 m 1
 300 435 249 422 193 382 c 1
 148 450 l 1
 213 499 273 530 375 530 c 1
 354 435 l 1
459 330 m 1
 564 330 l 1
 510 0 l 1
 405 0 l 1
 459 330 l 1
168 155 m 1
 159 102 204 75 277 75 c 0
 355 75 421 100 434 180 c 1
 469 180 l 1
 451 71 372 -10 233 -10 c 0
 134 -10 42 41 60 150 c 5
 168 155 l 1
367 322 m 1
 385 248 l 1
 276 248 180 230 168 155 c 1
 60 150 l 5
 84 295 230 322 367 322 c 1
450 590 m 1
 366 690 l 1
 456 690 l 1
 540 590 l 1
 450 590 l 1
346 690 m 5
 436 690 l 1
 320 590 l 1
 230 590 l 5
 346 690 l 5
EndSplineSet
EndChar

StartChar: atilde
Encoding: 227 227 163
Width: 580
VWidth: 0
Flags: HMW
LayerCount: 2
Fore
SplineSet
367 322 m 1
 507 322 l 1
 495 248 l 1
 385 248 l 1
 367 322 l 1
459 330 m 1
 471 405 435 435 354 435 c 1
 375 530 l 1
 518 530 584 454 564 330 c 1
 459 330 l 1
354 435 m 1
 300 435 249 422 193 382 c 1
 148 450 l 1
 213 499 273 530 375 530 c 1
 354 435 l 1
459 330 m 1
 564 330 l 1
 510 0 l 1
 405 0 l 1
 459 330 l 1
168 155 m 1
 159 102 204 75 277 75 c 0
 355 75 421 100 434 180 c 1
 469 180 l 1
 451 71 372 -10 233 -10 c 0
 134 -10 42 41 60 150 c 5
 168 155 l 1
367 322 m 1
 385 248 l 1
 276 248 180 230 168 155 c 1
 60 150 l 5
 84 295 230 322 367 322 c 1
265 590 m 1
 187 610 l 5
 204 688 270 727 321 727 c 0
 385 727 433 683 477 683 c 4
 512 683 532 693 538 730 c 1
 615 710 l 1
 596 622 524 593 474 593 c 0
 412 593 368 637 325 637 c 4
 291 637 271 627 265 590 c 1
EndSplineSet
EndChar

StartChar: adieresis
Encoding: 228 228 164
Width: 580
VWidth: 0
Flags: HMW
LayerCount: 2
Fore
SplineSet
367 322 m 1
 507 322 l 1
 495 248 l 1
 385 248 l 1
 367 322 l 1
459 330 m 1
 471 405 435 435 354 435 c 1
 375 530 l 1
 518 530 584 454 564 330 c 1
 459 330 l 1
354 435 m 1
 300 435 249 422 193 382 c 1
 148 450 l 1
 213 499 273 530 375 530 c 1
 354 435 l 1
459 330 m 1
 564 330 l 1
 510 0 l 1
 405 0 l 1
 459 330 l 1
168 155 m 1
 159 102 204 75 277 75 c 0
 355 75 421 100 434 180 c 1
 469 180 l 1
 451 71 372 -10 233 -10 c 0
 134 -10 42 41 60 150 c 5
 168 155 l 1
367 322 m 1
 385 248 l 1
 276 248 180 230 168 155 c 1
 60 150 l 5
 84 295 230 322 367 322 c 1
212 666 m 0
 219 708 259 742 300 742 c 0
 341 742 369 708 362 666 c 0
 355 624 316 590 275 590 c 0
 234 590 205 624 212 666 c 0
432 666 m 0
 439 708 479 742 520 742 c 0
 561 742 589 708 582 666 c 0
 575 624 536 590 495 590 c 0
 454 590 425 624 432 666 c 0
EndSplineSet
EndChar

StartChar: aring
Encoding: 229 229 165
Width: 580
VWidth: 0
Flags: HMW
LayerCount: 2
Fore
SplineSet
367 322 m 1
 507 322 l 1
 495 248 l 1
 385 248 l 1
 367 322 l 1
459 330 m 1
 471 405 435 435 354 435 c 1
 375 530 l 1
 518 530 584 454 564 330 c 1
 459 330 l 1
354 435 m 1
 300 435 249 422 193 382 c 1
 148 450 l 1
 213 499 273 530 375 530 c 1
 354 435 l 1
459 330 m 1
 564 330 l 1
 510 0 l 1
 405 0 l 1
 459 330 l 1
168 155 m 1
 159 102 204 75 277 75 c 0
 355 75 421 100 434 180 c 1
 469 180 l 1
 451 71 372 -10 233 -10 c 0
 134 -10 42 41 60 150 c 5
 168 155 l 1
367 322 m 1
 385 248 l 1
 276 248 180 230 168 155 c 1
 60 150 l 5
 84 295 230 322 367 322 c 1
351 690 m 0
 346 661 364 640 393 640 c 0
 422 640 446 661 451 690 c 0
 456 719 439 740 410 740 c 4
 381 740 356 719 351 690 c 0
301 690 m 0
 310 745 363 790 418 790 c 0
 473 790 510 745 501 690 c 0
 492 635 440 590 385 590 c 0
 330 590 292 635 301 690 c 0
EndSplineSet
EndChar

StartChar: ccedilla
Encoding: 231 231 166
Width: 573
VWidth: 0
Flags: HM
LayerCount: 2
Fore
SplineSet
192 260 m 0
 176 161 232 85 339 85 c 0
 398 85 461 114 500 158 c 5
 553 92 l 1
 496 28 420 -10 323 -10 c 0
 164 -10 63 111 87 260 c 0
 111 409 252 530 411 530 c 0
 508 530 570 491 607 428 c 1
 533 361 l 1
 508 405 455 435 396 435 c 0
 289 435 208 359 192 260 c 0
305 -3 m 1
 345 -3 l 1
 389 -37 457 -77 448 -135 c 0
 439 -192 411 -227 334 -227 c 0
 297 -227 262 -213 243 -198 c 1
 273 -138 l 5
 287 -151 307 -163 327 -163 c 0
 358 -163 374 -154 378 -132 c 0
 384 -97 346 -42 305 -3 c 1
EndSplineSet
EndChar

StartChar: egrave
Encoding: 232 232 167
Width: 615
VWidth: 0
Flags: HMW
LayerCount: 2
Fore
SplineSet
612 260 m 5
 607 230 l 5
 502 230 l 5
 507 260 l 5
 612 260 l 5
502 230 m 5
 166 230 l 1
 179 307 l 1
 515 307 l 5
 502 230 l 5
507 260 m 5
 525 369 478 435 381 435 c 0
 284 435 215 369 197 260 c 1
 92 260 l 1
 118 419 247 530 396 530 c 4
 545 530 638 419 612 260 c 5
 507 260 l 5
92 260 m 1
 197 260 l 1
 179 151 237 85 334 85 c 0
 398 85 459 108 504 157 c 5
 558 92 l 5
 501 28 415 -10 318 -10 c 4
 159 -10 66 101 92 260 c 1
361 590 m 1
 264 730 l 1
 384 730 l 5
 441 590 l 5
 361 590 l 1
EndSplineSet
EndChar

StartChar: eacute
Encoding: 233 233 168
Width: 615
VWidth: 0
Flags: HMW
LayerCount: 2
Fore
SplineSet
612 260 m 5
 607 230 l 5
 502 230 l 5
 507 260 l 5
 612 260 l 5
502 230 m 5
 166 230 l 1
 179 307 l 1
 515 307 l 5
 502 230 l 5
507 260 m 5
 525 369 478 435 381 435 c 0
 284 435 215 369 197 260 c 1
 92 260 l 1
 118 419 247 530 396 530 c 4
 545 530 638 419 612 260 c 5
 507 260 l 5
92 260 m 1
 197 260 l 1
 179 151 237 85 334 85 c 0
 398 85 459 108 504 157 c 5
 558 92 l 5
 501 28 415 -10 318 -10 c 4
 159 -10 66 101 92 260 c 1
441 590 m 1
 361 590 l 5
 464 730 l 5
 584 730 l 1
 441 590 l 1
EndSplineSet
EndChar

StartChar: ecircumflex
Encoding: 234 234 169
Width: 615
VWidth: 0
Flags: HMW
LayerCount: 2
Fore
SplineSet
612 260 m 5
 607 230 l 5
 502 230 l 5
 507 260 l 5
 612 260 l 5
502 230 m 5
 166 230 l 1
 179 307 l 1
 515 307 l 5
 502 230 l 5
507 260 m 5
 525 369 478 435 381 435 c 0
 284 435 215 369 197 260 c 1
 92 260 l 1
 118 419 247 530 396 530 c 4
 545 530 638 419 612 260 c 5
 507 260 l 5
92 260 m 1
 197 260 l 1
 179 151 237 85 334 85 c 0
 398 85 459 108 504 157 c 5
 558 92 l 5
 501 28 415 -10 318 -10 c 4
 159 -10 66 101 92 260 c 1
466 590 m 1
 382 690 l 1
 472 690 l 1
 556 590 l 1
 466 590 l 1
362 690 m 5
 452 690 l 1
 336 590 l 1
 246 590 l 5
 362 690 l 5
EndSplineSet
EndChar

StartChar: edieresis
Encoding: 235 235 170
Width: 615
VWidth: 0
Flags: HMW
LayerCount: 2
Fore
SplineSet
612 260 m 5
 607 230 l 5
 502 230 l 5
 507 260 l 5
 612 260 l 5
502 230 m 5
 166 230 l 1
 179 307 l 1
 515 307 l 5
 502 230 l 5
507 260 m 5
 525 369 478 435 381 435 c 0
 284 435 215 369 197 260 c 1
 92 260 l 1
 118 419 247 530 396 530 c 4
 545 530 638 419 612 260 c 5
 507 260 l 5
92 260 m 1
 197 260 l 1
 179 151 237 85 334 85 c 0
 398 85 459 108 504 157 c 5
 558 92 l 5
 501 28 415 -10 318 -10 c 4
 159 -10 66 101 92 260 c 1
228 666 m 0
 235 708 275 742 316 742 c 0
 357 742 385 708 378 666 c 0
 371 624 332 590 291 590 c 0
 250 590 221 624 228 666 c 0
448 666 m 0
 455 708 495 742 536 742 c 0
 577 742 605 708 598 666 c 0
 591 624 552 590 511 590 c 0
 470 590 441 624 448 666 c 0
EndSplineSet
EndChar

StartChar: igrave
Encoding: 236 236 171
Width: 270
VWidth: 0
Flags: HMW
LayerCount: 2
Fore
SplineSet
170 520 m 1
 270 520 l 1
 185 0 l 1
 85 0 l 1
 170 520 l 1
181 590 m 1
 84 730 l 1
 204 730 l 5
 261 590 l 5
 181 590 l 1
EndSplineSet
EndChar

StartChar: iacute
Encoding: 237 237 172
Width: 270
VWidth: 0
Flags: HMW
LayerCount: 2
Fore
SplineSet
170 520 m 1
 270 520 l 1
 185 0 l 1
 85 0 l 1
 170 520 l 1
261 590 m 1
 181 590 l 5
 284 730 l 5
 404 730 l 1
 261 590 l 1
EndSplineSet
EndChar

StartChar: icircumflex
Encoding: 238 238 173
Width: 270
VWidth: 0
Flags: HMW
LayerCount: 2
Fore
SplineSet
170 520 m 1
 270 520 l 1
 185 0 l 1
 85 0 l 1
 170 520 l 1
286 590 m 1
 202 690 l 1
 292 690 l 1
 376 590 l 1
 286 590 l 1
182 690 m 5
 272 690 l 1
 156 590 l 1
 66 590 l 5
 182 690 l 5
EndSplineSet
EndChar

StartChar: idieresis
Encoding: 239 239 174
Width: 270
VWidth: 0
Flags: HMW
LayerCount: 2
Fore
SplineSet
170 520 m 1
 270 520 l 1
 185 0 l 1
 85 0 l 1
 170 520 l 1
48 666 m 0
 55 708 95 742 136 742 c 0
 177 742 205 708 198 666 c 0
 191 624 152 590 111 590 c 0
 70 590 41 624 48 666 c 0
268 666 m 0
 275 708 315 742 356 742 c 0
 397 742 425 708 418 666 c 0
 411 624 372 590 331 590 c 0
 290 590 261 624 268 666 c 0
EndSplineSet
EndChar

StartChar: ntilde
Encoding: 241 241 175
Width: 635
VWidth: 0
Flags: HMW
LayerCount: 2
Fore
SplineSet
617 320 m 5
 565 0 l 5
 460 0 l 5
 509 300 l 5
 617 320 l 5
160 520 m 5
 265 520 l 5
 180 0 l 5
 75 0 l 5
 160 520 l 5
509 300 m 5
 522 379 501 435 401 435 c 4
 312 435 242 380 226 280 c 5
 191 280 l 5
 214 419 307 530 446 530 c 4
 585 530 638 449 617 320 c 5
 509 300 l 5
294 590 m 1
 216 610 l 5
 233 688 298 727 349 727 c 0
 413 727 461 683 505 683 c 4
 540 683 560 693 566 730 c 1
 643 710 l 1
 624 622 553 593 503 593 c 0
 441 593 396 637 353 637 c 4
 319 637 300 627 294 590 c 1
EndSplineSet
EndChar

StartChar: ograve
Encoding: 242 242 176
Width: 650
VWidth: 0
Flags: HM
LayerCount: 2
Fore
SplineSet
197 260 m 0
 181 161 232 85 339 85 c 0
 446 85 521 161 537 260 c 0
 553 359 503 435 396 435 c 0
 289 435 213 359 197 260 c 0
92 260 m 0
 116 409 252 530 411 530 c 0
 570 530 666 409 642 260 c 0
 618 111 482 -10 323 -10 c 0
 164 -10 68 111 92 260 c 0
381 590 m 1
 284 730 l 1
 404 730 l 5
 461 590 l 5
 381 590 l 1
EndSplineSet
EndChar

StartChar: oacute
Encoding: 243 243 177
Width: 650
VWidth: 0
Flags: HM
LayerCount: 2
Fore
SplineSet
197 260 m 0
 181 161 232 85 339 85 c 0
 446 85 521 161 537 260 c 0
 553 359 503 435 396 435 c 0
 289 435 213 359 197 260 c 0
92 260 m 0
 116 409 252 530 411 530 c 0
 570 530 666 409 642 260 c 0
 618 111 482 -10 323 -10 c 0
 164 -10 68 111 92 260 c 0
461 590 m 1
 381 590 l 5
 484 730 l 5
 604 730 l 1
 461 590 l 1
EndSplineSet
EndChar

StartChar: ocircumflex
Encoding: 244 244 178
Width: 650
VWidth: 0
Flags: HM
LayerCount: 2
Fore
SplineSet
197 260 m 0
 181 161 232 85 339 85 c 0
 446 85 521 161 537 260 c 0
 553 359 503 435 396 435 c 0
 289 435 213 359 197 260 c 0
92 260 m 0
 116 409 252 530 411 530 c 0
 570 530 666 409 642 260 c 0
 618 111 482 -10 323 -10 c 0
 164 -10 68 111 92 260 c 0
486 590 m 1
 402 690 l 1
 492 690 l 1
 576 590 l 1
 486 590 l 1
382 690 m 5
 472 690 l 1
 356 590 l 1
 266 590 l 5
 382 690 l 5
EndSplineSet
EndChar

StartChar: otilde
Encoding: 245 245 179
Width: 650
VWidth: 0
Flags: HM
LayerCount: 2
Fore
SplineSet
197 260 m 0
 181 161 232 85 339 85 c 0
 446 85 521 161 537 260 c 0
 553 359 503 435 396 435 c 0
 289 435 213 359 197 260 c 0
92 260 m 0
 116 409 252 530 411 530 c 0
 570 530 666 409 642 260 c 0
 618 111 482 -10 323 -10 c 0
 164 -10 68 111 92 260 c 0
301 590 m 1
 223 610 l 5
 240 688 306 727 357 727 c 0
 421 727 469 683 513 683 c 4
 548 683 568 693 574 730 c 1
 651 710 l 1
 632 622 560 593 510 593 c 0
 448 593 404 637 361 637 c 4
 327 637 307 627 301 590 c 1
EndSplineSet
EndChar

StartChar: odieresis
Encoding: 246 246 180
Width: 650
VWidth: 0
Flags: HM
LayerCount: 2
Fore
SplineSet
197 260 m 0
 181 161 232 85 339 85 c 0
 446 85 521 161 537 260 c 0
 553 359 503 435 396 435 c 0
 289 435 213 359 197 260 c 0
92 260 m 0
 116 409 252 530 411 530 c 0
 570 530 666 409 642 260 c 0
 618 111 482 -10 323 -10 c 0
 164 -10 68 111 92 260 c 0
248 666 m 0
 255 708 295 742 336 742 c 0
 377 742 405 708 398 666 c 0
 391 624 352 590 311 590 c 0
 270 590 241 624 248 666 c 0
468 666 m 0
 475 708 515 742 556 742 c 0
 597 742 625 708 618 666 c 0
 611 624 572 590 531 590 c 0
 490 590 461 624 468 666 c 0
EndSplineSet
EndChar

StartChar: ugrave
Encoding: 249 249 181
Width: 635
VWidth: 0
Flags: HMW
LayerCount: 2
Fore
SplineSet
103 200 m 1
 155 520 l 1
 260 520 l 1
 211 220 l 1
 103 200 l 1
560 0 m 1
 455 0 l 1
 540 520 l 1
 645 520 l 1
 560 0 l 1
211 220 m 1
 198 141 219 85 319 85 c 0
 408 85 478 140 494 240 c 1
 529 240 l 1
 506 101 412 -10 273 -10 c 0
 134 -10 82 71 103 200 c 1
 211 220 l 1
369 590 m 1
 271 730 l 1
 391 730 l 5
 449 590 l 5
 369 590 l 1
EndSplineSet
EndChar

StartChar: uacute
Encoding: 250 250 182
Width: 635
VWidth: 0
Flags: HMW
LayerCount: 2
Fore
SplineSet
103 200 m 1
 155 520 l 1
 260 520 l 1
 211 220 l 1
 103 200 l 1
560 0 m 1
 455 0 l 1
 540 520 l 1
 645 520 l 1
 560 0 l 1
211 220 m 1
 198 141 219 85 319 85 c 0
 408 85 478 140 494 240 c 1
 529 240 l 1
 506 101 412 -10 273 -10 c 0
 134 -10 82 71 103 200 c 1
 211 220 l 1
449 590 m 1
 369 590 l 5
 471 730 l 5
 591 730 l 1
 449 590 l 1
EndSplineSet
EndChar

StartChar: ucircumflex
Encoding: 251 251 183
Width: 635
VWidth: 0
Flags: HMW
LayerCount: 2
Fore
SplineSet
103 200 m 1
 155 520 l 1
 260 520 l 1
 211 220 l 1
 103 200 l 1
560 0 m 1
 455 0 l 1
 540 520 l 1
 645 520 l 1
 560 0 l 1
211 220 m 1
 198 141 219 85 319 85 c 0
 408 85 478 140 494 240 c 1
 529 240 l 1
 506 101 412 -10 273 -10 c 0
 134 -10 82 71 103 200 c 1
 211 220 l 1
474 590 m 1
 390 690 l 1
 480 690 l 1
 564 590 l 1
 474 590 l 1
370 690 m 5
 460 690 l 1
 344 590 l 1
 254 590 l 5
 370 690 l 5
EndSplineSet
EndChar

StartChar: udieresis
Encoding: 252 252 184
Width: 635
VWidth: 0
Flags: HMW
LayerCount: 2
Fore
SplineSet
103 200 m 1
 155 520 l 1
 260 520 l 1
 211 220 l 1
 103 200 l 1
560 0 m 1
 455 0 l 1
 540 520 l 1
 645 520 l 1
 560 0 l 1
211 220 m 1
 198 141 219 85 319 85 c 0
 408 85 478 140 494 240 c 1
 529 240 l 1
 506 101 412 -10 273 -10 c 0
 134 -10 82 71 103 200 c 1
 211 220 l 1
236 666 m 0
 243 708 282 742 323 742 c 0
 364 742 393 708 386 666 c 0
 379 624 340 590 299 590 c 0
 258 590 229 624 236 666 c 0
456 666 m 0
 463 708 502 742 543 742 c 0
 584 742 613 708 606 666 c 0
 599 624 560 590 519 590 c 0
 478 590 449 624 456 666 c 0
EndSplineSet
EndChar

StartChar: yacute
Encoding: 253 253 185
Width: 579
VWidth: 0
Flags: HMW
LayerCount: 2
Fore
SplineSet
114 520 m 5
 224 520 l 5
 365 5 l 5
 259 0 l 5
 114 520 l 5
144 -115 m 5
 135 -210 l 5
 78 -210 32 -184 11 -150 c 5
 74 -77 l 5
 88 -96 110 -115 144 -115 c 5
224 -60 m 6
 534 520 l 5
 639 520 l 5
 329 -60 l 6
 287 -140 224 -210 135 -210 c 5
 144 -115 l 5
 172 -115 203 -100 224 -60 c 6
420 590 m 1
 340 590 l 5
 443 730 l 5
 563 730 l 1
 420 590 l 1
EndSplineSet
EndChar

StartChar: ydieresis
Encoding: 255 255 186
Width: 579
VWidth: 0
Flags: HMW
LayerCount: 2
Fore
SplineSet
114 520 m 5
 224 520 l 5
 365 5 l 5
 259 0 l 5
 114 520 l 5
144 -115 m 5
 135 -210 l 5
 78 -210 32 -184 11 -150 c 5
 74 -77 l 5
 88 -96 110 -115 144 -115 c 5
224 -60 m 6
 534 520 l 5
 639 520 l 5
 329 -60 l 6
 287 -140 224 -210 135 -210 c 5
 144 -115 l 5
 172 -115 203 -100 224 -60 c 6
207 666 m 0
 214 708 254 742 295 742 c 0
 336 742 364 708 357 666 c 0
 350 624 311 590 270 590 c 0
 229 590 200 624 207 666 c 0
427 666 m 0
 434 708 474 742 515 742 c 0
 556 742 584 708 577 666 c 0
 570 624 531 590 490 590 c 0
 449 590 420 624 427 666 c 0
EndSplineSet
EndChar

StartChar: Amacron
Encoding: 256 256 187
Width: 800
VWidth: 0
Flags: HMW
LayerCount: 2
Fore
SplineSet
464 700 m 1
 564 700 l 1
 552 690 l 1
 462 690 l 1
 464 700 l 1
238 270 m 1
 630 270 l 1
 615 175 l 5
 223 175 l 5
 238 270 l 1
660 0 m 1
 462 690 l 1
 564 700 l 1
 770 0 l 1
 660 0 l 1
464 700 m 1
 562 690 l 1
 140 0 l 1
 30 0 l 1
 464 700 l 1
374 850 m 1
 678 850 l 5
 665 770 l 5
 361 770 l 1
 374 850 l 1
EndSplineSet
EndChar

StartChar: amacron
Encoding: 257 257 188
Width: 580
VWidth: 0
Flags: HMW
LayerCount: 2
Fore
SplineSet
367 322 m 1
 507 322 l 1
 495 248 l 1
 385 248 l 1
 367 322 l 1
459 330 m 1
 471 405 435 435 354 435 c 1
 375 530 l 1
 518 530 584 454 564 330 c 1
 459 330 l 1
354 435 m 1
 300 435 249 422 193 382 c 1
 148 450 l 1
 213 499 273 530 375 530 c 1
 354 435 l 1
459 330 m 1
 564 330 l 1
 510 0 l 1
 405 0 l 1
 459 330 l 1
168 155 m 1
 159 102 204 75 277 75 c 0
 355 75 421 100 434 180 c 1
 469 180 l 1
 451 71 372 -10 233 -10 c 0
 134 -10 42 41 60 150 c 5
 168 155 l 1
367 322 m 1
 385 248 l 1
 276 248 180 230 168 155 c 1
 60 150 l 5
 84 295 230 322 367 322 c 1
246 670 m 1
 550 670 l 5
 537 590 l 5
 233 590 l 1
 246 670 l 1
EndSplineSet
EndChar

StartChar: Abreve
Encoding: 258 258 189
Width: 800
VWidth: 0
Flags: HMW
LayerCount: 2
Fore
SplineSet
464 700 m 1
 564 700 l 1
 552 690 l 1
 462 690 l 1
 464 700 l 1
238 270 m 1
 630 270 l 1
 615 175 l 5
 223 175 l 5
 238 270 l 1
660 0 m 1
 462 690 l 1
 564 700 l 1
 770 0 l 1
 660 0 l 1
464 700 m 1
 562 690 l 1
 140 0 l 1
 30 0 l 1
 464 700 l 1
528 860 m 1
 478 860 446 884 454 932 c 5
 358 926 l 5
 342 827 402 760 511 760 c 1
 528 860 l 1
528 860 m 1
 511 760 l 1
 620 760 702 827 718 926 c 5
 624 932 l 5
 616 884 578 860 528 860 c 1
EndSplineSet
EndChar

StartChar: abreve
Encoding: 259 259 190
Width: 580
VWidth: 0
Flags: HMW
LayerCount: 2
Fore
SplineSet
367 322 m 1
 507 322 l 1
 495 248 l 1
 385 248 l 1
 367 322 l 1
459 330 m 1
 471 405 435 435 354 435 c 1
 375 530 l 1
 518 530 584 454 564 330 c 1
 459 330 l 1
354 435 m 1
 300 435 249 422 193 382 c 1
 148 450 l 1
 213 499 273 530 375 530 c 1
 354 435 l 1
459 330 m 1
 564 330 l 1
 510 0 l 1
 405 0 l 1
 459 330 l 1
168 155 m 1
 159 102 204 75 277 75 c 0
 355 75 421 100 434 180 c 1
 469 180 l 1
 451 71 372 -10 233 -10 c 0
 134 -10 42 41 60 150 c 5
 168 155 l 1
367 322 m 1
 385 248 l 1
 276 248 180 230 168 155 c 1
 60 150 l 5
 84 295 230 322 367 322 c 1
400 680 m 1
 350 680 318 704 326 752 c 5
 230 746 l 5
 214 647 274 580 383 580 c 1
 400 680 l 1
400 680 m 1
 383 580 l 1
 492 580 574 647 590 746 c 5
 496 752 l 5
 488 704 450 680 400 680 c 1
EndSplineSet
EndChar

StartChar: Cacute
Encoding: 262 262 191
Width: 732
VWidth: 0
Flags: HM
LayerCount: 2
Fore
SplineSet
227 350 m 0
 203 204 289 90 440 90 c 0
 523 90 606 125 663 181 c 1
 720 113 l 1
 643 38 539 -10 423 -10 c 4
 218 -10 85 151 117 350 c 0
 149 549 336 710 541 710 c 4
 657 710 745 662 798 587 c 1
 719 519 l 1
 680 575 607 610 524 610 c 0
 373 610 251 496 227 350 c 0
590 770 m 1
 510 770 l 5
 613 910 l 5
 733 910 l 1
 590 770 l 1
EndSplineSet
EndChar

StartChar: cacute
Encoding: 263 263 192
Width: 573
VWidth: 0
Flags: HM
LayerCount: 2
Fore
SplineSet
192 260 m 0
 176 161 232 85 339 85 c 0
 398 85 461 114 500 158 c 5
 553 92 l 1
 496 28 420 -10 323 -10 c 0
 164 -10 63 111 87 260 c 0
 111 409 252 530 411 530 c 0
 508 530 570 491 607 428 c 1
 533 361 l 1
 508 405 455 435 396 435 c 0
 289 435 208 359 192 260 c 0
461 590 m 1
 381 590 l 5
 484 730 l 5
 604 730 l 1
 461 590 l 1
EndSplineSet
EndChar

StartChar: Ccircumflex
Encoding: 264 264 193
Width: 732
VWidth: 0
Flags: HM
LayerCount: 2
Fore
SplineSet
227 350 m 0
 203 204 289 90 440 90 c 0
 523 90 606 125 663 181 c 1
 720 113 l 1
 643 38 539 -10 423 -10 c 4
 218 -10 85 151 117 350 c 0
 149 549 336 710 541 710 c 4
 657 710 745 662 798 587 c 1
 719 519 l 1
 680 575 607 610 524 610 c 0
 373 610 251 496 227 350 c 0
615 770 m 1
 532 870 l 1
 622 870 l 1
 705 770 l 1
 615 770 l 1
512 870 m 5
 602 870 l 1
 485 770 l 1
 395 770 l 5
 512 870 l 5
EndSplineSet
EndChar

StartChar: ccircumflex
Encoding: 265 265 194
Width: 573
VWidth: 0
Flags: HM
LayerCount: 2
Fore
SplineSet
192 260 m 0
 176 161 232 85 339 85 c 0
 398 85 461 114 500 158 c 5
 553 92 l 1
 496 28 420 -10 323 -10 c 0
 164 -10 63 111 87 260 c 0
 111 409 252 530 411 530 c 0
 508 530 570 491 607 428 c 1
 533 361 l 1
 508 405 455 435 396 435 c 0
 289 435 208 359 192 260 c 0
486 590 m 1
 402 690 l 1
 492 690 l 1
 576 590 l 1
 486 590 l 1
382 690 m 5
 472 690 l 1
 356 590 l 1
 266 590 l 5
 382 690 l 5
EndSplineSet
EndChar

StartChar: Cdotaccent
Encoding: 266 266 195
Width: 732
VWidth: 0
Flags: HM
LayerCount: 2
Fore
SplineSet
227 350 m 0
 203 204 289 90 440 90 c 0
 523 90 606 125 663 181 c 1
 720 113 l 1
 643 38 539 -10 423 -10 c 4
 218 -10 85 151 117 350 c 0
 149 549 336 710 541 710 c 4
 657 710 745 662 798 587 c 1
 719 519 l 1
 680 575 607 610 524 610 c 0
 373 610 251 496 227 350 c 0
488 846 m 0
 495 888 534 922 575 922 c 0
 616 922 645 888 638 846 c 0
 631 804 591 770 550 770 c 0
 509 770 481 804 488 846 c 0
EndSplineSet
EndChar

StartChar: cdotaccent
Encoding: 267 267 196
Width: 573
VWidth: 0
Flags: HM
LayerCount: 2
Fore
SplineSet
192 260 m 0
 176 161 232 85 339 85 c 0
 398 85 461 114 500 158 c 5
 553 92 l 1
 496 28 420 -10 323 -10 c 0
 164 -10 63 111 87 260 c 0
 111 409 252 530 411 530 c 0
 508 530 570 491 607 428 c 1
 533 361 l 1
 508 405 455 435 396 435 c 0
 289 435 208 359 192 260 c 0
358 666 m 0
 365 708 405 742 446 742 c 0
 487 742 515 708 508 666 c 0
 501 624 462 590 421 590 c 0
 380 590 351 624 358 666 c 0
EndSplineSet
EndChar

StartChar: Ccaron
Encoding: 268 268 197
Width: 732
VWidth: 0
Flags: HM
LayerCount: 2
Fore
SplineSet
227 350 m 0
 203 204 289 90 440 90 c 0
 523 90 606 125 663 181 c 1
 720 113 l 1
 643 38 539 -10 423 -10 c 4
 218 -10 85 151 117 350 c 0
 149 549 336 710 541 710 c 4
 657 710 745 662 798 587 c 1
 719 519 l 1
 680 575 607 610 524 610 c 0
 373 610 251 496 227 350 c 0
502 870 m 1
 585 770 l 1
 495 770 l 5
 412 870 l 5
 502 870 l 1
605 770 m 1
 515 770 l 1
 632 870 l 1
 722 870 l 1
 605 770 l 1
EndSplineSet
EndChar

StartChar: ccaron
Encoding: 269 269 198
Width: 573
VWidth: 0
Flags: HM
LayerCount: 2
Fore
SplineSet
192 260 m 0
 176 161 232 85 339 85 c 0
 398 85 461 114 500 158 c 5
 553 92 l 1
 496 28 420 -10 323 -10 c 0
 164 -10 63 111 87 260 c 0
 111 409 252 530 411 530 c 0
 508 530 570 491 607 428 c 1
 533 361 l 1
 508 405 455 435 396 435 c 0
 289 435 208 359 192 260 c 0
372 690 m 1
 456 590 l 1
 366 590 l 5
 282 690 l 5
 372 690 l 1
476 590 m 1
 386 590 l 1
 502 690 l 1
 592 690 l 1
 476 590 l 1
EndSplineSet
EndChar

StartChar: Dcaron
Encoding: 270 270 199
Width: 810
VWidth: 0
Flags: HMW
LayerCount: 2
Fore
SplineSet
204 700 m 1
 494 700 l 1
 478 600 l 1
 188 600 l 1
 204 700 l 1
106 100 m 1
 396 100 l 1
 380 0 l 1
 90 0 l 1
 106 100 l 1
204 700 m 1
 314 700 l 1
 200 0 l 1
 90 0 l 1
 204 700 l 1
396 100 m 5
 547 100 673 204 697 350 c 4
 721 496 629 600 478 600 c 5
 494 700 l 5
 699 700 839 549 807 350 c 4
 775 151 585 0 380 0 c 5
 396 100 l 5
474 870 m 1
 558 770 l 1
 468 770 l 5
 384 870 l 5
 474 870 l 1
578 770 m 1
 488 770 l 1
 604 870 l 1
 694 870 l 1
 578 770 l 1
EndSplineSet
EndChar

StartChar: dcaron
Encoding: 271 271 200
Width: 655
VWidth: 0
Flags: HMW
LayerCount: 2
Fore
SplineSet
517 260 m 4
 535 369 478 435 381 435 c 4
 284 435 210 369 192 260 c 4
 174 151 227 85 324 85 c 4
 421 85 499 151 517 260 c 4
552 260 m 4
 528 111 447 -10 288 -10 c 4
 159 -10 61 101 87 260 c 4
 113 419 247 530 376 530 c 4
 545 530 576 409 552 260 c 4
699 730 m 5
 580 0 l 5
 475 0 l 5
 594 730 l 5
 699 730 l 5
805 676 m 0
 812 718 851 752 892 752 c 0
 943 752 967 718 960 676 c 0
 958 662 943 640 932 627 c 2
 813 480 l 1
 743 480 l 1
 839 612 l 5
 817 619 801 649 805 676 c 0
EndSplineSet
EndChar

StartChar: Emacron
Encoding: 274 274 201
Width: 670
VWidth: 0
Flags: HM
LayerCount: 2
Fore
SplineSet
156 408 m 5
 631 408 l 1
 615 308 l 1
 140 308 l 5
 156 408 l 5
204 700 m 5
 729 700 l 1
 713 600 l 1
 188 600 l 5
 204 700 l 5
106 100 m 5
 631 100 l 1
 615 0 l 1
 90 0 l 5
 106 100 l 5
204 700 m 5
 314 700 l 5
 200 0 l 5
 90 0 l 5
 204 700 l 5
341 850 m 1
 645 850 l 5
 632 770 l 5
 328 770 l 1
 341 850 l 1
EndSplineSet
EndChar

StartChar: emacron
Encoding: 275 275 202
Width: 615
VWidth: 0
Flags: HMW
LayerCount: 2
Fore
SplineSet
612 260 m 5
 607 230 l 5
 502 230 l 5
 507 260 l 5
 612 260 l 5
502 230 m 5
 166 230 l 1
 179 307 l 1
 515 307 l 5
 502 230 l 5
507 260 m 5
 525 369 478 435 381 435 c 0
 284 435 215 369 197 260 c 1
 92 260 l 1
 118 419 247 530 396 530 c 4
 545 530 638 419 612 260 c 5
 507 260 l 5
92 260 m 1
 197 260 l 1
 179 151 237 85 334 85 c 0
 398 85 459 108 504 157 c 5
 558 92 l 5
 501 28 415 -10 318 -10 c 4
 159 -10 66 101 92 260 c 1
262 670 m 1
 566 670 l 5
 553 590 l 5
 249 590 l 1
 262 670 l 1
EndSplineSet
EndChar

StartChar: Ebreve
Encoding: 276 276 203
Width: 670
VWidth: 0
Flags: HM
LayerCount: 2
Fore
SplineSet
156 408 m 5
 631 408 l 1
 615 308 l 1
 140 308 l 5
 156 408 l 5
204 700 m 5
 729 700 l 1
 713 600 l 1
 188 600 l 5
 204 700 l 5
106 100 m 5
 631 100 l 1
 615 0 l 1
 90 0 l 5
 106 100 l 5
204 700 m 5
 314 700 l 5
 200 0 l 5
 90 0 l 5
 204 700 l 5
495 860 m 1
 445 860 414 884 422 932 c 5
 326 926 l 5
 310 827 370 760 479 760 c 1
 495 860 l 1
495 860 m 1
 479 760 l 1
 588 760 670 827 686 926 c 5
 592 932 l 5
 584 884 545 860 495 860 c 1
EndSplineSet
EndChar

StartChar: ebreve
Encoding: 277 277 204
Width: 615
VWidth: 0
Flags: HMW
LayerCount: 2
Fore
SplineSet
612 260 m 5
 607 230 l 5
 502 230 l 5
 507 260 l 5
 612 260 l 5
502 230 m 5
 166 230 l 1
 179 307 l 1
 515 307 l 5
 502 230 l 5
507 260 m 5
 525 369 478 435 381 435 c 0
 284 435 215 369 197 260 c 1
 92 260 l 1
 118 419 247 530 396 530 c 4
 545 530 638 419 612 260 c 5
 507 260 l 5
92 260 m 1
 197 260 l 1
 179 151 237 85 334 85 c 0
 398 85 459 108 504 157 c 5
 558 92 l 5
 501 28 415 -10 318 -10 c 4
 159 -10 66 101 92 260 c 1
416 680 m 1
 366 680 334 704 342 752 c 5
 246 746 l 5
 230 647 290 580 399 580 c 1
 416 680 l 1
416 680 m 1
 399 580 l 1
 508 580 590 647 606 746 c 5
 512 752 l 5
 504 704 466 680 416 680 c 1
EndSplineSet
EndChar

StartChar: Edotaccent
Encoding: 278 278 205
Width: 670
VWidth: 0
Flags: HM
LayerCount: 2
Fore
SplineSet
156 408 m 5
 631 408 l 1
 615 308 l 1
 140 308 l 5
 156 408 l 5
204 700 m 5
 729 700 l 1
 713 600 l 1
 188 600 l 5
 204 700 l 5
106 100 m 5
 631 100 l 1
 615 0 l 1
 90 0 l 5
 106 100 l 5
204 700 m 5
 314 700 l 5
 200 0 l 5
 90 0 l 5
 204 700 l 5
418 846 m 0
 425 888 464 922 505 922 c 0
 546 922 575 888 568 846 c 0
 561 804 521 770 480 770 c 0
 439 770 411 804 418 846 c 0
EndSplineSet
EndChar

StartChar: edotaccent
Encoding: 279 279 206
Width: 615
VWidth: 0
Flags: HMW
LayerCount: 2
Fore
SplineSet
612 260 m 5
 607 230 l 5
 502 230 l 5
 507 260 l 5
 612 260 l 5
502 230 m 5
 166 230 l 1
 179 307 l 1
 515 307 l 5
 502 230 l 5
507 260 m 5
 525 369 478 435 381 435 c 0
 284 435 215 369 197 260 c 1
 92 260 l 1
 118 419 247 530 396 530 c 4
 545 530 638 419 612 260 c 5
 507 260 l 5
92 260 m 1
 197 260 l 1
 179 151 237 85 334 85 c 0
 398 85 459 108 504 157 c 5
 558 92 l 5
 501 28 415 -10 318 -10 c 4
 159 -10 66 101 92 260 c 1
338 666 m 0
 345 708 385 742 426 742 c 0
 467 742 495 708 488 666 c 0
 481 624 442 590 401 590 c 0
 360 590 331 624 338 666 c 0
EndSplineSet
EndChar

StartChar: Ecaron
Encoding: 282 282 207
Width: 670
VWidth: 0
Flags: HM
LayerCount: 2
Fore
SplineSet
156 408 m 5
 631 408 l 1
 615 308 l 1
 140 308 l 5
 156 408 l 5
204 700 m 5
 729 700 l 1
 713 600 l 1
 188 600 l 5
 204 700 l 5
106 100 m 5
 631 100 l 1
 615 0 l 1
 90 0 l 5
 106 100 l 5
204 700 m 5
 314 700 l 5
 200 0 l 5
 90 0 l 5
 204 700 l 5
432 870 m 1
 515 770 l 1
 425 770 l 5
 342 870 l 5
 432 870 l 1
535 770 m 1
 445 770 l 1
 562 870 l 1
 652 870 l 1
 535 770 l 1
EndSplineSet
EndChar

StartChar: ecaron
Encoding: 283 283 208
Width: 615
VWidth: 0
Flags: HMW
LayerCount: 2
Fore
SplineSet
612 260 m 5
 607 230 l 5
 502 230 l 5
 507 260 l 5
 612 260 l 5
502 230 m 5
 166 230 l 1
 179 307 l 1
 515 307 l 5
 502 230 l 5
507 260 m 5
 525 369 478 435 381 435 c 0
 284 435 215 369 197 260 c 1
 92 260 l 1
 118 419 247 530 396 530 c 4
 545 530 638 419 612 260 c 5
 507 260 l 5
92 260 m 1
 197 260 l 1
 179 151 237 85 334 85 c 0
 398 85 459 108 504 157 c 5
 558 92 l 5
 501 28 415 -10 318 -10 c 4
 159 -10 66 101 92 260 c 1
352 690 m 1
 436 590 l 1
 346 590 l 5
 262 690 l 5
 352 690 l 1
456 590 m 1
 366 590 l 1
 482 690 l 1
 572 690 l 1
 456 590 l 1
EndSplineSet
EndChar

StartChar: Gcircumflex
Encoding: 284 284 209
Width: 782
VWidth: 0
Flags: HMW
LayerCount: 2
Fore
SplineSet
772 370 m 5
 756 270 l 5
 479 270 l 5
 495 370 l 5
 772 370 l 5
730 113 m 5
 620 113 l 5
 662 370 l 5
 772 370 l 5
 730 113 l 5
227 350 m 0
 203 204 289 90 440 90 c 4
 523 90 610 120 673 181 c 5
 730 113 l 5
 653 38 539 -10 423 -10 c 4
 218 -10 85 151 117 350 c 0
 149 549 336 710 541 710 c 4
 657 710 735 662 788 587 c 1
 709 519 l 1
 670 575 607 610 524 610 c 4
 373 610 251 496 227 350 c 0
615 770 m 1
 532 870 l 1
 622 870 l 1
 705 770 l 1
 615 770 l 1
512 870 m 5
 602 870 l 1
 485 770 l 1
 395 770 l 5
 512 870 l 5
EndSplineSet
EndChar

StartChar: gcircumflex
Encoding: 285 285 210
Width: 655
VWidth: 0
Flags: HMW
LayerCount: 2
Fore
SplineSet
517 260 m 0
 535 369 478 435 381 435 c 0
 284 435 210 369 192 260 c 0
 174 151 227 85 324 85 c 0
 421 85 499 151 517 260 c 0
552 260 m 0
 528 111 447 -10 288 -10 c 0
 159 -10 61 101 87 260 c 0
 113 419 247 530 376 530 c 0
 545 530 576 409 552 260 c 0
303 -125 m 1
 287 -220 l 5
 140 -220 66 -172 29 -108 c 5
 106 -42 l 5
 134 -91 200 -125 303 -125 c 1
583 20 m 1
 478 20 l 1
 560 520 l 1
 665 520 l 1
 583 20 l 1
478 20 m 1
 583 20 l 1
 560 -119 426 -220 287 -220 c 5
 303 -125 l 1
 380 -125 462 -79 478 20 c 1
461 590 m 1
 377 690 l 1
 467 690 l 1
 551 590 l 1
 461 590 l 1
357 690 m 5
 447 690 l 1
 331 590 l 1
 241 590 l 5
 357 690 l 5
EndSplineSet
EndChar

StartChar: Gbreve
Encoding: 286 286 211
Width: 782
VWidth: 0
Flags: HMW
LayerCount: 2
Fore
SplineSet
772 370 m 5
 756 270 l 5
 479 270 l 5
 495 370 l 5
 772 370 l 5
730 113 m 5
 620 113 l 5
 662 370 l 5
 772 370 l 5
 730 113 l 5
227 350 m 0
 203 204 289 90 440 90 c 4
 523 90 610 120 673 181 c 5
 730 113 l 5
 653 38 539 -10 423 -10 c 4
 218 -10 85 151 117 350 c 0
 149 549 336 710 541 710 c 4
 657 710 735 662 788 587 c 1
 709 519 l 1
 670 575 607 610 524 610 c 4
 373 610 251 496 227 350 c 0
565 860 m 1
 515 860 484 884 492 932 c 5
 396 926 l 5
 380 827 440 760 549 760 c 1
 565 860 l 1
565 860 m 1
 549 760 l 1
 658 760 740 827 756 926 c 5
 662 932 l 5
 654 884 615 860 565 860 c 1
EndSplineSet
EndChar

StartChar: gbreve
Encoding: 287 287 212
Width: 655
VWidth: 0
Flags: HMW
LayerCount: 2
Fore
SplineSet
517 260 m 0
 535 369 478 435 381 435 c 0
 284 435 210 369 192 260 c 0
 174 151 227 85 324 85 c 0
 421 85 499 151 517 260 c 0
552 260 m 0
 528 111 447 -10 288 -10 c 0
 159 -10 61 101 87 260 c 0
 113 419 247 530 376 530 c 0
 545 530 576 409 552 260 c 0
303 -125 m 1
 287 -220 l 5
 140 -220 66 -172 29 -108 c 5
 106 -42 l 5
 134 -91 200 -125 303 -125 c 1
583 20 m 1
 478 20 l 1
 560 520 l 1
 665 520 l 1
 583 20 l 1
478 20 m 1
 583 20 l 1
 560 -119 426 -220 287 -220 c 5
 303 -125 l 1
 380 -125 462 -79 478 20 c 1
411 680 m 1
 361 680 329 704 337 752 c 5
 241 746 l 5
 225 647 285 580 394 580 c 1
 411 680 l 1
411 680 m 1
 394 580 l 1
 503 580 585 647 601 746 c 5
 507 752 l 5
 499 704 461 680 411 680 c 1
EndSplineSet
EndChar

StartChar: Gdotaccent
Encoding: 288 288 213
Width: 782
VWidth: 0
Flags: HMW
LayerCount: 2
Fore
SplineSet
772 370 m 5
 756 270 l 5
 479 270 l 5
 495 370 l 5
 772 370 l 5
730 113 m 5
 620 113 l 5
 662 370 l 5
 772 370 l 5
 730 113 l 5
227 350 m 0
 203 204 289 90 440 90 c 4
 523 90 610 120 673 181 c 5
 730 113 l 5
 653 38 539 -10 423 -10 c 4
 218 -10 85 151 117 350 c 0
 149 549 336 710 541 710 c 4
 657 710 735 662 788 587 c 1
 709 519 l 1
 670 575 607 610 524 610 c 4
 373 610 251 496 227 350 c 0
488 846 m 0
 495 888 534 922 575 922 c 0
 616 922 645 888 638 846 c 0
 631 804 591 770 550 770 c 0
 509 770 481 804 488 846 c 0
EndSplineSet
EndChar

StartChar: gdotaccent
Encoding: 289 289 214
Width: 655
VWidth: 0
Flags: HMW
LayerCount: 2
Fore
SplineSet
517 260 m 0
 535 369 478 435 381 435 c 0
 284 435 210 369 192 260 c 0
 174 151 227 85 324 85 c 0
 421 85 499 151 517 260 c 0
552 260 m 0
 528 111 447 -10 288 -10 c 0
 159 -10 61 101 87 260 c 0
 113 419 247 530 376 530 c 0
 545 530 576 409 552 260 c 0
303 -125 m 1
 287 -220 l 5
 140 -220 66 -172 29 -108 c 5
 106 -42 l 5
 134 -91 200 -125 303 -125 c 1
583 20 m 1
 478 20 l 1
 560 520 l 1
 665 520 l 1
 583 20 l 1
478 20 m 1
 583 20 l 1
 560 -119 426 -220 287 -220 c 5
 303 -125 l 1
 380 -125 462 -79 478 20 c 1
333 666 m 0
 340 708 380 742 421 742 c 0
 462 742 490 708 483 666 c 0
 476 624 437 590 396 590 c 0
 355 590 326 624 333 666 c 0
EndSplineSet
EndChar

StartChar: uni0122
Encoding: 290 290 215
Width: 782
VWidth: 0
Flags: HMW
LayerCount: 2
Fore
SplineSet
772 370 m 5
 756 270 l 5
 479 270 l 5
 495 370 l 5
 772 370 l 5
730 113 m 5
 620 113 l 5
 662 370 l 5
 772 370 l 5
 730 113 l 5
227 350 m 0
 203 204 289 90 440 90 c 4
 523 90 610 120 673 181 c 5
 730 113 l 5
 653 38 539 -10 423 -10 c 4
 218 -10 85 151 117 350 c 0
 149 549 336 710 541 710 c 4
 657 710 735 662 788 587 c 1
 709 519 l 1
 670 575 607 610 524 610 c 4
 373 610 251 496 227 350 c 0
368 -124 m 0
 375 -82 414 -48 455 -48 c 0
 506 -48 530 -82 523 -124 c 0
 521 -138 506 -160 495 -173 c 2
 376 -320 l 1
 306 -320 l 1
 401 -188 l 5
 379 -181 364 -151 368 -124 c 0
EndSplineSet
EndChar

StartChar: Hcircumflex
Encoding: 292 292 216
Width: 765
VWidth: 0
Flags: HMW
LayerCount: 2
Fore
SplineSet
679 700 m 5
 789 700 l 5
 675 0 l 5
 565 0 l 5
 679 700 l 5
156 408 m 1
 686 408 l 5
 670 308 l 5
 140 308 l 1
 156 408 l 1
204 700 m 1
 314 700 l 1
 200 0 l 1
 90 0 l 1
 204 700 l 1
570 770 m 1
 487 870 l 1
 577 870 l 1
 660 770 l 1
 570 770 l 1
467 870 m 5
 557 870 l 1
 440 770 l 1
 350 770 l 5
 467 870 l 5
EndSplineSet
EndChar

StartChar: hcircumflex
Encoding: 293 293 217
Width: 635
VWidth: 0
Flags: HMW
LayerCount: 2
Fore
SplineSet
617 320 m 5
 565 0 l 5
 460 0 l 5
 509 300 l 5
 617 320 l 5
194 730 m 5
 299 730 l 5
 180 0 l 5
 75 0 l 5
 194 730 l 5
509 300 m 5
 522 379 501 435 401 435 c 4
 312 435 242 380 226 280 c 5
 191 280 l 5
 214 419 307 530 446 530 c 4
 585 530 638 449 617 320 c 5
 509 300 l 5
511 790 m 1
 427 890 l 1
 517 890 l 1
 601 790 l 1
 511 790 l 1
407 890 m 5
 497 890 l 1
 381 790 l 1
 291 790 l 5
 407 890 l 5
EndSplineSet
EndChar

StartChar: Itilde
Encoding: 296 296 218
Width: 300
VWidth: 0
Flags: HMW
LayerCount: 2
Fore
SplineSet
209 700 m 1
 319 700 l 5
 205 0 l 5
 95 0 l 1
 209 700 l 1
143 770 m 1
 65 790 l 5
 82 868 147 907 198 907 c 0
 262 907 311 863 355 863 c 4
 390 863 410 873 416 910 c 1
 492 890 l 1
 473 802 402 773 352 773 c 0
 290 773 246 817 203 817 c 4
 169 817 149 807 143 770 c 1
EndSplineSet
EndChar

StartChar: itilde
Encoding: 297 297 219
Width: 270
VWidth: 0
Flags: HMW
LayerCount: 2
Fore
SplineSet
170 520 m 1
 270 520 l 1
 185 0 l 1
 85 0 l 1
 170 520 l 1
101 590 m 1
 23 610 l 5
 40 688 106 727 157 727 c 0
 221 727 269 683 313 683 c 4
 348 683 368 693 374 730 c 1
 451 710 l 1
 432 622 360 593 310 593 c 0
 248 593 204 637 161 637 c 4
 127 637 107 627 101 590 c 1
EndSplineSet
EndChar

StartChar: Imacron
Encoding: 298 298 220
Width: 300
VWidth: 0
Flags: HMW
LayerCount: 2
Fore
SplineSet
209 700 m 1
 319 700 l 5
 205 0 l 5
 95 0 l 1
 209 700 l 1
124 850 m 1
 428 850 l 5
 415 770 l 5
 111 770 l 1
 124 850 l 1
EndSplineSet
EndChar

StartChar: imacron
Encoding: 299 299 221
Width: 270
VWidth: 0
Flags: HMW
LayerCount: 2
Fore
SplineSet
170 520 m 1
 270 520 l 1
 185 0 l 1
 85 0 l 1
 170 520 l 1
82 670 m 1
 386 670 l 5
 373 590 l 5
 69 590 l 1
 82 670 l 1
EndSplineSet
EndChar

StartChar: Ibreve
Encoding: 300 300 222
Width: 300
VWidth: 0
Flags: HMW
LayerCount: 2
Fore
SplineSet
209 700 m 1
 319 700 l 5
 205 0 l 5
 95 0 l 1
 209 700 l 1
278 860 m 1
 228 860 196 884 204 932 c 5
 108 926 l 5
 92 827 152 760 261 760 c 1
 278 860 l 1
278 860 m 1
 261 760 l 1
 370 760 452 827 468 926 c 5
 374 932 l 5
 366 884 328 860 278 860 c 1
EndSplineSet
EndChar

StartChar: ibreve
Encoding: 301 301 223
Width: 270
VWidth: 0
Flags: HMW
LayerCount: 2
Fore
SplineSet
170 520 m 1
 270 520 l 1
 185 0 l 1
 85 0 l 1
 170 520 l 1
236 680 m 1
 186 680 154 704 162 752 c 5
 66 746 l 5
 50 647 110 580 219 580 c 1
 236 680 l 1
236 680 m 1
 219 580 l 1
 328 580 410 647 426 746 c 5
 332 752 l 5
 324 704 286 680 236 680 c 1
EndSplineSet
EndChar

StartChar: Idotaccent
Encoding: 304 304 224
Width: 300
VWidth: 0
Flags: HMW
LayerCount: 2
Fore
SplineSet
209 700 m 1
 319 700 l 5
 205 0 l 5
 95 0 l 1
 209 700 l 1
200 846 m 0
 207 888 247 922 288 922 c 0
 329 922 357 888 350 846 c 0
 343 804 304 770 263 770 c 0
 222 770 193 804 200 846 c 0
EndSplineSet
EndChar

StartChar: dotlessi
Encoding: 305 305 225
Width: 270
VWidth: 0
Flags: HMW
AnchorPoint: "ced" 135 0 basechar 0
LayerCount: 2
Fore
SplineSet
170 520 m 1
 270 520 l 1
 185 0 l 1
 85 0 l 1
 170 520 l 1
EndSplineSet
EndChar

StartChar: Jcircumflex
Encoding: 308 308 226
Width: 599
VWidth: 0
Flags: HMW
LayerCount: 2
Fore
SplineSet
476 260 m 1
 548 700 l 1
 653 700 l 1
 581 260 l 1
 476 260 l 1
476 260 m 1
 581 260 l 1
 552 81 432 -10 273 -10 c 4
 155 -10 79 41 46 157 c 1
 136 208 l 1
 157 125 220 85 289 85 c 4
 376 85 457 141 476 260 c 1
634 770 m 1
 551 870 l 1
 641 870 l 1
 724 770 l 1
 634 770 l 1
531 870 m 5
 621 870 l 1
 504 770 l 1
 414 770 l 5
 531 870 l 5
EndSplineSet
EndChar

StartChar: jcircumflex
Encoding: 309 309 227
Width: 270
VWidth: 0
Flags: HMW
LayerCount: 2
Fore
SplineSet
174 520 m 1
 274 520 l 1
 179 -60 l 1
 79 -60 l 1
 174 520 l 1
19 -115 m 5
 10 -210 l 1
 -47 -210 -95 -194 -116 -160 c 1
 -65 -81 l 5
 -51 -100 -24 -115 19 -115 c 5
79 -60 m 1
 179 -60 l 1
 166 -139 99 -210 10 -210 c 1
 19 -115 l 5
 56 -115 72 -100 79 -60 c 1
290 590 m 1
 206 690 l 1
 296 690 l 1
 380 590 l 1
 290 590 l 1
186 690 m 5
 276 690 l 1
 160 590 l 1
 70 590 l 5
 186 690 l 5
EndSplineSet
EndChar

StartChar: uni0136
Encoding: 310 310 228
Width: 745
VWidth: 0
Flags: HMW
LayerCount: 2
Fore
SplineSet
343 413 m 1
 467 413 l 1
 730 0 l 1
 606 0 l 1
 343 413 l 1
669 700 m 1
 794 700 l 1
 234 207 l 1
 132 230 l 1
 669 700 l 1
204 700 m 1
 314 700 l 1
 200 0 l 1
 90 0 l 1
 204 700 l 1
342 -114 m 0
 349 -72 388 -38 429 -38 c 0
 480 -38 504 -72 497 -114 c 0
 495 -128 480 -150 469 -163 c 2
 350 -310 l 1
 280 -310 l 1
 376 -178 l 5
 354 -171 338 -141 342 -114 c 0
EndSplineSet
EndChar

StartChar: uni0137
Encoding: 311 311 229
Width: 615
VWidth: 0
Flags: HMW
LayerCount: 2
Fore
SplineSet
282 291 m 1
 391 311 l 1
 600 0 l 1
 482 0 l 1
 282 291 l 1
539 520 m 1
 665 520 l 1
 198 110 l 1
 125 154 l 1
 539 520 l 1
194 730 m 1
 299 730 l 1
 180 0 l 1
 75 0 l 1
 194 730 l 1
249 -114 m 0
 256 -72 296 -38 337 -38 c 0
 388 -38 411 -72 404 -114 c 0
 402 -128 387 -150 376 -163 c 2
 258 -310 l 1
 188 -310 l 1
 283 -178 l 5
 261 -171 245 -141 249 -114 c 0
EndSplineSet
EndChar

StartChar: Lacute
Encoding: 313 313 230
Width: 655
VWidth: 0
Flags: HM
LayerCount: 2
Fore
SplineSet
106 100 m 1
 636 100 l 5
 620 0 l 5
 90 0 l 1
 106 100 l 1
204 700 m 1
 314 700 l 1
 200 0 l 1
 90 0 l 1
 204 700 l 1
307 770 m 1
 227 770 l 5
 330 910 l 5
 450 910 l 1
 307 770 l 1
EndSplineSet
EndChar

StartChar: lacute
Encoding: 314 314 231
Width: 265
VWidth: 0
Flags: HMW
LayerCount: 2
Fore
SplineSet
199 730 m 1
 304 730 l 1
 185 0 l 1
 80 0 l 1
 199 730 l 1
289 790 m 1
 209 790 l 5
 311 930 l 5
 431 930 l 1
 289 790 l 1
EndSplineSet
EndChar

StartChar: uni013B
Encoding: 315 315 232
Width: 655
VWidth: 0
Flags: HM
LayerCount: 2
Fore
SplineSet
106 100 m 1
 636 100 l 5
 620 0 l 5
 90 0 l 1
 106 100 l 1
204 700 m 1
 314 700 l 1
 200 0 l 1
 90 0 l 1
 204 700 l 1
299 -114 m 0
 306 -72 346 -38 387 -38 c 0
 438 -38 461 -72 454 -114 c 0
 452 -128 437 -150 426 -163 c 2
 308 -310 l 1
 238 -310 l 1
 333 -178 l 5
 311 -171 295 -141 299 -114 c 0
EndSplineSet
EndChar

StartChar: uni013C
Encoding: 316 316 233
Width: 265
VWidth: 0
Flags: HMW
LayerCount: 2
Fore
SplineSet
199 730 m 1
 304 730 l 1
 185 0 l 1
 80 0 l 1
 199 730 l 1
64 -114 m 0
 71 -72 111 -38 152 -38 c 0
 203 -38 226 -72 219 -114 c 0
 217 -128 202 -150 191 -163 c 2
 73 -310 l 1
 3 -310 l 1
 98 -178 l 5
 76 -171 60 -141 64 -114 c 0
EndSplineSet
EndChar

StartChar: Lcaron
Encoding: 317 317 234
Width: 655
VWidth: 0
Flags: HMW
LayerCount: 2
Fore
SplineSet
106 100 m 1
 636 100 l 5
 620 0 l 5
 90 0 l 1
 106 100 l 1
204 700 m 1
 314 700 l 1
 200 0 l 1
 90 0 l 1
 204 700 l 1
487 656 m 0
 494 698 533 732 574 732 c 0
 625 732 649 698 642 656 c 0
 640 642 625 620 614 607 c 2
 495 460 l 1
 425 460 l 1
 520 592 l 5
 498 599 483 629 487 656 c 0
EndSplineSet
EndChar

StartChar: lcaron
Encoding: 318 318 235
Width: 265
VWidth: 0
Flags: HMW
LayerCount: 2
Fore
SplineSet
199 730 m 1
 304 730 l 1
 185 0 l 1
 80 0 l 1
 199 730 l 1
360 676 m 0
 367 718 406 752 447 752 c 0
 498 752 522 718 515 676 c 0
 513 662 498 640 487 627 c 2
 368 480 l 1
 298 480 l 1
 394 612 l 5
 372 619 356 649 360 676 c 0
EndSplineSet
EndChar

StartChar: Ldot
Encoding: 319 319 236
Width: 655
VWidth: 0
Flags: HM
LayerCount: 2
Fore
SplineSet
106 100 m 1
 636 100 l 5
 620 0 l 5
 90 0 l 1
 106 100 l 1
204 700 m 1
 314 700 l 1
 200 0 l 1
 90 0 l 1
 204 700 l 1
360 366 m 4
 367 408 406 442 447 442 c 4
 488 442 517 408 510 366 c 4
 503 324 463 290 422 290 c 4
 381 290 353 324 360 366 c 4
EndSplineSet
EndChar

StartChar: ldot
Encoding: 320 320 237
Width: 450
VWidth: 0
Flags: HM
LayerCount: 2
Fore
SplineSet
199 730 m 1
 304 730 l 1
 185 0 l 1
 80 0 l 1
 199 730 l 1
351 316 m 4
 358 358 398 392 439 392 c 4
 480 392 508 358 501 316 c 4
 494 274 455 240 414 240 c 4
 373 240 344 274 351 316 c 4
EndSplineSet
EndChar

StartChar: Nacute
Encoding: 323 323 238
Width: 790
VWidth: 0
Flags: HMW
LayerCount: 2
Fore
SplineSet
700 0 m 1
 600 0 l 1
 604 24 l 1
 702 14 l 1
 700 0 l 1
304 700 m 1
 301 680 l 1
 201 680 l 1
 204 700 l 1
 304 700 l 1
197 660 m 5
 304 700 l 1
 707 40 l 1
 600 0 l 1
 197 660 l 5
704 700 m 1
 814 700 l 1
 700 0 l 1
 593 20 l 1
 704 700 l 1
204 700 m 1
 311 680 l 1
 200 0 l 1
 90 0 l 1
 204 700 l 1
545 770 m 1
 465 770 l 5
 568 910 l 5
 688 910 l 1
 545 770 l 1
EndSplineSet
EndChar

StartChar: nacute
Encoding: 324 324 239
Width: 635
VWidth: 0
Flags: HMW
LayerCount: 2
Fore
SplineSet
617 320 m 5
 565 0 l 5
 460 0 l 5
 509 300 l 5
 617 320 l 5
160 520 m 5
 265 520 l 5
 180 0 l 5
 75 0 l 5
 160 520 l 5
509 300 m 5
 522 379 501 435 401 435 c 4
 312 435 242 380 226 280 c 5
 191 280 l 5
 214 419 307 530 446 530 c 4
 585 530 638 449 617 320 c 5
 509 300 l 5
454 590 m 1
 374 590 l 5
 476 730 l 5
 596 730 l 1
 454 590 l 1
EndSplineSet
EndChar

StartChar: uni0145
Encoding: 325 325 240
Width: 790
VWidth: 0
Flags: HMW
LayerCount: 2
Fore
SplineSet
700 0 m 1
 600 0 l 1
 604 24 l 1
 702 14 l 1
 700 0 l 1
304 700 m 1
 301 680 l 1
 201 680 l 1
 204 700 l 1
 304 700 l 1
197 660 m 5
 304 700 l 1
 707 40 l 1
 600 0 l 1
 197 660 l 5
704 700 m 1
 814 700 l 1
 700 0 l 1
 593 20 l 1
 704 700 l 1
204 700 m 1
 311 680 l 1
 200 0 l 1
 90 0 l 1
 204 700 l 1
324 -114 m 0
 331 -72 371 -38 412 -38 c 0
 463 -38 486 -72 479 -114 c 0
 477 -128 462 -150 451 -163 c 2
 333 -310 l 1
 263 -310 l 1
 358 -178 l 5
 336 -171 320 -141 324 -114 c 0
EndSplineSet
EndChar

StartChar: uni0146
Encoding: 326 326 241
Width: 635
VWidth: 0
Flags: HMW
LayerCount: 2
Fore
SplineSet
617 320 m 5
 565 0 l 5
 460 0 l 5
 509 300 l 5
 617 320 l 5
160 520 m 5
 265 520 l 5
 180 0 l 5
 75 0 l 5
 160 520 l 5
509 300 m 5
 522 379 501 435 401 435 c 4
 312 435 242 380 226 280 c 5
 191 280 l 5
 214 419 307 530 446 530 c 4
 585 530 638 449 617 320 c 5
 509 300 l 5
262 -114 m 0
 269 -72 308 -38 349 -38 c 0
 400 -38 424 -72 417 -114 c 0
 415 -128 400 -150 389 -163 c 2
 270 -310 l 1
 200 -310 l 1
 296 -178 l 5
 274 -171 258 -141 262 -114 c 0
EndSplineSet
EndChar

StartChar: Ncaron
Encoding: 327 327 242
Width: 790
VWidth: 0
Flags: HMW
LayerCount: 2
Fore
SplineSet
700 0 m 1
 600 0 l 1
 604 24 l 1
 702 14 l 1
 700 0 l 1
304 700 m 1
 301 680 l 1
 201 680 l 1
 204 700 l 1
 304 700 l 1
197 660 m 5
 304 700 l 1
 707 40 l 1
 600 0 l 1
 197 660 l 5
704 700 m 1
 814 700 l 1
 700 0 l 1
 593 20 l 1
 704 700 l 1
204 700 m 1
 311 680 l 1
 200 0 l 1
 90 0 l 1
 204 700 l 1
457 870 m 1
 540 770 l 1
 450 770 l 5
 367 870 l 5
 457 870 l 1
560 770 m 1
 470 770 l 1
 587 870 l 1
 677 870 l 1
 560 770 l 1
EndSplineSet
EndChar

StartChar: ncaron
Encoding: 328 328 243
Width: 635
VWidth: 0
Flags: HMW
LayerCount: 2
Fore
SplineSet
617 320 m 5
 565 0 l 5
 460 0 l 5
 509 300 l 5
 617 320 l 5
160 520 m 5
 265 520 l 5
 180 0 l 5
 75 0 l 5
 160 520 l 5
509 300 m 5
 522 379 501 435 401 435 c 4
 312 435 242 380 226 280 c 5
 191 280 l 5
 214 419 307 530 446 530 c 4
 585 530 638 449 617 320 c 5
 509 300 l 5
365 690 m 1
 449 590 l 1
 359 590 l 5
 275 690 l 5
 365 690 l 1
469 590 m 1
 379 590 l 1
 495 690 l 1
 585 690 l 1
 469 590 l 1
EndSplineSet
EndChar

StartChar: Omacron
Encoding: 332 332 244
Width: 850
VWidth: 0
Flags: HM
LayerCount: 2
Fore
SplineSet
227 350 m 4
 203 204 289 90 440 90 c 4
 591 90 713 204 737 350 c 4
 761 496 675 610 524 610 c 4
 373 610 251 496 227 350 c 4
117 350 m 4
 149 549 336 710 541 710 c 4
 746 710 879 549 847 350 c 4
 815 151 628 -10 423 -10 c 4
 218 -10 85 151 117 350 c 4
411 850 m 1
 715 850 l 5
 702 770 l 5
 398 770 l 1
 411 850 l 1
EndSplineSet
EndChar

StartChar: omacron
Encoding: 333 333 245
Width: 650
VWidth: 0
Flags: HM
LayerCount: 2
Fore
SplineSet
197 260 m 0
 181 161 232 85 339 85 c 0
 446 85 521 161 537 260 c 0
 553 359 503 435 396 435 c 0
 289 435 213 359 197 260 c 0
92 260 m 0
 116 409 252 530 411 530 c 0
 570 530 666 409 642 260 c 0
 618 111 482 -10 323 -10 c 0
 164 -10 68 111 92 260 c 0
282 670 m 1
 586 670 l 5
 573 590 l 5
 269 590 l 1
 282 670 l 1
EndSplineSet
EndChar

StartChar: Obreve
Encoding: 334 334 246
Width: 850
VWidth: 0
Flags: HM
LayerCount: 2
Fore
SplineSet
227 350 m 4
 203 204 289 90 440 90 c 4
 591 90 713 204 737 350 c 4
 761 496 675 610 524 610 c 4
 373 610 251 496 227 350 c 4
117 350 m 4
 149 549 336 710 541 710 c 4
 746 710 879 549 847 350 c 4
 815 151 628 -10 423 -10 c 4
 218 -10 85 151 117 350 c 4
565 860 m 1
 515 860 484 884 492 932 c 5
 396 926 l 5
 380 827 440 760 549 760 c 1
 565 860 l 1
565 860 m 1
 549 760 l 1
 658 760 740 827 756 926 c 5
 662 932 l 5
 654 884 615 860 565 860 c 1
EndSplineSet
EndChar

StartChar: obreve
Encoding: 335 335 247
Width: 650
VWidth: 0
Flags: HM
LayerCount: 2
Fore
SplineSet
197 260 m 0
 181 161 232 85 339 85 c 0
 446 85 521 161 537 260 c 0
 553 359 503 435 396 435 c 0
 289 435 213 359 197 260 c 0
92 260 m 0
 116 409 252 530 411 530 c 0
 570 530 666 409 642 260 c 0
 618 111 482 -10 323 -10 c 0
 164 -10 68 111 92 260 c 0
436 680 m 1
 386 680 354 704 362 752 c 5
 266 746 l 5
 250 647 310 580 419 580 c 1
 436 680 l 1
436 680 m 1
 419 580 l 1
 528 580 610 647 626 746 c 5
 532 752 l 5
 524 704 486 680 436 680 c 1
EndSplineSet
EndChar

StartChar: Racute
Encoding: 340 340 248
Width: 718
VWidth: 0
Flags: HMW
LayerCount: 2
Fore
SplineSet
442 348 m 5
 530 348 598 397 610 472 c 4
 622 547 571 600 483 600 c 5
 499 700 l 5
 638 700 742 607 720 472 c 4
 698 338 564 248 425 248 c 5
 442 348 l 5
204 700 m 1
 314 700 l 1
 200 0 l 1
 90 0 l 1
 204 700 l 1
229 700 m 1
 499 700 l 5
 483 600 l 5
 213 600 l 1
 229 700 l 1
172 348 m 1
 442 348 l 5
 425 248 l 5
 155 248 l 1
 172 348 l 1
375 320 m 5
 500 320 l 5
 688 0 l 5
 563 0 l 5
 375 320 l 5
463 770 m 1
 383 770 l 5
 486 910 l 5
 606 910 l 1
 463 770 l 1
EndSplineSet
EndChar

StartChar: racute
Encoding: 341 341 249
Width: 410
VWidth: 0
Flags: HMW
LayerCount: 2
Fore
SplineSet
160 520 m 5
 265 520 l 5
 180 0 l 5
 75 0 l 5
 160 520 l 5
449 425 m 1
 429 425 l 2
 315 425 242 380 224 270 c 5
 189 270 l 5
 212 409 296 520 465 520 c 1
 449 425 l 1
366 590 m 1
 286 590 l 5
 389 730 l 5
 509 730 l 1
 366 590 l 1
EndSplineSet
EndChar

StartChar: uni0156
Encoding: 342 342 250
Width: 718
VWidth: 0
Flags: HMW
LayerCount: 2
Fore
SplineSet
442 348 m 5
 530 348 598 397 610 472 c 4
 622 547 571 600 483 600 c 5
 499 700 l 5
 638 700 742 607 720 472 c 4
 698 338 564 248 425 248 c 5
 442 348 l 5
204 700 m 1
 314 700 l 1
 200 0 l 1
 90 0 l 1
 204 700 l 1
229 700 m 1
 499 700 l 5
 483 600 l 5
 213 600 l 1
 229 700 l 1
172 348 m 1
 442 348 l 5
 425 248 l 5
 155 248 l 1
 172 348 l 1
375 320 m 5
 500 320 l 5
 688 0 l 5
 563 0 l 5
 375 320 l 5
328 -114 m 0
 335 -72 375 -38 416 -38 c 0
 467 -38 490 -72 483 -114 c 0
 481 -128 466 -150 455 -163 c 2
 337 -310 l 1
 267 -310 l 1
 362 -178 l 5
 340 -171 324 -141 328 -114 c 0
EndSplineSet
EndChar

StartChar: uni0157
Encoding: 343 343 251
Width: 410
VWidth: 0
Flags: HMW
LayerCount: 2
Fore
SplineSet
160 520 m 5
 265 520 l 5
 180 0 l 5
 75 0 l 5
 160 520 l 5
449 425 m 1
 429 425 l 2
 315 425 242 380 224 270 c 5
 189 270 l 5
 212 409 296 520 465 520 c 1
 449 425 l 1
69 -114 m 0
 76 -72 116 -38 157 -38 c 0
 208 -38 231 -72 224 -114 c 0
 222 -128 207 -150 196 -163 c 2
 78 -310 l 1
 8 -310 l 1
 103 -178 l 5
 81 -171 65 -141 69 -114 c 0
EndSplineSet
EndChar

StartChar: Rcaron
Encoding: 344 344 252
Width: 718
VWidth: 0
Flags: HMW
LayerCount: 2
Fore
SplineSet
442 348 m 5
 530 348 598 397 610 472 c 4
 622 547 571 600 483 600 c 5
 499 700 l 5
 638 700 742 607 720 472 c 4
 698 338 564 248 425 248 c 5
 442 348 l 5
204 700 m 1
 314 700 l 1
 200 0 l 1
 90 0 l 1
 204 700 l 1
229 700 m 1
 499 700 l 5
 483 600 l 5
 213 600 l 1
 229 700 l 1
172 348 m 1
 442 348 l 5
 425 248 l 5
 155 248 l 1
 172 348 l 1
375 320 m 5
 500 320 l 5
 688 0 l 5
 563 0 l 5
 375 320 l 5
324 870 m 1
 408 770 l 1
 318 770 l 5
 234 870 l 5
 324 870 l 1
428 770 m 1
 338 770 l 1
 454 870 l 1
 544 870 l 1
 428 770 l 1
EndSplineSet
EndChar

StartChar: rcaron
Encoding: 345 345 253
Width: 410
VWidth: 0
Flags: HMW
LayerCount: 2
Fore
SplineSet
160 520 m 5
 265 520 l 5
 180 0 l 5
 75 0 l 5
 160 520 l 5
449 425 m 1
 429 425 l 2
 315 425 242 380 224 270 c 5
 189 270 l 5
 212 409 296 520 465 520 c 1
 449 425 l 1
277 690 m 1
 361 590 l 1
 271 590 l 5
 187 690 l 5
 277 690 l 1
381 590 m 1
 291 590 l 1
 407 690 l 1
 497 690 l 1
 381 590 l 1
EndSplineSet
EndChar

StartChar: Sacute
Encoding: 346 346 254
Width: 625
VWidth: 0
Flags: HM
LayerCount: 2
Fore
SplineSet
496 190 m 1
 602 195 l 1
 583 76 485 -10 326 -10 c 0
 197 -10 116 56 63 113 c 1
 135 190 l 1
 176 146 233 85 341 85 c 4
 439 85 486 130 496 190 c 1
268 519 m 1
 162 514 l 1
 180 625 292 710 431 710 c 0
 550 710 610 674 654 622 c 1
 585 549 l 1
 547 593 493 615 425 615 c 0
 327 615 276 566 268 519 c 1
406 406 m 0
 539 384 623 327 602 195 c 1
 496 190 l 1
 509 269 458 300 352 317 c 0
 222 338 144 406 162 514 c 5
 268 519 l 1
 257 454 310 422 406 406 c 0
470 770 m 1
 390 770 l 5
 493 910 l 5
 613 910 l 1
 470 770 l 1
EndSplineSet
EndChar

StartChar: sacute
Encoding: 347 347 255
Width: 520
VWidth: 0
Flags: HM
LayerCount: 2
Fore
SplineSet
394 145 m 1
 500 152 l 1
 486 63 414 -10 266 -10 c 0
 157 -10 99 37 55 104 c 1
 142 166 l 1
 180 116 221 85 289 85 c 0
 342 85 387 105 394 145 c 1
240 381 m 1
 132 381 l 1
 146 467 229 530 346 530 c 0
 455 530 502 496 536 448 c 5
 458 380 l 1
 431 412 388 433 326 433 c 0
 268 433 244 403 240 381 c 1
344 314 m 0
 458 294 518 262 500 152 c 1
 394 145 l 1
 399 178 388 209 288 226 c 0
 188 243 116 283 132 381 c 1
 240 381 l 1
 235 351 259 329 344 314 c 0
391 590 m 1
 311 590 l 5
 414 730 l 5
 534 730 l 1
 391 590 l 1
EndSplineSet
EndChar

StartChar: Scircumflex
Encoding: 348 348 256
Width: 625
VWidth: 0
Flags: HM
LayerCount: 2
Fore
SplineSet
496 190 m 1
 602 195 l 1
 583 76 485 -10 326 -10 c 0
 197 -10 116 56 63 113 c 1
 135 190 l 1
 176 146 233 85 341 85 c 4
 439 85 486 130 496 190 c 1
268 519 m 1
 162 514 l 1
 180 625 292 710 431 710 c 0
 550 710 610 674 654 622 c 1
 585 549 l 1
 547 593 493 615 425 615 c 0
 327 615 276 566 268 519 c 1
406 406 m 0
 539 384 623 327 602 195 c 1
 496 190 l 1
 509 269 458 300 352 317 c 0
 222 338 144 406 162 514 c 5
 268 519 l 1
 257 454 310 422 406 406 c 0
495 770 m 1
 412 870 l 1
 502 870 l 1
 585 770 l 1
 495 770 l 1
392 870 m 5
 482 870 l 1
 365 770 l 1
 275 770 l 5
 392 870 l 5
EndSplineSet
EndChar

StartChar: scircumflex
Encoding: 349 349 257
Width: 520
VWidth: 0
Flags: HM
LayerCount: 2
Fore
SplineSet
394 145 m 1
 500 152 l 1
 486 63 414 -10 266 -10 c 0
 157 -10 99 37 55 104 c 1
 142 166 l 1
 180 116 221 85 289 85 c 0
 342 85 387 105 394 145 c 1
240 381 m 1
 132 381 l 1
 146 467 229 530 346 530 c 0
 455 530 502 496 536 448 c 5
 458 380 l 1
 431 412 388 433 326 433 c 0
 268 433 244 403 240 381 c 1
344 314 m 0
 458 294 518 262 500 152 c 1
 394 145 l 1
 399 178 388 209 288 226 c 0
 188 243 116 283 132 381 c 1
 240 381 l 1
 235 351 259 329 344 314 c 0
416 590 m 1
 332 690 l 1
 422 690 l 1
 506 590 l 1
 416 590 l 1
312 690 m 5
 402 690 l 1
 286 590 l 1
 196 590 l 5
 312 690 l 5
EndSplineSet
EndChar

StartChar: Scedilla
Encoding: 350 350 258
Width: 625
VWidth: 0
Flags: HM
LayerCount: 2
Fore
SplineSet
496 190 m 1
 602 195 l 1
 583 76 485 -10 326 -10 c 0
 197 -10 116 56 63 113 c 1
 135 190 l 1
 176 146 233 85 341 85 c 4
 439 85 486 130 496 190 c 1
268 519 m 1
 162 514 l 1
 180 625 292 710 431 710 c 0
 550 710 610 674 654 622 c 1
 585 549 l 1
 547 593 493 615 425 615 c 0
 327 615 276 566 268 519 c 1
406 406 m 0
 539 384 623 327 602 195 c 1
 496 190 l 1
 509 269 458 300 352 317 c 0
 222 338 144 406 162 514 c 5
 268 519 l 1
 257 454 310 422 406 406 c 0
308 -3 m 1
 348 -3 l 1
 392 -37 460 -77 451 -135 c 0
 442 -192 414 -227 337 -227 c 0
 300 -227 265 -213 246 -198 c 1
 276 -138 l 5
 290 -151 310 -163 330 -163 c 0
 361 -163 377 -154 381 -132 c 0
 387 -97 349 -42 308 -3 c 1
EndSplineSet
EndChar

StartChar: scedilla
Encoding: 351 351 259
Width: 520
VWidth: 0
Flags: HM
LayerCount: 2
Fore
SplineSet
394 145 m 1
 500 152 l 1
 486 63 414 -10 266 -10 c 0
 157 -10 99 37 55 104 c 1
 142 166 l 1
 180 116 221 85 289 85 c 0
 342 85 387 105 394 145 c 1
240 381 m 1
 132 381 l 1
 146 467 229 530 346 530 c 0
 455 530 502 496 536 448 c 5
 458 380 l 1
 431 412 388 433 326 433 c 0
 268 433 244 403 240 381 c 1
344 314 m 0
 458 294 518 262 500 152 c 1
 394 145 l 1
 399 178 388 209 288 226 c 0
 188 243 116 283 132 381 c 1
 240 381 l 1
 235 351 259 329 344 314 c 0
255 -3 m 1
 295 -3 l 1
 339 -37 407 -77 398 -135 c 0
 389 -192 361 -227 284 -227 c 0
 247 -227 212 -213 193 -198 c 1
 223 -138 l 5
 237 -151 257 -163 277 -163 c 0
 308 -163 324 -154 328 -132 c 0
 334 -97 296 -42 255 -3 c 1
EndSplineSet
EndChar

StartChar: Scaron
Encoding: 352 352 260
Width: 625
VWidth: 0
Flags: HM
LayerCount: 2
Fore
SplineSet
496 190 m 1
 602 195 l 1
 583 76 485 -10 326 -10 c 0
 197 -10 116 56 63 113 c 1
 135 190 l 1
 176 146 233 85 341 85 c 4
 439 85 486 130 496 190 c 1
268 519 m 1
 162 514 l 1
 180 625 292 710 431 710 c 0
 550 710 610 674 654 622 c 1
 585 549 l 1
 547 593 493 615 425 615 c 0
 327 615 276 566 268 519 c 1
406 406 m 0
 539 384 623 327 602 195 c 1
 496 190 l 1
 509 269 458 300 352 317 c 0
 222 338 144 406 162 514 c 5
 268 519 l 1
 257 454 310 422 406 406 c 0
382 870 m 1
 465 770 l 1
 375 770 l 5
 292 870 l 5
 382 870 l 1
485 770 m 1
 395 770 l 1
 512 870 l 1
 602 870 l 1
 485 770 l 1
EndSplineSet
EndChar

StartChar: scaron
Encoding: 353 353 261
Width: 520
VWidth: 0
Flags: HM
LayerCount: 2
Fore
SplineSet
394 145 m 1
 500 152 l 1
 486 63 414 -10 266 -10 c 0
 157 -10 99 37 55 104 c 1
 142 166 l 1
 180 116 221 85 289 85 c 0
 342 85 387 105 394 145 c 1
240 381 m 1
 132 381 l 1
 146 467 229 530 346 530 c 0
 455 530 502 496 536 448 c 5
 458 380 l 1
 431 412 388 433 326 433 c 0
 268 433 244 403 240 381 c 1
344 314 m 0
 458 294 518 262 500 152 c 1
 394 145 l 1
 399 178 388 209 288 226 c 0
 188 243 116 283 132 381 c 1
 240 381 l 1
 235 351 259 329 344 314 c 0
302 690 m 1
 386 590 l 1
 296 590 l 5
 212 690 l 5
 302 690 l 1
406 590 m 1
 316 590 l 1
 432 690 l 1
 522 690 l 1
 406 590 l 1
EndSplineSet
EndChar

StartChar: uni0162
Encoding: 354 354 262
Width: 690
VWidth: 0
Flags: HMW
LayerCount: 2
Fore
SplineSet
154 700 m 1
 764 700 l 5
 748 600 l 5
 138 600 l 1
 154 700 l 1
404 700 m 1
 514 700 l 1
 400 0 l 1
 290 0 l 1
 404 700 l 1
324 7 m 1
 364 7 l 1
 408 -27 476 -67 467 -125 c 0
 458 -182 430 -217 353 -217 c 0
 316 -217 281 -203 262 -188 c 1
 292 -128 l 5
 306 -141 327 -153 347 -153 c 0
 378 -153 393 -144 397 -122 c 0
 403 -87 365 -32 324 7 c 1
EndSplineSet
EndChar

StartChar: uni0163
Encoding: 355 355 263
Width: 430
VWidth: 0
Flags: HMW
LayerCount: 2
Fore
SplineSet
120 520 m 5
 465 520 l 1
 449 425 l 1
 104 425 l 5
 120 520 l 5
233 140 m 5
 128 140 l 5
 215 673 l 5
 320 673 l 5
 233 140 l 5
288 85 m 1
 322 85 349 96 369 115 c 1
 409 42 l 1
 377 13 328 -10 266 -10 c 1
 288 85 l 1
233 140 m 5
 228 110 250 85 288 85 c 1
 266 -10 l 5
 167 -10 115 61 128 140 c 5
 233 140 l 5
236 -3 m 1
 276 -3 l 1
 320 -37 388 -77 379 -135 c 0
 370 -192 342 -227 265 -227 c 0
 228 -227 193 -213 174 -198 c 1
 204 -138 l 5
 218 -151 238 -163 258 -163 c 0
 289 -163 305 -154 309 -132 c 0
 315 -97 277 -42 236 -3 c 1
EndSplineSet
EndChar

StartChar: Tcaron
Encoding: 356 356 264
Width: 690
VWidth: 0
Flags: HMW
LayerCount: 2
Fore
SplineSet
154 700 m 1
 764 700 l 5
 748 600 l 5
 138 600 l 1
 154 700 l 1
404 700 m 1
 514 700 l 1
 400 0 l 1
 290 0 l 1
 404 700 l 1
419 870 m 1
 503 770 l 1
 413 770 l 5
 329 870 l 5
 419 870 l 1
523 770 m 1
 433 770 l 1
 549 870 l 1
 639 870 l 1
 523 770 l 1
EndSplineSet
EndChar

StartChar: tcaron
Encoding: 357 357 265
Width: 430
VWidth: 0
Flags: HMW
LayerCount: 2
Fore
SplineSet
120 520 m 5
 465 520 l 1
 449 425 l 1
 104 425 l 5
 120 520 l 5
233 140 m 5
 128 140 l 5
 215 673 l 5
 320 673 l 5
 233 140 l 5
288 85 m 1
 322 85 349 96 369 115 c 1
 409 42 l 1
 377 13 328 -10 266 -10 c 1
 288 85 l 1
233 140 m 5
 228 110 250 85 288 85 c 1
 266 -10 l 5
 167 -10 115 61 128 140 c 5
 233 140 l 5
414 749 m 0
 421 791 460 825 501 825 c 0
 552 825 576 791 569 749 c 0
 567 735 552 713 541 700 c 2
 422 553 l 1
 352 553 l 1
 448 685 l 5
 426 692 410 722 414 749 c 0
EndSplineSet
EndChar

StartChar: Utilde
Encoding: 360 360 266
Width: 760
VWidth: 0
Flags: HMW
LayerCount: 2
Fore
SplineSet
621 280 m 1
 689 700 l 1
 794 700 l 1
 726 280 l 1
 621 280 l 1
126 280 m 1
 194 700 l 1
 299 700 l 1
 231 280 l 1
 126 280 l 1
621 280 m 5
 726 280 l 1
 698 111 547 -10 378 -10 c 4
 209 -10 98 111 126 280 c 1
 231 280 l 5
 213 171 287 85 394 85 c 4
 501 85 603 171 621 280 c 5
375 770 m 1
 298 790 l 5
 315 868 380 907 431 907 c 0
 495 907 543 863 587 863 c 4
 622 863 642 873 648 910 c 1
 725 890 l 1
 706 802 635 773 585 773 c 0
 523 773 478 817 435 817 c 4
 401 817 381 807 375 770 c 1
EndSplineSet
EndChar

StartChar: utilde
Encoding: 361 361 267
Width: 635
VWidth: 0
Flags: HMW
LayerCount: 2
Fore
SplineSet
103 200 m 1
 155 520 l 1
 260 520 l 1
 211 220 l 1
 103 200 l 1
560 0 m 1
 455 0 l 1
 540 520 l 1
 645 520 l 1
 560 0 l 1
211 220 m 1
 198 141 219 85 319 85 c 0
 408 85 478 140 494 240 c 1
 529 240 l 1
 506 101 412 -10 273 -10 c 0
 134 -10 82 71 103 200 c 1
 211 220 l 1
289 590 m 1
 211 610 l 5
 228 688 293 727 344 727 c 0
 408 727 456 683 500 683 c 4
 535 683 555 693 561 730 c 1
 638 710 l 1
 619 622 548 593 498 593 c 0
 436 593 391 637 348 637 c 4
 314 637 295 627 289 590 c 1
EndSplineSet
EndChar

StartChar: Umacron
Encoding: 362 362 268
Width: 760
VWidth: 0
Flags: HMW
LayerCount: 2
Fore
SplineSet
621 280 m 1
 689 700 l 1
 794 700 l 1
 726 280 l 1
 621 280 l 1
126 280 m 1
 194 700 l 1
 299 700 l 1
 231 280 l 1
 126 280 l 1
621 280 m 5
 726 280 l 1
 698 111 547 -10 378 -10 c 4
 209 -10 98 111 126 280 c 1
 231 280 l 5
 213 171 287 85 394 85 c 4
 501 85 603 171 621 280 c 5
356 850 m 1
 660 850 l 5
 647 770 l 5
 343 770 l 1
 356 850 l 1
EndSplineSet
EndChar

StartChar: umacron
Encoding: 363 363 269
Width: 635
VWidth: 0
Flags: HMW
LayerCount: 2
Fore
SplineSet
103 200 m 1
 155 520 l 1
 260 520 l 1
 211 220 l 1
 103 200 l 1
560 0 m 1
 455 0 l 1
 540 520 l 1
 645 520 l 1
 560 0 l 1
211 220 m 1
 198 141 219 85 319 85 c 0
 408 85 478 140 494 240 c 1
 529 240 l 1
 506 101 412 -10 273 -10 c 0
 134 -10 82 71 103 200 c 1
 211 220 l 1
270 670 m 1
 574 670 l 5
 561 590 l 5
 257 590 l 1
 270 670 l 1
EndSplineSet
EndChar

StartChar: Ubreve
Encoding: 364 364 270
Width: 760
VWidth: 0
Flags: HMW
LayerCount: 2
Fore
SplineSet
621 280 m 1
 689 700 l 1
 794 700 l 1
 726 280 l 1
 621 280 l 1
126 280 m 1
 194 700 l 1
 299 700 l 1
 231 280 l 1
 126 280 l 1
621 280 m 5
 726 280 l 1
 698 111 547 -10 378 -10 c 4
 209 -10 98 111 126 280 c 1
 231 280 l 5
 213 171 287 85 394 85 c 4
 501 85 603 171 621 280 c 5
510 860 m 1
 460 860 429 884 437 932 c 5
 341 926 l 5
 325 827 385 760 494 760 c 1
 510 860 l 1
510 860 m 1
 494 760 l 1
 603 760 685 827 701 926 c 5
 607 932 l 5
 599 884 560 860 510 860 c 1
EndSplineSet
EndChar

StartChar: ubreve
Encoding: 365 365 271
Width: 635
VWidth: 0
Flags: HMW
LayerCount: 2
Fore
SplineSet
103 200 m 1
 155 520 l 1
 260 520 l 1
 211 220 l 1
 103 200 l 1
560 0 m 1
 455 0 l 1
 540 520 l 1
 645 520 l 1
 560 0 l 1
211 220 m 1
 198 141 219 85 319 85 c 0
 408 85 478 140 494 240 c 1
 529 240 l 1
 506 101 412 -10 273 -10 c 0
 134 -10 82 71 103 200 c 1
 211 220 l 1
423 680 m 1
 373 680 342 704 350 752 c 5
 254 746 l 5
 238 647 298 580 407 580 c 1
 423 680 l 1
423 680 m 1
 407 580 l 1
 516 580 598 647 614 746 c 5
 520 752 l 5
 512 704 473 680 423 680 c 1
EndSplineSet
EndChar

StartChar: Uring
Encoding: 366 366 272
Width: 760
VWidth: 0
Flags: HMW
LayerCount: 2
Fore
SplineSet
621 280 m 1
 689 700 l 1
 794 700 l 1
 726 280 l 1
 621 280 l 1
126 280 m 1
 194 700 l 1
 299 700 l 1
 231 280 l 1
 126 280 l 1
621 280 m 5
 726 280 l 1
 698 111 547 -10 378 -10 c 4
 209 -10 98 111 126 280 c 1
 231 280 l 5
 213 171 287 85 394 85 c 4
 501 85 603 171 621 280 c 5
462 870 m 0
 457 841 475 820 504 820 c 0
 533 820 557 841 562 870 c 0
 567 899 549 920 520 920 c 4
 491 920 467 899 462 870 c 0
412 870 m 0
 421 925 473 970 528 970 c 0
 583 970 621 925 612 870 c 0
 603 815 550 770 495 770 c 0
 440 770 403 815 412 870 c 0
EndSplineSet
EndChar

StartChar: uring
Encoding: 367 367 273
Width: 635
VWidth: 0
Flags: HMW
LayerCount: 2
Fore
SplineSet
103 200 m 1
 155 520 l 1
 260 520 l 1
 211 220 l 1
 103 200 l 1
560 0 m 1
 455 0 l 1
 540 520 l 1
 645 520 l 1
 560 0 l 1
211 220 m 1
 198 141 219 85 319 85 c 0
 408 85 478 140 494 240 c 1
 529 240 l 1
 506 101 412 -10 273 -10 c 0
 134 -10 82 71 103 200 c 1
 211 220 l 1
375 690 m 0
 370 661 388 640 417 640 c 0
 446 640 470 661 475 690 c 0
 480 719 462 740 433 740 c 4
 404 740 380 719 375 690 c 0
325 690 m 0
 334 745 386 790 441 790 c 0
 496 790 534 745 525 690 c 0
 516 635 464 590 409 590 c 0
 354 590 316 635 325 690 c 0
EndSplineSet
EndChar

StartChar: Wcircumflex
Encoding: 372 372 274
Width: 1065
VWidth: 0
Flags: HMW
LayerCount: 2
Fore
SplineSet
584 700 m 1
 709 700 l 1
 683 690 l 1
 606 690 l 1
 584 700 l 1
815 0 m 1
 715 0 l 1
 717 10 l 1
 817 10 l 1
 815 0 l 1
709 700 m 1
 817 10 l 1
 715 0 l 1
 606 690 l 1
 709 700 l 1
815 0 m 1
 717 10 l 1
 1044 700 l 1
 1154 700 l 1
 815 0 l 1
350 0 m 5
 250 0 l 5
 252 10 l 5
 352 10 l 5
 350 0 l 5
249 700 m 1
 352 10 l 5
 250 0 l 5
 139 700 l 1
 249 700 l 1
350 0 m 5
 252 10 l 5
 584 700 l 1
 683 690 l 1
 350 0 l 5
700 770 m 1
 617 870 l 1
 707 870 l 1
 790 770 l 1
 700 770 l 1
597 870 m 5
 687 870 l 1
 570 770 l 1
 480 770 l 5
 597 870 l 5
EndSplineSet
EndChar

StartChar: wcircumflex
Encoding: 373 373 275
Width: 795
VWidth: 0
Flags: HM
LayerCount: 2
Fore
SplineSet
440 520 m 1
 525 520 l 1
 517 470 l 1
 432 470 l 1
 440 520 l 1
625 0 m 1
 530 0 l 1
 531 5 l 5
 629 25 l 1
 625 0 l 1
541 5 m 5
 745 520 l 1
 850 520 l 1
 625 0 l 1
 541 5 l 5
442 470 m 1
 525 520 l 1
 619 25 l 1
 530 0 l 1
 442 470 l 1
265 0 m 1
 170 0 l 1
 174 25 l 1
 266 5 l 1
 265 0 l 1
184 25 m 1
 440 520 l 1
 507 470 l 1
 265 0 l 1
 184 25 l 1
115 520 m 1
 220 520 l 1
 256 5 l 1
 170 0 l 1
 115 520 l 1
559 590 m 1
 475 690 l 1
 565 690 l 1
 649 590 l 1
 559 590 l 1
455 690 m 5
 545 690 l 1
 429 590 l 1
 339 590 l 5
 455 690 l 5
EndSplineSet
EndChar

StartChar: Ycircumflex
Encoding: 374 374 276
Width: 680
VWidth: 0
Flags: HMW
LayerCount: 2
Fore
SplineSet
333 295 m 1
 443 295 l 1
 395 0 l 1
 285 0 l 1
 333 295 l 1
134 700 m 1
 254 700 l 1
 443 295 l 1
 360 217 l 1
 134 700 l 1
654 700 m 1
 774 700 l 1
 390 217 l 1
 333 295 l 1
 654 700 l 1
518 770 m 1
 434 870 l 1
 524 870 l 1
 608 770 l 1
 518 770 l 1
414 870 m 5
 504 870 l 1
 388 770 l 1
 298 770 l 5
 414 870 l 5
EndSplineSet
EndChar

StartChar: ycircumflex
Encoding: 375 375 277
Width: 579
VWidth: 0
Flags: HMW
LayerCount: 2
Fore
SplineSet
114 520 m 5
 224 520 l 5
 365 5 l 5
 259 0 l 5
 114 520 l 5
144 -115 m 5
 135 -210 l 5
 78 -210 32 -184 11 -150 c 5
 74 -77 l 5
 88 -96 110 -115 144 -115 c 5
224 -60 m 6
 534 520 l 5
 639 520 l 5
 329 -60 l 6
 287 -140 224 -210 135 -210 c 5
 144 -115 l 5
 172 -115 203 -100 224 -60 c 6
445 590 m 1
 361 690 l 1
 451 690 l 1
 535 590 l 1
 445 590 l 1
341 690 m 5
 431 690 l 1
 315 590 l 1
 225 590 l 5
 341 690 l 5
EndSplineSet
EndChar

StartChar: Ydieresis
Encoding: 376 376 278
Width: 680
VWidth: 0
Flags: HMW
LayerCount: 2
Fore
SplineSet
333 295 m 1
 443 295 l 1
 395 0 l 1
 285 0 l 1
 333 295 l 1
134 700 m 1
 254 700 l 1
 443 295 l 1
 360 217 l 1
 134 700 l 1
654 700 m 1
 774 700 l 1
 390 217 l 1
 333 295 l 1
 654 700 l 1
280 846 m 0
 287 888 327 922 368 922 c 0
 409 922 437 888 430 846 c 0
 423 804 384 770 343 770 c 0
 302 770 273 804 280 846 c 0
500 846 m 0
 507 888 547 922 588 922 c 0
 629 922 657 888 650 846 c 0
 643 804 604 770 563 770 c 0
 522 770 493 804 500 846 c 0
EndSplineSet
EndChar

StartChar: Zacute
Encoding: 377 377 279
Width: 680
VWidth: 0
Flags: HM
LayerCount: 2
Fore
SplineSet
694 610 m 1
 684 610 l 1
 699 700 l 1
 709 700 l 1
 694 610 l 1
80 90 m 1
 90 90 l 1
 75 0 l 1
 65 0 l 1
 80 90 l 1
199 700 m 1
 699 700 l 1
 683 600 l 1
 183 600 l 1
 199 700 l 1
91 100 m 1
 631 100 l 1
 615 0 l 1
 75 0 l 1
 91 100 l 1
574 610 m 5
 694 610 l 1
 200 90 l 1
 80 90 l 1
 574 610 l 5
505 770 m 1
 425 770 l 5
 528 910 l 5
 648 910 l 1
 505 770 l 1
EndSplineSet
EndChar

StartChar: zacute
Encoding: 378 378 280
Width: 570
VWidth: 0
Flags: HM
LayerCount: 2
Fore
SplineSet
63 80 m 1
 84 85 l 1
 70 0 l 1
 50 0 l 1
 63 80 l 1
85 95 m 1
 535 95 l 1
 520 0 l 1
 70 0 l 1
 85 95 l 1
575 520 m 1
 595 520 l 1
 582 440 l 1
 561 435 l 1
 575 520 l 1
155 520 m 1
 575 520 l 1
 559 425 l 1
 139 425 l 1
 155 520 l 1
451 435 m 1
 582 440 l 1
 194 85 l 5
 63 80 l 1
 451 435 l 1
426 590 m 1
 346 590 l 5
 449 730 l 5
 569 730 l 1
 426 590 l 1
EndSplineSet
EndChar

StartChar: Zdotaccent
Encoding: 379 379 281
Width: 680
VWidth: 0
Flags: HM
LayerCount: 2
Fore
SplineSet
694 610 m 1
 684 610 l 1
 699 700 l 1
 709 700 l 1
 694 610 l 1
80 90 m 1
 90 90 l 1
 75 0 l 1
 65 0 l 1
 80 90 l 1
199 700 m 1
 699 700 l 1
 683 600 l 1
 183 600 l 1
 199 700 l 1
91 100 m 1
 631 100 l 1
 615 0 l 1
 75 0 l 1
 91 100 l 1
574 610 m 5
 694 610 l 1
 200 90 l 1
 80 90 l 1
 574 610 l 5
403 846 m 0
 410 888 449 922 490 922 c 0
 531 922 560 888 553 846 c 0
 546 804 506 770 465 770 c 0
 424 770 396 804 403 846 c 0
EndSplineSet
EndChar

StartChar: zdotaccent
Encoding: 380 380 282
Width: 570
VWidth: 0
Flags: HM
LayerCount: 2
Fore
SplineSet
63 80 m 1
 84 85 l 1
 70 0 l 1
 50 0 l 1
 63 80 l 1
85 95 m 1
 535 95 l 1
 520 0 l 1
 70 0 l 1
 85 95 l 1
575 520 m 1
 595 520 l 1
 582 440 l 1
 561 435 l 1
 575 520 l 1
155 520 m 1
 575 520 l 1
 559 425 l 1
 139 425 l 1
 155 520 l 1
451 435 m 1
 582 440 l 1
 194 85 l 5
 63 80 l 1
 451 435 l 1
323 666 m 0
 330 708 370 742 411 742 c 0
 452 742 480 708 473 666 c 0
 466 624 427 590 386 590 c 0
 345 590 316 624 323 666 c 0
EndSplineSet
EndChar

StartChar: Zcaron
Encoding: 381 381 283
Width: 680
VWidth: 0
Flags: HM
LayerCount: 2
Fore
SplineSet
694 610 m 1
 684 610 l 1
 699 700 l 1
 709 700 l 1
 694 610 l 1
80 90 m 1
 90 90 l 1
 75 0 l 1
 65 0 l 1
 80 90 l 1
199 700 m 1
 699 700 l 1
 683 600 l 1
 183 600 l 1
 199 700 l 1
91 100 m 1
 631 100 l 1
 615 0 l 1
 75 0 l 1
 91 100 l 1
574 610 m 5
 694 610 l 1
 200 90 l 1
 80 90 l 1
 574 610 l 5
417 870 m 1
 500 770 l 1
 410 770 l 5
 327 870 l 5
 417 870 l 1
520 770 m 1
 430 770 l 1
 547 870 l 1
 637 870 l 1
 520 770 l 1
EndSplineSet
EndChar

StartChar: zcaron
Encoding: 382 382 284
Width: 570
VWidth: 0
Flags: HM
LayerCount: 2
Fore
SplineSet
63 80 m 1
 84 85 l 1
 70 0 l 1
 50 0 l 1
 63 80 l 1
85 95 m 1
 535 95 l 1
 520 0 l 1
 70 0 l 1
 85 95 l 1
575 520 m 1
 595 520 l 1
 582 440 l 1
 561 435 l 1
 575 520 l 1
155 520 m 1
 575 520 l 1
 559 425 l 1
 139 425 l 1
 155 520 l 1
451 435 m 1
 582 440 l 1
 194 85 l 5
 63 80 l 1
 451 435 l 1
337 690 m 1
 421 590 l 1
 331 590 l 5
 247 690 l 5
 337 690 l 1
441 590 m 1
 351 590 l 1
 467 690 l 1
 557 690 l 1
 441 590 l 1
EndSplineSet
EndChar

StartChar: Ohorn
Encoding: 416 416 285
Width: 850
VWidth: 0
Flags: HMW
LayerCount: 2
Fore
SplineSet
227 350 m 4
 203 204 289 90 440 90 c 4
 591 90 713 204 737 350 c 4
 761 496 675 610 524 610 c 4
 373 610 251 496 227 350 c 4
117 350 m 4
 149 549 336 710 541 710 c 4
 746 710 879 549 847 350 c 4
 815 151 628 -10 423 -10 c 4
 218 -10 85 151 117 350 c 4
832 656 m 0
 839 698 878 732 919 732 c 0
 970 732 994 698 987 656 c 0
 985 642 970 620 959 607 c 2
 840 460 l 1
 770 460 l 1
 865 592 l 5
 843 599 828 629 832 656 c 0
EndSplineSet
EndChar

StartChar: ohorn
Encoding: 417 417 286
Width: 650
VWidth: 0
Flags: HMW
LayerCount: 2
Fore
SplineSet
197 260 m 0
 181 161 232 85 339 85 c 0
 446 85 521 161 537 260 c 0
 553 359 503 435 396 435 c 0
 289 435 213 359 197 260 c 0
92 260 m 0
 116 409 252 530 411 530 c 0
 570 530 666 409 642 260 c 0
 618 111 482 -10 323 -10 c 0
 164 -10 68 111 92 260 c 0
649 528 m 0
 656 570 695 604 736 604 c 0
 787 604 811 570 804 528 c 0
 802 514 787 492 776 479 c 2
 657 332 l 1
 587 332 l 1
 683 464 l 5
 661 471 645 501 649 528 c 0
EndSplineSet
EndChar

StartChar: Uhorn
Encoding: 431 431 287
Width: 760
VWidth: 0
Flags: HMW
LayerCount: 2
Fore
SplineSet
621 280 m 1
 689 700 l 1
 794 700 l 1
 726 280 l 1
 621 280 l 1
126 280 m 1
 194 700 l 1
 299 700 l 1
 231 280 l 1
 126 280 l 1
621 280 m 5
 726 280 l 1
 698 111 547 -10 378 -10 c 4
 209 -10 98 111 126 280 c 1
 231 280 l 5
 213 171 287 85 394 85 c 4
 501 85 603 171 621 280 c 5
857 656 m 0
 864 698 903 732 944 732 c 0
 995 732 1019 698 1012 656 c 0
 1010 642 995 620 984 607 c 2
 865 460 l 1
 795 460 l 1
 890 592 l 5
 868 599 853 629 857 656 c 0
EndSplineSet
EndChar

StartChar: uhorn
Encoding: 432 432 288
Width: 635
VWidth: 0
Flags: HMW
LayerCount: 2
Fore
SplineSet
103 200 m 1
 155 520 l 1
 260 520 l 1
 211 220 l 1
 103 200 l 1
560 0 m 1
 455 0 l 1
 540 520 l 1
 645 520 l 1
 560 0 l 1
211 220 m 1
 198 141 219 85 319 85 c 0
 408 85 478 140 494 240 c 1
 529 240 l 1
 506 101 412 -10 273 -10 c 0
 134 -10 82 71 103 200 c 1
 211 220 l 1
693 476 m 0
 700 518 739 552 780 552 c 0
 831 552 855 518 848 476 c 0
 846 462 831 440 820 427 c 2
 701 280 l 1
 631 280 l 1
 726 412 l 5
 704 419 689 449 693 476 c 0
EndSplineSet
EndChar

StartChar: uni01CD
Encoding: 461 461 289
Width: 800
VWidth: 0
Flags: HMW
LayerCount: 2
Fore
SplineSet
464 700 m 1
 564 700 l 1
 552 690 l 1
 462 690 l 1
 464 700 l 1
238 270 m 1
 630 270 l 1
 615 175 l 5
 223 175 l 5
 238 270 l 1
660 0 m 1
 462 690 l 1
 564 700 l 1
 770 0 l 1
 660 0 l 1
464 700 m 1
 562 690 l 1
 140 0 l 1
 30 0 l 1
 464 700 l 1
464 870 m 1
 548 770 l 1
 458 770 l 5
 374 870 l 5
 464 870 l 1
568 770 m 1
 478 770 l 1
 594 870 l 1
 684 870 l 1
 568 770 l 1
EndSplineSet
EndChar

StartChar: uni01CE
Encoding: 462 462 290
Width: 580
VWidth: 0
Flags: HMW
LayerCount: 2
Fore
SplineSet
367 322 m 1
 507 322 l 1
 495 248 l 1
 385 248 l 1
 367 322 l 1
459 330 m 1
 471 405 435 435 354 435 c 1
 375 530 l 1
 518 530 584 454 564 330 c 1
 459 330 l 1
354 435 m 1
 300 435 249 422 193 382 c 1
 148 450 l 1
 213 499 273 530 375 530 c 1
 354 435 l 1
459 330 m 1
 564 330 l 1
 510 0 l 1
 405 0 l 1
 459 330 l 1
168 155 m 1
 159 102 204 75 277 75 c 0
 355 75 421 100 434 180 c 1
 469 180 l 1
 451 71 372 -10 233 -10 c 0
 134 -10 42 41 60 150 c 5
 168 155 l 1
367 322 m 1
 385 248 l 1
 276 248 180 230 168 155 c 1
 60 150 l 5
 84 295 230 322 367 322 c 1
336 690 m 1
 420 590 l 1
 330 590 l 5
 246 690 l 5
 336 690 l 1
440 590 m 1
 350 590 l 1
 466 690 l 1
 556 690 l 1
 440 590 l 1
EndSplineSet
EndChar

StartChar: uni01CF
Encoding: 463 463 291
Width: 300
VWidth: 0
Flags: HMW
LayerCount: 2
Fore
SplineSet
209 700 m 1
 319 700 l 5
 205 0 l 5
 95 0 l 1
 209 700 l 1
214 870 m 1
 298 770 l 1
 208 770 l 5
 124 870 l 5
 214 870 l 1
318 770 m 1
 228 770 l 1
 344 870 l 1
 434 870 l 1
 318 770 l 1
EndSplineSet
EndChar

StartChar: uni01D0
Encoding: 464 464 292
Width: 270
VWidth: 0
Flags: HMW
LayerCount: 2
Fore
SplineSet
170 520 m 1
 270 520 l 1
 185 0 l 1
 85 0 l 1
 170 520 l 1
172 690 m 1
 256 590 l 1
 166 590 l 5
 82 690 l 5
 172 690 l 1
276 590 m 1
 186 590 l 1
 302 690 l 1
 392 690 l 1
 276 590 l 1
EndSplineSet
EndChar

StartChar: uni01D1
Encoding: 465 465 293
Width: 850
VWidth: 0
Flags: HM
LayerCount: 2
Fore
SplineSet
227 350 m 4
 203 204 289 90 440 90 c 4
 591 90 713 204 737 350 c 4
 761 496 675 610 524 610 c 4
 373 610 251 496 227 350 c 4
117 350 m 4
 149 549 336 710 541 710 c 4
 746 710 879 549 847 350 c 4
 815 151 628 -10 423 -10 c 4
 218 -10 85 151 117 350 c 4
502 870 m 1
 585 770 l 1
 495 770 l 5
 412 870 l 5
 502 870 l 1
605 770 m 1
 515 770 l 1
 632 870 l 1
 722 870 l 1
 605 770 l 1
EndSplineSet
EndChar

StartChar: uni01D2
Encoding: 466 466 294
Width: 650
VWidth: 0
Flags: HM
LayerCount: 2
Fore
SplineSet
197 260 m 0
 181 161 232 85 339 85 c 0
 446 85 521 161 537 260 c 0
 553 359 503 435 396 435 c 0
 289 435 213 359 197 260 c 0
92 260 m 0
 116 409 252 530 411 530 c 0
 570 530 666 409 642 260 c 0
 618 111 482 -10 323 -10 c 0
 164 -10 68 111 92 260 c 0
372 690 m 1
 456 590 l 1
 366 590 l 5
 282 690 l 5
 372 690 l 1
476 590 m 1
 386 590 l 1
 502 690 l 1
 592 690 l 1
 476 590 l 1
EndSplineSet
EndChar

StartChar: uni01D3
Encoding: 467 467 295
Width: 760
VWidth: 0
Flags: HMW
LayerCount: 2
Fore
SplineSet
621 280 m 1
 689 700 l 1
 794 700 l 1
 726 280 l 1
 621 280 l 1
126 280 m 1
 194 700 l 1
 299 700 l 1
 231 280 l 1
 126 280 l 1
621 280 m 5
 726 280 l 1
 698 111 547 -10 378 -10 c 4
 209 -10 98 111 126 280 c 1
 231 280 l 5
 213 171 287 85 394 85 c 4
 501 85 603 171 621 280 c 5
447 870 m 1
 530 770 l 1
 440 770 l 5
 357 870 l 5
 447 870 l 1
550 770 m 1
 460 770 l 1
 577 870 l 1
 667 870 l 1
 550 770 l 1
EndSplineSet
EndChar

StartChar: uni01D4
Encoding: 468 468 296
Width: 635
VWidth: 0
Flags: HMW
LayerCount: 2
Fore
SplineSet
103 200 m 1
 155 520 l 1
 260 520 l 1
 211 220 l 1
 103 200 l 1
560 0 m 1
 455 0 l 1
 540 520 l 1
 645 520 l 1
 560 0 l 1
211 220 m 1
 198 141 219 85 319 85 c 0
 408 85 478 140 494 240 c 1
 529 240 l 1
 506 101 412 -10 273 -10 c 0
 134 -10 82 71 103 200 c 1
 211 220 l 1
360 690 m 1
 444 590 l 1
 354 590 l 5
 270 690 l 5
 360 690 l 1
464 590 m 1
 374 590 l 1
 490 690 l 1
 580 690 l 1
 464 590 l 1
EndSplineSet
EndChar

StartChar: uni01D5
Encoding: 469 469 297
Width: 760
VWidth: 0
Flags: HMW
LayerCount: 2
Fore
SplineSet
621 280 m 1
 689 700 l 1
 794 700 l 1
 726 280 l 1
 621 280 l 1
126 280 m 1
 194 700 l 1
 299 700 l 1
 231 280 l 1
 126 280 l 1
621 280 m 5
 726 280 l 1
 698 111 547 -10 378 -10 c 4
 209 -10 98 111 126 280 c 1
 231 280 l 5
 213 171 287 85 394 85 c 4
 501 85 603 171 621 280 c 5
323 846 m 0
 330 888 369 922 410 922 c 0
 451 922 480 888 473 846 c 0
 466 804 426 770 385 770 c 0
 344 770 316 804 323 846 c 0
543 846 m 0
 550 888 589 922 630 922 c 0
 671 922 700 888 693 846 c 0
 686 804 646 770 605 770 c 0
 564 770 536 804 543 846 c 0
387 1040 m 1
 691 1040 l 5
 678 960 l 5
 374 960 l 1
 387 1040 l 1
EndSplineSet
EndChar

StartChar: uni01D6
Encoding: 470 470 298
Width: 635
VWidth: 0
Flags: HMW
LayerCount: 2
Fore
SplineSet
103 200 m 1
 155 520 l 1
 260 520 l 1
 211 220 l 1
 103 200 l 1
560 0 m 1
 455 0 l 1
 540 520 l 1
 645 520 l 1
 560 0 l 1
211 220 m 1
 198 141 219 85 319 85 c 0
 408 85 478 140 494 240 c 1
 529 240 l 1
 506 101 412 -10 273 -10 c 0
 134 -10 82 71 103 200 c 1
 211 220 l 1
236 666 m 0
 243 708 282 742 323 742 c 0
 364 742 393 708 386 666 c 0
 379 624 340 590 299 590 c 0
 258 590 229 624 236 666 c 0
456 666 m 0
 463 708 502 742 543 742 c 0
 584 742 613 708 606 666 c 0
 599 624 560 590 519 590 c 0
 478 590 449 624 456 666 c 0
301 860 m 1
 605 860 l 5
 592 780 l 5
 288 780 l 1
 301 860 l 1
EndSplineSet
EndChar

StartChar: uni01D7
Encoding: 471 471 299
Width: 760
VWidth: 0
Flags: HMW
LayerCount: 2
Fore
SplineSet
621 280 m 1
 689 700 l 1
 794 700 l 1
 726 280 l 1
 621 280 l 1
126 280 m 1
 194 700 l 1
 299 700 l 1
 231 280 l 1
 126 280 l 1
621 280 m 5
 726 280 l 1
 698 111 547 -10 378 -10 c 4
 209 -10 98 111 126 280 c 1
 231 280 l 5
 213 171 287 85 394 85 c 4
 501 85 603 171 621 280 c 5
323 846 m 0
 330 888 369 922 410 922 c 0
 451 922 480 888 473 846 c 0
 466 804 426 770 385 770 c 0
 344 770 316 804 323 846 c 0
543 846 m 0
 550 888 589 922 630 922 c 0
 671 922 700 888 693 846 c 0
 686 804 646 770 605 770 c 0
 564 770 536 804 543 846 c 0
566 960 m 1
 486 960 l 5
 589 1100 l 5
 709 1100 l 1
 566 960 l 1
EndSplineSet
EndChar

StartChar: uni01D8
Encoding: 472 472 300
Width: 635
VWidth: 0
Flags: HMW
LayerCount: 2
Fore
SplineSet
103 200 m 1
 155 520 l 1
 260 520 l 1
 211 220 l 1
 103 200 l 1
560 0 m 1
 455 0 l 1
 540 520 l 1
 645 520 l 1
 560 0 l 1
211 220 m 1
 198 141 219 85 319 85 c 0
 408 85 478 140 494 240 c 1
 529 240 l 1
 506 101 412 -10 273 -10 c 0
 134 -10 82 71 103 200 c 1
 211 220 l 1
236 666 m 0
 243 708 282 742 323 742 c 0
 364 742 393 708 386 666 c 0
 379 624 340 590 299 590 c 0
 258 590 229 624 236 666 c 0
456 666 m 0
 463 708 502 742 543 742 c 0
 584 742 613 708 606 666 c 0
 599 624 560 590 519 590 c 0
 478 590 449 624 456 666 c 0
480 780 m 1
 400 780 l 5
 502 920 l 5
 622 920 l 1
 480 780 l 1
EndSplineSet
EndChar

StartChar: uni01D9
Encoding: 473 473 301
Width: 760
VWidth: 0
Flags: HMW
LayerCount: 2
Fore
SplineSet
621 280 m 1
 689 700 l 1
 794 700 l 1
 726 280 l 1
 621 280 l 1
126 280 m 1
 194 700 l 1
 299 700 l 1
 231 280 l 1
 126 280 l 1
621 280 m 5
 726 280 l 1
 698 111 547 -10 378 -10 c 4
 209 -10 98 111 126 280 c 1
 231 280 l 5
 213 171 287 85 394 85 c 4
 501 85 603 171 621 280 c 5
323 846 m 0
 330 888 369 922 410 922 c 0
 451 922 480 888 473 846 c 0
 466 804 426 770 385 770 c 0
 344 770 316 804 323 846 c 0
543 846 m 0
 550 888 589 922 630 922 c 0
 671 922 700 888 693 846 c 0
 686 804 646 770 605 770 c 0
 564 770 536 804 543 846 c 0
478 1060 m 1
 561 960 l 1
 471 960 l 5
 388 1060 l 5
 478 1060 l 1
581 960 m 1
 491 960 l 1
 608 1060 l 1
 698 1060 l 1
 581 960 l 1
EndSplineSet
EndChar

StartChar: uni01DA
Encoding: 474 474 302
Width: 635
VWidth: 0
Flags: HMW
LayerCount: 2
Fore
SplineSet
103 200 m 1
 155 520 l 1
 260 520 l 1
 211 220 l 1
 103 200 l 1
560 0 m 1
 455 0 l 1
 540 520 l 1
 645 520 l 1
 560 0 l 1
211 220 m 1
 198 141 219 85 319 85 c 0
 408 85 478 140 494 240 c 1
 529 240 l 1
 506 101 412 -10 273 -10 c 0
 134 -10 82 71 103 200 c 1
 211 220 l 1
236 666 m 0
 243 708 282 742 323 742 c 0
 364 742 393 708 386 666 c 0
 379 624 340 590 299 590 c 0
 258 590 229 624 236 666 c 0
456 666 m 0
 463 708 502 742 543 742 c 0
 584 742 613 708 606 666 c 0
 599 624 560 590 519 590 c 0
 478 590 449 624 456 666 c 0
391 880 m 1
 475 780 l 1
 385 780 l 5
 301 880 l 5
 391 880 l 1
495 780 m 1
 405 780 l 1
 521 880 l 1
 611 880 l 1
 495 780 l 1
EndSplineSet
EndChar

StartChar: uni01DB
Encoding: 475 475 303
Width: 760
VWidth: 0
Flags: HMW
LayerCount: 2
Fore
SplineSet
621 280 m 1
 689 700 l 1
 794 700 l 1
 726 280 l 1
 621 280 l 1
126 280 m 1
 194 700 l 1
 299 700 l 1
 231 280 l 1
 126 280 l 1
621 280 m 5
 726 280 l 1
 698 111 547 -10 378 -10 c 4
 209 -10 98 111 126 280 c 1
 231 280 l 5
 213 171 287 85 394 85 c 4
 501 85 603 171 621 280 c 5
323 846 m 0
 330 888 369 922 410 922 c 0
 451 922 480 888 473 846 c 0
 466 804 426 770 385 770 c 0
 344 770 316 804 323 846 c 0
543 846 m 0
 550 888 589 922 630 922 c 0
 671 922 700 888 693 846 c 0
 686 804 646 770 605 770 c 0
 564 770 536 804 543 846 c 0
486 960 m 1
 389 1100 l 1
 509 1100 l 5
 566 960 l 5
 486 960 l 1
EndSplineSet
EndChar

StartChar: uni01DC
Encoding: 476 476 304
Width: 635
VWidth: 0
Flags: HMW
LayerCount: 2
Fore
SplineSet
103 200 m 1
 155 520 l 1
 260 520 l 1
 211 220 l 1
 103 200 l 1
560 0 m 1
 455 0 l 1
 540 520 l 1
 645 520 l 1
 560 0 l 1
211 220 m 1
 198 141 219 85 319 85 c 0
 408 85 478 140 494 240 c 1
 529 240 l 1
 506 101 412 -10 273 -10 c 0
 134 -10 82 71 103 200 c 1
 211 220 l 1
236 666 m 0
 243 708 282 742 323 742 c 0
 364 742 393 708 386 666 c 0
 379 624 340 590 299 590 c 0
 258 590 229 624 236 666 c 0
456 666 m 0
 463 708 502 742 543 742 c 0
 584 742 613 708 606 666 c 0
 599 624 560 590 519 590 c 0
 478 590 449 624 456 666 c 0
400 780 m 1
 302 920 l 1
 422 920 l 5
 480 780 l 5
 400 780 l 1
EndSplineSet
EndChar

StartChar: uni01DE
Encoding: 478 478 305
Width: 800
VWidth: 0
Flags: HMW
LayerCount: 2
Fore
SplineSet
464 700 m 1
 564 700 l 1
 552 690 l 1
 462 690 l 1
 464 700 l 1
238 270 m 1
 630 270 l 1
 615 175 l 5
 223 175 l 5
 238 270 l 1
660 0 m 1
 462 690 l 1
 564 700 l 1
 770 0 l 1
 660 0 l 1
464 700 m 1
 562 690 l 1
 140 0 l 1
 30 0 l 1
 464 700 l 1
340 846 m 0
 347 888 387 922 428 922 c 0
 469 922 497 888 490 846 c 0
 483 804 444 770 403 770 c 0
 362 770 333 804 340 846 c 0
560 846 m 0
 567 888 607 922 648 922 c 0
 689 922 717 888 710 846 c 0
 703 804 664 770 623 770 c 0
 582 770 553 804 560 846 c 0
405 1040 m 1
 709 1040 l 5
 696 960 l 5
 392 960 l 1
 405 1040 l 1
EndSplineSet
EndChar

StartChar: uni01DF
Encoding: 479 479 306
Width: 580
VWidth: 0
Flags: HMW
LayerCount: 2
Fore
SplineSet
367 322 m 1
 507 322 l 1
 495 248 l 1
 385 248 l 1
 367 322 l 1
459 330 m 1
 471 405 435 435 354 435 c 1
 375 530 l 1
 518 530 584 454 564 330 c 1
 459 330 l 1
354 435 m 1
 300 435 249 422 193 382 c 1
 148 450 l 1
 213 499 273 530 375 530 c 1
 354 435 l 1
459 330 m 1
 564 330 l 1
 510 0 l 1
 405 0 l 1
 459 330 l 1
168 155 m 1
 159 102 204 75 277 75 c 0
 355 75 421 100 434 180 c 1
 469 180 l 1
 451 71 372 -10 233 -10 c 0
 134 -10 42 41 60 150 c 5
 168 155 l 1
367 322 m 1
 385 248 l 1
 276 248 180 230 168 155 c 1
 60 150 l 5
 84 295 230 322 367 322 c 1
212 666 m 0
 219 708 259 742 300 742 c 0
 341 742 369 708 362 666 c 0
 355 624 316 590 275 590 c 0
 234 590 205 624 212 666 c 0
432 666 m 0
 439 708 479 742 520 742 c 0
 561 742 589 708 582 666 c 0
 575 624 536 590 495 590 c 0
 454 590 425 624 432 666 c 0
277 860 m 1
 581 860 l 5
 568 780 l 5
 264 780 l 1
 277 860 l 1
EndSplineSet
EndChar

StartChar: Gcaron
Encoding: 486 486 307
Width: 782
VWidth: 0
Flags: HMW
LayerCount: 2
Fore
SplineSet
772 370 m 5
 756 270 l 5
 479 270 l 5
 495 370 l 5
 772 370 l 5
730 113 m 5
 620 113 l 5
 662 370 l 5
 772 370 l 5
 730 113 l 5
227 350 m 0
 203 204 289 90 440 90 c 4
 523 90 610 120 673 181 c 5
 730 113 l 5
 653 38 539 -10 423 -10 c 4
 218 -10 85 151 117 350 c 0
 149 549 336 710 541 710 c 4
 657 710 735 662 788 587 c 1
 709 519 l 1
 670 575 607 610 524 610 c 4
 373 610 251 496 227 350 c 0
502 870 m 1
 585 770 l 1
 495 770 l 5
 412 870 l 5
 502 870 l 1
605 770 m 1
 515 770 l 1
 632 870 l 1
 722 870 l 1
 605 770 l 1
EndSplineSet
EndChar

StartChar: gcaron
Encoding: 487 487 308
Width: 655
VWidth: 0
Flags: HMW
LayerCount: 2
Fore
SplineSet
517 260 m 0
 535 369 478 435 381 435 c 0
 284 435 210 369 192 260 c 0
 174 151 227 85 324 85 c 0
 421 85 499 151 517 260 c 0
552 260 m 0
 528 111 447 -10 288 -10 c 0
 159 -10 61 101 87 260 c 0
 113 419 247 530 376 530 c 0
 545 530 576 409 552 260 c 0
303 -125 m 1
 287 -220 l 5
 140 -220 66 -172 29 -108 c 5
 106 -42 l 5
 134 -91 200 -125 303 -125 c 1
583 20 m 1
 478 20 l 1
 560 520 l 1
 665 520 l 1
 583 20 l 1
478 20 m 1
 583 20 l 1
 560 -119 426 -220 287 -220 c 5
 303 -125 l 1
 380 -125 462 -79 478 20 c 1
347 690 m 1
 431 590 l 1
 341 590 l 5
 257 690 l 5
 347 690 l 1
451 590 m 1
 361 590 l 1
 477 690 l 1
 567 690 l 1
 451 590 l 1
EndSplineSet
EndChar

StartChar: uni01E8
Encoding: 488 488 309
Width: 745
VWidth: 0
Flags: HMW
LayerCount: 2
Fore
SplineSet
343 413 m 1
 467 413 l 1
 730 0 l 1
 606 0 l 1
 343 413 l 1
669 700 m 1
 794 700 l 1
 234 207 l 1
 132 230 l 1
 669 700 l 1
204 700 m 1
 314 700 l 1
 200 0 l 1
 90 0 l 1
 204 700 l 1
449 870 m 1
 533 770 l 1
 443 770 l 5
 359 870 l 5
 449 870 l 1
553 770 m 1
 463 770 l 1
 579 870 l 1
 669 870 l 1
 553 770 l 1
EndSplineSet
EndChar

StartChar: uni01E9
Encoding: 489 489 310
Width: 615
VWidth: 0
Flags: HMW
LayerCount: 2
Fore
SplineSet
282 291 m 1
 391 311 l 1
 600 0 l 1
 482 0 l 1
 282 291 l 1
539 520 m 1
 665 520 l 1
 198 110 l 1
 125 154 l 1
 539 520 l 1
194 730 m 1
 299 730 l 1
 180 0 l 1
 75 0 l 1
 194 730 l 1
195 890 m 1
 279 790 l 1
 189 790 l 5
 105 890 l 5
 195 890 l 1
299 790 m 1
 209 790 l 1
 325 890 l 1
 415 890 l 1
 299 790 l 1
EndSplineSet
EndChar

StartChar: uni01F0
Encoding: 496 496 311
Width: 270
VWidth: 0
Flags: HMW
LayerCount: 2
Fore
SplineSet
174 520 m 1
 274 520 l 1
 179 -60 l 1
 79 -60 l 1
 174 520 l 1
19 -115 m 5
 10 -210 l 1
 -47 -210 -95 -194 -116 -160 c 1
 -65 -81 l 5
 -51 -100 -24 -115 19 -115 c 5
79 -60 m 1
 179 -60 l 1
 166 -139 99 -210 10 -210 c 1
 19 -115 l 5
 56 -115 72 -100 79 -60 c 1
176 690 m 1
 260 590 l 1
 170 590 l 5
 86 690 l 5
 176 690 l 1
280 590 m 1
 190 590 l 1
 306 690 l 1
 396 690 l 1
 280 590 l 1
EndSplineSet
EndChar

StartChar: uni01F4
Encoding: 500 500 312
Width: 782
VWidth: 0
Flags: HMW
LayerCount: 2
Fore
SplineSet
772 370 m 5
 756 270 l 5
 479 270 l 5
 495 370 l 5
 772 370 l 5
730 113 m 5
 620 113 l 5
 662 370 l 5
 772 370 l 5
 730 113 l 5
227 350 m 0
 203 204 289 90 440 90 c 4
 523 90 610 120 673 181 c 5
 730 113 l 5
 653 38 539 -10 423 -10 c 4
 218 -10 85 151 117 350 c 0
 149 549 336 710 541 710 c 4
 657 710 735 662 788 587 c 1
 709 519 l 1
 670 575 607 610 524 610 c 4
 373 610 251 496 227 350 c 0
590 770 m 1
 510 770 l 5
 613 910 l 5
 733 910 l 1
 590 770 l 1
EndSplineSet
EndChar

StartChar: uni01F5
Encoding: 501 501 313
Width: 655
VWidth: 0
Flags: HMW
LayerCount: 2
Fore
SplineSet
517 260 m 0
 535 369 478 435 381 435 c 0
 284 435 210 369 192 260 c 0
 174 151 227 85 324 85 c 0
 421 85 499 151 517 260 c 0
552 260 m 0
 528 111 447 -10 288 -10 c 0
 159 -10 61 101 87 260 c 0
 113 419 247 530 376 530 c 0
 545 530 576 409 552 260 c 0
303 -125 m 1
 287 -220 l 5
 140 -220 66 -172 29 -108 c 5
 106 -42 l 5
 134 -91 200 -125 303 -125 c 1
583 20 m 1
 478 20 l 1
 560 520 l 1
 665 520 l 1
 583 20 l 1
478 20 m 1
 583 20 l 1
 560 -119 426 -220 287 -220 c 5
 303 -125 l 1
 380 -125 462 -79 478 20 c 1
436 590 m 1
 356 590 l 5
 459 730 l 5
 579 730 l 1
 436 590 l 1
EndSplineSet
EndChar

StartChar: uni01F8
Encoding: 504 504 314
Width: 790
VWidth: 0
Flags: HMW
LayerCount: 2
Fore
SplineSet
700 0 m 1
 600 0 l 1
 604 24 l 1
 702 14 l 1
 700 0 l 1
304 700 m 1
 301 680 l 1
 201 680 l 1
 204 700 l 1
 304 700 l 1
197 660 m 5
 304 700 l 1
 707 40 l 1
 600 0 l 1
 197 660 l 5
704 700 m 1
 814 700 l 1
 700 0 l 1
 593 20 l 1
 704 700 l 1
204 700 m 1
 311 680 l 1
 200 0 l 1
 90 0 l 1
 204 700 l 1
465 770 m 1
 368 910 l 1
 488 910 l 5
 545 770 l 5
 465 770 l 1
EndSplineSet
EndChar

StartChar: uni01F9
Encoding: 505 505 315
Width: 635
VWidth: 0
Flags: HMW
LayerCount: 2
Fore
SplineSet
617 320 m 5
 565 0 l 5
 460 0 l 5
 509 300 l 5
 617 320 l 5
160 520 m 5
 265 520 l 5
 180 0 l 5
 75 0 l 5
 160 520 l 5
509 300 m 5
 522 379 501 435 401 435 c 4
 312 435 242 380 226 280 c 5
 191 280 l 5
 214 419 307 530 446 530 c 4
 585 530 638 449 617 320 c 5
 509 300 l 5
374 590 m 1
 276 730 l 1
 396 730 l 5
 454 590 l 5
 374 590 l 1
EndSplineSet
EndChar

StartChar: Aringacute
Encoding: 506 506 316
Width: 800
VWidth: 0
Flags: HMW
LayerCount: 2
Fore
SplineSet
464 700 m 1
 564 700 l 1
 552 690 l 1
 462 690 l 1
 464 700 l 1
238 270 m 1
 630 270 l 1
 615 175 l 5
 223 175 l 5
 238 270 l 1
660 0 m 1
 462 690 l 1
 564 700 l 1
 770 0 l 1
 660 0 l 1
464 700 m 1
 562 690 l 1
 140 0 l 1
 30 0 l 1
 464 700 l 1
461 760 m 0
 456 731 474 710 503 710 c 0
 532 710 556 731 561 760 c 0
 566 789 548 810 519 810 c 4
 490 810 466 789 461 760 c 0
411 760 m 0
 420 815 473 860 528 860 c 0
 583 860 620 815 611 760 c 0
 602 705 550 660 495 660 c 0
 440 660 402 705 411 760 c 0
584 963 m 1
 504 963 l 5
 607 1103 l 5
 727 1103 l 1
 584 963 l 1
EndSplineSet
EndChar

StartChar: aringacute
Encoding: 507 507 317
Width: 580
VWidth: 0
Flags: HMW
LayerCount: 2
Fore
SplineSet
367 322 m 1
 507 322 l 1
 495 248 l 1
 385 248 l 1
 367 322 l 1
459 330 m 1
 471 405 435 435 354 435 c 1
 375 530 l 1
 518 530 584 454 564 330 c 1
 459 330 l 1
354 435 m 1
 300 435 249 422 193 382 c 1
 148 450 l 1
 213 499 273 530 375 530 c 1
 354 435 l 1
459 330 m 1
 564 330 l 1
 510 0 l 1
 405 0 l 1
 459 330 l 1
168 155 m 1
 159 102 204 75 277 75 c 0
 355 75 421 100 434 180 c 1
 469 180 l 1
 451 71 372 -10 233 -10 c 0
 134 -10 42 41 60 150 c 5
 168 155 l 1
367 322 m 1
 385 248 l 1
 276 248 180 230 168 155 c 1
 60 150 l 5
 84 295 230 322 367 322 c 1
351 690 m 0
 346 661 364 640 393 640 c 0
 422 640 446 661 451 690 c 0
 456 719 439 740 410 740 c 4
 381 740 356 719 351 690 c 0
301 690 m 0
 310 745 363 790 418 790 c 0
 473 790 510 745 501 690 c 0
 492 635 440 590 385 590 c 0
 330 590 292 635 301 690 c 0
467 850 m 1
 387 850 l 5
 490 990 l 5
 610 990 l 1
 467 850 l 1
EndSplineSet
EndChar

StartChar: uni0202
Encoding: 514 514 318
Width: 800
VWidth: 0
Flags: HMW
LayerCount: 2
Fore
SplineSet
464 700 m 1
 564 700 l 1
 552 690 l 1
 462 690 l 1
 464 700 l 1
238 270 m 1
 630 270 l 1
 615 175 l 5
 223 175 l 5
 238 270 l 1
660 0 m 1
 462 690 l 1
 564 700 l 1
 770 0 l 1
 660 0 l 1
464 700 m 1
 562 690 l 1
 140 0 l 1
 30 0 l 1
 464 700 l 1
523 832 m 1
 473 832 434 808 426 760 c 5
 332 766 l 5
 348 865 430 932 539 932 c 1
 523 832 l 1
523 832 m 1
 539 932 l 1
 648 932 708 865 692 766 c 5
 596 760 l 5
 604 808 573 832 523 832 c 1
EndSplineSet
EndChar

StartChar: uni0206
Encoding: 518 518 319
Width: 670
VWidth: 0
Flags: HM
LayerCount: 2
Fore
SplineSet
156 408 m 5
 631 408 l 1
 615 308 l 1
 140 308 l 5
 156 408 l 5
204 700 m 5
 729 700 l 1
 713 600 l 1
 188 600 l 5
 204 700 l 5
106 100 m 5
 631 100 l 1
 615 0 l 1
 90 0 l 5
 106 100 l 5
204 700 m 5
 314 700 l 5
 200 0 l 5
 90 0 l 5
 204 700 l 5
490 832 m 1
 440 832 402 808 394 760 c 5
 300 766 l 5
 316 865 398 932 507 932 c 1
 490 832 l 1
490 832 m 1
 507 932 l 1
 616 932 676 865 660 766 c 5
 564 760 l 5
 572 808 540 832 490 832 c 1
EndSplineSet
EndChar

StartChar: uni0207
Encoding: 519 519 320
Width: 615
VWidth: 0
Flags: HMW
LayerCount: 2
Fore
SplineSet
612 260 m 5
 607 230 l 5
 502 230 l 5
 507 260 l 5
 612 260 l 5
502 230 m 5
 166 230 l 1
 179 307 l 1
 515 307 l 5
 502 230 l 5
507 260 m 5
 525 369 478 435 381 435 c 0
 284 435 215 369 197 260 c 1
 92 260 l 1
 118 419 247 530 396 530 c 4
 545 530 638 419 612 260 c 5
 507 260 l 5
92 260 m 1
 197 260 l 1
 179 151 237 85 334 85 c 0
 398 85 459 108 504 157 c 5
 558 92 l 5
 501 28 415 -10 318 -10 c 4
 159 -10 66 101 92 260 c 1
411 652 m 1
 361 652 322 628 314 580 c 5
 220 586 l 5
 236 685 318 752 427 752 c 1
 411 652 l 1
411 652 m 1
 427 752 l 1
 536 752 596 685 580 586 c 5
 484 580 l 5
 492 628 461 652 411 652 c 1
EndSplineSet
EndChar

StartChar: uni020A
Encoding: 522 522 321
Width: 300
VWidth: 0
Flags: HMW
LayerCount: 2
Fore
SplineSet
209 700 m 1
 319 700 l 5
 205 0 l 5
 95 0 l 1
 209 700 l 1
273 832 m 1
 223 832 184 808 176 760 c 5
 82 766 l 5
 98 865 180 932 289 932 c 1
 273 832 l 1
273 832 m 1
 289 932 l 1
 398 932 458 865 442 766 c 5
 346 760 l 5
 354 808 323 832 273 832 c 1
EndSplineSet
EndChar

StartChar: uni020B
Encoding: 523 523 322
Width: 270
VWidth: 0
Flags: HMW
LayerCount: 2
Fore
SplineSet
170 520 m 1
 270 520 l 1
 185 0 l 1
 85 0 l 1
 170 520 l 1
231 652 m 1
 181 652 142 628 134 580 c 5
 40 586 l 5
 56 685 138 752 247 752 c 1
 231 652 l 1
231 652 m 1
 247 752 l 1
 356 752 416 685 400 586 c 5
 304 580 l 5
 312 628 281 652 231 652 c 1
EndSplineSet
EndChar

StartChar: uni020E
Encoding: 526 526 323
Width: 850
VWidth: 0
Flags: HM
LayerCount: 2
Fore
SplineSet
227 350 m 4
 203 204 289 90 440 90 c 4
 591 90 713 204 737 350 c 4
 761 496 675 610 524 610 c 4
 373 610 251 496 227 350 c 4
117 350 m 4
 149 549 336 710 541 710 c 4
 746 710 879 549 847 350 c 4
 815 151 628 -10 423 -10 c 4
 218 -10 85 151 117 350 c 4
560 832 m 1
 510 832 472 808 464 760 c 5
 370 766 l 5
 386 865 468 932 577 932 c 1
 560 832 l 1
560 832 m 1
 577 932 l 1
 686 932 746 865 730 766 c 5
 634 760 l 5
 642 808 610 832 560 832 c 1
EndSplineSet
EndChar

StartChar: uni020F
Encoding: 527 527 324
Width: 650
VWidth: 0
Flags: HM
LayerCount: 2
Fore
SplineSet
197 260 m 0
 181 161 232 85 339 85 c 0
 446 85 521 161 537 260 c 0
 553 359 503 435 396 435 c 0
 289 435 213 359 197 260 c 0
92 260 m 0
 116 409 252 530 411 530 c 0
 570 530 666 409 642 260 c 0
 618 111 482 -10 323 -10 c 0
 164 -10 68 111 92 260 c 0
431 652 m 1
 381 652 342 628 334 580 c 5
 240 586 l 5
 256 685 338 752 447 752 c 1
 431 652 l 1
431 652 m 1
 447 752 l 1
 556 752 616 685 600 586 c 5
 504 580 l 5
 512 628 481 652 431 652 c 1
EndSplineSet
EndChar

StartChar: uni0212
Encoding: 530 530 325
Width: 718
VWidth: 0
Flags: HMW
LayerCount: 2
Fore
SplineSet
442 348 m 5
 530 348 598 397 610 472 c 4
 622 547 571 600 483 600 c 5
 499 700 l 5
 638 700 742 607 720 472 c 4
 698 338 564 248 425 248 c 5
 442 348 l 5
204 700 m 1
 314 700 l 1
 200 0 l 1
 90 0 l 1
 204 700 l 1
229 700 m 1
 499 700 l 5
 483 600 l 5
 213 600 l 1
 229 700 l 1
172 348 m 1
 442 348 l 5
 425 248 l 5
 155 248 l 1
 172 348 l 1
375 320 m 5
 500 320 l 5
 688 0 l 5
 563 0 l 5
 375 320 l 5
473 832 m 1
 423 832 384 808 376 760 c 5
 282 766 l 5
 298 865 380 932 489 932 c 1
 473 832 l 1
473 832 m 1
 489 932 l 1
 598 932 658 865 642 766 c 5
 546 760 l 5
 554 808 523 832 473 832 c 1
EndSplineSet
EndChar

StartChar: uni0213
Encoding: 531 531 326
Width: 410
VWidth: 0
Flags: HMW
LayerCount: 2
Fore
SplineSet
160 520 m 5
 265 520 l 5
 180 0 l 5
 75 0 l 5
 160 520 l 5
449 425 m 1
 429 425 l 2
 315 425 242 380 224 270 c 5
 189 270 l 5
 212 409 296 520 465 520 c 1
 449 425 l 1
336 652 m 1
 286 652 247 628 239 580 c 5
 145 586 l 5
 161 685 243 752 352 752 c 1
 336 652 l 1
336 652 m 1
 352 752 l 1
 461 752 521 685 505 586 c 5
 409 580 l 5
 417 628 386 652 336 652 c 1
EndSplineSet
EndChar

StartChar: uni0216
Encoding: 534 534 327
Width: 760
VWidth: 0
Flags: HMW
LayerCount: 2
Fore
SplineSet
621 280 m 1
 689 700 l 1
 794 700 l 1
 726 280 l 1
 621 280 l 1
126 280 m 1
 194 700 l 1
 299 700 l 1
 231 280 l 1
 126 280 l 1
621 280 m 5
 726 280 l 1
 698 111 547 -10 378 -10 c 4
 209 -10 98 111 126 280 c 1
 231 280 l 5
 213 171 287 85 394 85 c 4
 501 85 603 171 621 280 c 5
506 832 m 1
 456 832 417 808 409 760 c 5
 315 766 l 5
 331 865 413 932 522 932 c 1
 506 832 l 1
506 832 m 1
 522 932 l 1
 631 932 691 865 675 766 c 5
 579 760 l 5
 587 808 556 832 506 832 c 1
EndSplineSet
EndChar

StartChar: uni0217
Encoding: 535 535 328
Width: 635
VWidth: 0
Flags: HMW
LayerCount: 2
Fore
SplineSet
103 200 m 1
 155 520 l 1
 260 520 l 1
 211 220 l 1
 103 200 l 1
560 0 m 1
 455 0 l 1
 540 520 l 1
 645 520 l 1
 560 0 l 1
211 220 m 1
 198 141 219 85 319 85 c 0
 408 85 478 140 494 240 c 1
 529 240 l 1
 506 101 412 -10 273 -10 c 0
 134 -10 82 71 103 200 c 1
 211 220 l 1
419 652 m 1
 369 652 330 628 322 580 c 5
 228 586 l 5
 244 685 326 752 435 752 c 1
 419 652 l 1
419 652 m 1
 435 752 l 1
 544 752 604 685 588 586 c 5
 492 580 l 5
 500 628 469 652 419 652 c 1
EndSplineSet
EndChar

StartChar: uni0218
Encoding: 536 536 329
Width: 625
VWidth: 0
Flags: HM
LayerCount: 2
Fore
SplineSet
496 190 m 1
 602 195 l 1
 583 76 485 -10 326 -10 c 0
 197 -10 116 56 63 113 c 1
 135 190 l 1
 176 146 233 85 341 85 c 4
 439 85 486 130 496 190 c 1
268 519 m 1
 162 514 l 1
 180 625 292 710 431 710 c 0
 550 710 610 674 654 622 c 1
 585 549 l 1
 547 593 493 615 425 615 c 0
 327 615 276 566 268 519 c 1
406 406 m 0
 539 384 623 327 602 195 c 1
 496 190 l 1
 509 269 458 300 352 317 c 0
 222 338 144 406 162 514 c 5
 268 519 l 1
 257 454 310 422 406 406 c 0
271 -124 m 0
 278 -82 317 -48 358 -48 c 0
 409 -48 433 -82 426 -124 c 0
 424 -138 409 -160 398 -173 c 2
 279 -320 l 1
 209 -320 l 1
 304 -188 l 5
 282 -181 267 -151 271 -124 c 0
EndSplineSet
EndChar

StartChar: uni0219
Encoding: 537 537 330
Width: 520
VWidth: 0
Flags: HM
LayerCount: 2
Fore
SplineSet
394 145 m 1
 500 152 l 1
 486 63 414 -10 266 -10 c 0
 157 -10 99 37 55 104 c 1
 142 166 l 1
 180 116 221 85 289 85 c 0
 342 85 387 105 394 145 c 1
240 381 m 1
 132 381 l 1
 146 467 229 530 346 530 c 0
 455 530 502 496 536 448 c 5
 458 380 l 1
 431 412 388 433 326 433 c 0
 268 433 244 403 240 381 c 1
344 314 m 0
 458 294 518 262 500 152 c 1
 394 145 l 1
 399 178 388 209 288 226 c 0
 188 243 116 283 132 381 c 1
 240 381 l 1
 235 351 259 329 344 314 c 0
218 -124 m 0
 225 -82 264 -48 305 -48 c 0
 356 -48 380 -82 373 -124 c 0
 371 -138 356 -160 345 -173 c 2
 226 -320 l 1
 156 -320 l 1
 251 -188 l 5
 229 -181 214 -151 218 -124 c 0
EndSplineSet
EndChar

StartChar: uni021A
Encoding: 538 538 331
Width: 690
VWidth: 0
Flags: HMW
LayerCount: 2
Fore
SplineSet
154 700 m 1
 764 700 l 5
 748 600 l 5
 138 600 l 1
 154 700 l 1
404 700 m 1
 514 700 l 1
 400 0 l 1
 290 0 l 1
 404 700 l 1
287 -114 m 0
 294 -72 333 -38 374 -38 c 0
 425 -38 449 -72 442 -114 c 0
 440 -128 425 -150 414 -163 c 2
 295 -310 l 1
 225 -310 l 1
 321 -178 l 5
 299 -171 283 -141 287 -114 c 0
EndSplineSet
EndChar

StartChar: uni021B
Encoding: 539 539 332
Width: 430
VWidth: 0
Flags: HMW
LayerCount: 2
Fore
SplineSet
120 520 m 5
 465 520 l 1
 449 425 l 1
 104 425 l 5
 120 520 l 5
233 140 m 5
 128 140 l 5
 215 673 l 5
 320 673 l 5
 233 140 l 5
288 85 m 1
 322 85 349 96 369 115 c 1
 409 42 l 1
 377 13 328 -10 266 -10 c 1
 288 85 l 1
233 140 m 5
 228 110 250 85 288 85 c 1
 266 -10 l 5
 167 -10 115 61 128 140 c 5
 233 140 l 5
199 -124 m 0
 206 -82 245 -48 286 -48 c 0
 337 -48 361 -82 354 -124 c 0
 352 -138 337 -160 326 -173 c 2
 207 -320 l 1
 137 -320 l 1
 232 -188 l 5
 210 -181 195 -151 199 -124 c 0
EndSplineSet
EndChar

StartChar: uni021E
Encoding: 542 542 333
Width: 765
VWidth: 0
Flags: HMW
LayerCount: 2
Fore
SplineSet
679 700 m 5
 789 700 l 5
 675 0 l 5
 565 0 l 5
 679 700 l 5
156 408 m 1
 686 408 l 5
 670 308 l 5
 140 308 l 1
 156 408 l 1
204 700 m 1
 314 700 l 1
 200 0 l 1
 90 0 l 1
 204 700 l 1
457 870 m 1
 540 770 l 1
 450 770 l 5
 367 870 l 5
 457 870 l 1
560 770 m 1
 470 770 l 1
 587 870 l 1
 677 870 l 1
 560 770 l 1
EndSplineSet
EndChar

StartChar: uni021F
Encoding: 543 543 334
Width: 635
VWidth: 0
Flags: HMW
LayerCount: 2
Fore
SplineSet
617 320 m 5
 565 0 l 5
 460 0 l 5
 509 300 l 5
 617 320 l 5
194 730 m 5
 299 730 l 5
 180 0 l 5
 75 0 l 5
 194 730 l 5
509 300 m 5
 522 379 501 435 401 435 c 4
 312 435 242 380 226 280 c 5
 191 280 l 5
 214 419 307 530 446 530 c 4
 585 530 638 449 617 320 c 5
 509 300 l 5
397 890 m 1
 481 790 l 1
 391 790 l 5
 307 890 l 5
 397 890 l 1
501 790 m 1
 411 790 l 1
 527 890 l 1
 617 890 l 1
 501 790 l 1
EndSplineSet
EndChar

StartChar: uni0226
Encoding: 550 550 335
Width: 800
VWidth: 0
Flags: HMW
LayerCount: 2
Fore
SplineSet
464 700 m 1
 564 700 l 1
 552 690 l 1
 462 690 l 1
 464 700 l 1
238 270 m 1
 630 270 l 1
 615 175 l 5
 223 175 l 5
 238 270 l 1
660 0 m 1
 462 690 l 1
 564 700 l 1
 770 0 l 1
 660 0 l 1
464 700 m 1
 562 690 l 1
 140 0 l 1
 30 0 l 1
 464 700 l 1
450 846 m 0
 457 888 497 922 538 922 c 0
 579 922 607 888 600 846 c 0
 593 804 554 770 513 770 c 0
 472 770 443 804 450 846 c 0
EndSplineSet
EndChar

StartChar: uni0227
Encoding: 551 551 336
Width: 580
VWidth: 0
Flags: HMW
LayerCount: 2
Fore
SplineSet
367 322 m 1
 507 322 l 1
 495 248 l 1
 385 248 l 1
 367 322 l 1
459 330 m 1
 471 405 435 435 354 435 c 1
 375 530 l 1
 518 530 584 454 564 330 c 1
 459 330 l 1
354 435 m 1
 300 435 249 422 193 382 c 1
 148 450 l 1
 213 499 273 530 375 530 c 1
 354 435 l 1
459 330 m 1
 564 330 l 1
 510 0 l 1
 405 0 l 1
 459 330 l 1
168 155 m 1
 159 102 204 75 277 75 c 0
 355 75 421 100 434 180 c 1
 469 180 l 1
 451 71 372 -10 233 -10 c 0
 134 -10 42 41 60 150 c 5
 168 155 l 1
367 322 m 1
 385 248 l 1
 276 248 180 230 168 155 c 1
 60 150 l 5
 84 295 230 322 367 322 c 1
322 666 m 0
 329 708 369 742 410 742 c 0
 451 742 479 708 472 666 c 0
 465 624 426 590 385 590 c 0
 344 590 315 624 322 666 c 0
EndSplineSet
EndChar

StartChar: uni0228
Encoding: 552 552 337
Width: 670
VWidth: 0
Flags: HM
LayerCount: 2
Fore
SplineSet
156 408 m 5
 631 408 l 1
 615 308 l 1
 140 308 l 5
 156 408 l 5
204 700 m 5
 729 700 l 1
 713 600 l 1
 188 600 l 5
 204 700 l 5
106 100 m 5
 631 100 l 1
 615 0 l 1
 90 0 l 5
 106 100 l 5
204 700 m 5
 314 700 l 5
 200 0 l 5
 90 0 l 5
 204 700 l 5
336 7 m 1
 376 7 l 1
 420 -27 489 -67 480 -125 c 0
 471 -182 443 -217 366 -217 c 0
 329 -217 293 -203 274 -188 c 1
 304 -128 l 5
 318 -141 339 -153 359 -153 c 0
 390 -153 405 -144 409 -122 c 0
 415 -87 377 -32 336 7 c 1
EndSplineSet
EndChar

StartChar: uni0229
Encoding: 553 553 338
Width: 615
VWidth: 0
Flags: HMW
LayerCount: 2
Fore
SplineSet
612 260 m 5
 607 230 l 5
 502 230 l 5
 507 260 l 5
 612 260 l 5
502 230 m 5
 166 230 l 1
 179 307 l 1
 515 307 l 5
 502 230 l 5
507 260 m 5
 525 369 478 435 381 435 c 0
 284 435 215 369 197 260 c 1
 92 260 l 1
 118 419 247 530 396 530 c 4
 545 530 638 419 612 260 c 5
 507 260 l 5
92 260 m 1
 197 260 l 1
 179 151 237 85 334 85 c 0
 398 85 459 108 504 157 c 5
 558 92 l 5
 501 28 415 -10 318 -10 c 4
 159 -10 66 101 92 260 c 1
295 -3 m 1
 335 -3 l 1
 379 -37 447 -77 438 -135 c 0
 429 -192 401 -227 324 -227 c 0
 287 -227 252 -213 233 -198 c 1
 263 -138 l 5
 277 -151 297 -163 317 -163 c 0
 348 -163 364 -154 368 -132 c 0
 374 -97 336 -42 295 -3 c 1
EndSplineSet
EndChar

StartChar: uni022A
Encoding: 554 554 339
Width: 850
VWidth: 0
Flags: HM
LayerCount: 2
Fore
SplineSet
227 350 m 4
 203 204 289 90 440 90 c 4
 591 90 713 204 737 350 c 4
 761 496 675 610 524 610 c 4
 373 610 251 496 227 350 c 4
117 350 m 4
 149 549 336 710 541 710 c 4
 746 710 879 549 847 350 c 4
 815 151 628 -10 423 -10 c 4
 218 -10 85 151 117 350 c 4
378 846 m 0
 385 888 424 922 465 922 c 0
 506 922 535 888 528 846 c 0
 521 804 481 770 440 770 c 0
 399 770 371 804 378 846 c 0
598 846 m 0
 605 888 644 922 685 922 c 0
 726 922 755 888 748 846 c 0
 741 804 701 770 660 770 c 0
 619 770 591 804 598 846 c 0
442 1040 m 1
 746 1040 l 5
 733 960 l 5
 429 960 l 1
 442 1040 l 1
EndSplineSet
EndChar

StartChar: uni022B
Encoding: 555 555 340
Width: 650
VWidth: 0
Flags: HM
LayerCount: 2
Fore
SplineSet
197 260 m 0
 181 161 232 85 339 85 c 0
 446 85 521 161 537 260 c 0
 553 359 503 435 396 435 c 0
 289 435 213 359 197 260 c 0
92 260 m 0
 116 409 252 530 411 530 c 0
 570 530 666 409 642 260 c 0
 618 111 482 -10 323 -10 c 0
 164 -10 68 111 92 260 c 0
248 666 m 0
 255 708 295 742 336 742 c 0
 377 742 405 708 398 666 c 0
 391 624 352 590 311 590 c 0
 270 590 241 624 248 666 c 0
468 666 m 0
 475 708 515 742 556 742 c 0
 597 742 625 708 618 666 c 0
 611 624 572 590 531 590 c 0
 490 590 461 624 468 666 c 0
313 860 m 1
 617 860 l 5
 604 780 l 5
 300 780 l 1
 313 860 l 1
EndSplineSet
EndChar

StartChar: uni022C
Encoding: 556 556 341
Width: 850
VWidth: 0
Flags: HM
LayerCount: 2
Fore
SplineSet
227 350 m 4
 203 204 289 90 440 90 c 4
 591 90 713 204 737 350 c 4
 761 496 675 610 524 610 c 4
 373 610 251 496 227 350 c 4
117 350 m 4
 149 549 336 710 541 710 c 4
 746 710 879 549 847 350 c 4
 815 151 628 -10 423 -10 c 4
 218 -10 85 151 117 350 c 4
430 770 m 1
 353 790 l 5
 370 868 435 907 486 907 c 0
 550 907 598 863 642 863 c 4
 677 863 697 873 703 910 c 1
 780 890 l 1
 761 802 690 773 640 773 c 0
 578 773 533 817 490 817 c 4
 456 817 436 807 430 770 c 1
574 1050 m 1
 878 1050 l 5
 865 970 l 5
 561 970 l 1
 574 1050 l 1
EndSplineSet
EndChar

StartChar: uni022D
Encoding: 557 557 342
Width: 650
VWidth: 0
Flags: HM
LayerCount: 2
Fore
SplineSet
197 260 m 0
 181 161 232 85 339 85 c 0
 446 85 521 161 537 260 c 0
 553 359 503 435 396 435 c 0
 289 435 213 359 197 260 c 0
92 260 m 0
 116 409 252 530 411 530 c 0
 570 530 666 409 642 260 c 0
 618 111 482 -10 323 -10 c 0
 164 -10 68 111 92 260 c 0
301 590 m 1
 223 610 l 5
 240 688 306 727 357 727 c 0
 421 727 469 683 513 683 c 4
 548 683 568 693 574 730 c 1
 651 710 l 1
 632 622 560 593 510 593 c 0
 448 593 404 637 361 637 c 4
 327 637 307 627 301 590 c 1
315 870 m 1
 619 870 l 5
 606 790 l 5
 302 790 l 1
 315 870 l 1
EndSplineSet
EndChar

StartChar: uni022E
Encoding: 558 558 343
Width: 850
VWidth: 0
Flags: HM
LayerCount: 2
Fore
SplineSet
227 350 m 4
 203 204 289 90 440 90 c 4
 591 90 713 204 737 350 c 4
 761 496 675 610 524 610 c 4
 373 610 251 496 227 350 c 4
117 350 m 4
 149 549 336 710 541 710 c 4
 746 710 879 549 847 350 c 4
 815 151 628 -10 423 -10 c 4
 218 -10 85 151 117 350 c 4
488 846 m 0
 495 888 534 922 575 922 c 0
 616 922 645 888 638 846 c 0
 631 804 591 770 550 770 c 0
 509 770 481 804 488 846 c 0
EndSplineSet
EndChar

StartChar: uni022F
Encoding: 559 559 344
Width: 650
VWidth: 0
Flags: HM
LayerCount: 2
Fore
SplineSet
197 260 m 0
 181 161 232 85 339 85 c 0
 446 85 521 161 537 260 c 0
 553 359 503 435 396 435 c 0
 289 435 213 359 197 260 c 0
92 260 m 0
 116 409 252 530 411 530 c 0
 570 530 666 409 642 260 c 0
 618 111 482 -10 323 -10 c 0
 164 -10 68 111 92 260 c 0
358 666 m 0
 365 708 405 742 446 742 c 0
 487 742 515 708 508 666 c 0
 501 624 462 590 421 590 c 0
 380 590 351 624 358 666 c 0
EndSplineSet
EndChar

StartChar: uni0230
Encoding: 560 560 345
Width: 850
VWidth: 0
Flags: HM
LayerCount: 2
Fore
SplineSet
227 350 m 4
 203 204 289 90 440 90 c 4
 591 90 713 204 737 350 c 4
 761 496 675 610 524 610 c 4
 373 610 251 496 227 350 c 4
117 350 m 4
 149 549 336 710 541 710 c 4
 746 710 879 549 847 350 c 4
 815 151 628 -10 423 -10 c 4
 218 -10 85 151 117 350 c 4
488 846 m 0
 495 888 534 922 575 922 c 0
 616 922 645 888 638 846 c 0
 631 804 591 770 550 770 c 0
 509 770 481 804 488 846 c 0
442 1040 m 1
 746 1040 l 5
 733 960 l 5
 429 960 l 1
 442 1040 l 1
EndSplineSet
EndChar

StartChar: uni0231
Encoding: 561 561 346
Width: 650
VWidth: 0
Flags: HM
LayerCount: 2
Fore
SplineSet
197 260 m 0
 181 161 232 85 339 85 c 0
 446 85 521 161 537 260 c 0
 553 359 503 435 396 435 c 0
 289 435 213 359 197 260 c 0
92 260 m 0
 116 409 252 530 411 530 c 0
 570 530 666 409 642 260 c 0
 618 111 482 -10 323 -10 c 0
 164 -10 68 111 92 260 c 0
358 666 m 0
 365 708 405 742 446 742 c 0
 487 742 515 708 508 666 c 0
 501 624 462 590 421 590 c 0
 380 590 351 624 358 666 c 0
313 860 m 1
 617 860 l 5
 604 780 l 5
 300 780 l 1
 313 860 l 1
EndSplineSet
EndChar

StartChar: uni0232
Encoding: 562 562 347
Width: 680
VWidth: 0
Flags: HMW
LayerCount: 2
Fore
SplineSet
333 295 m 1
 443 295 l 1
 395 0 l 1
 285 0 l 1
 333 295 l 1
134 700 m 1
 254 700 l 1
 443 295 l 1
 360 217 l 1
 134 700 l 1
654 700 m 1
 774 700 l 1
 390 217 l 1
 333 295 l 1
 654 700 l 1
314 850 m 1
 618 850 l 5
 605 770 l 5
 301 770 l 1
 314 850 l 1
EndSplineSet
EndChar

StartChar: uni0233
Encoding: 563 563 348
Width: 579
VWidth: 0
Flags: HMW
LayerCount: 2
Fore
SplineSet
114 520 m 5
 224 520 l 5
 365 5 l 5
 259 0 l 5
 114 520 l 5
144 -115 m 5
 135 -210 l 5
 78 -210 32 -184 11 -150 c 5
 74 -77 l 5
 88 -96 110 -115 144 -115 c 5
224 -60 m 6
 534 520 l 5
 639 520 l 5
 329 -60 l 6
 287 -140 224 -210 135 -210 c 5
 144 -115 l 5
 172 -115 203 -100 224 -60 c 6
241 670 m 1
 545 670 l 5
 532 590 l 5
 228 590 l 1
 241 670 l 1
EndSplineSet
EndChar

StartChar: uni0237
Encoding: 567 567 349
Width: 270
VWidth: 0
Flags: HMW
LayerCount: 2
Fore
SplineSet
174 520 m 1
 274 520 l 1
 179 -60 l 1
 79 -60 l 1
 174 520 l 1
19 -115 m 5
 10 -210 l 1
 -47 -210 -95 -194 -116 -160 c 1
 -65 -81 l 5
 -51 -100 -24 -115 19 -115 c 5
79 -60 m 1
 179 -60 l 1
 166 -139 99 -210 10 -210 c 1
 19 -115 l 5
 56 -115 72 -100 79 -60 c 1
EndSplineSet
EndChar

StartChar: uni1E00
Encoding: 7680 7680 350
Width: 800
VWidth: 0
Flags: HMW
LayerCount: 2
Fore
SplineSet
464 700 m 1
 564 700 l 1
 552 690 l 1
 462 690 l 1
 464 700 l 1
238 270 m 1
 630 270 l 1
 615 175 l 5
 223 175 l 5
 238 270 l 1
660 0 m 1
 462 690 l 1
 564 700 l 1
 770 0 l 1
 660 0 l 1
464 700 m 1
 562 690 l 1
 140 0 l 1
 30 0 l 1
 464 700 l 1
311 -160 m 0
 306 -189 324 -210 353 -210 c 0
 382 -210 406 -189 411 -160 c 0
 416 -131 399 -110 370 -110 c 4
 341 -110 316 -131 311 -160 c 0
261 -160 m 0
 270 -105 323 -60 378 -60 c 0
 433 -60 470 -105 461 -160 c 0
 452 -215 400 -260 345 -260 c 0
 290 -260 252 -215 261 -160 c 0
EndSplineSet
EndChar

StartChar: uni1E01
Encoding: 7681 7681 351
Width: 580
VWidth: 0
Flags: HMW
LayerCount: 2
Fore
SplineSet
367 322 m 1
 507 322 l 1
 495 248 l 1
 385 248 l 1
 367 322 l 1
459 330 m 1
 471 405 435 435 354 435 c 1
 375 530 l 1
 518 530 584 454 564 330 c 1
 459 330 l 1
354 435 m 1
 300 435 249 422 193 382 c 1
 148 450 l 1
 213 499 273 530 375 530 c 1
 354 435 l 1
459 330 m 1
 564 330 l 1
 510 0 l 1
 405 0 l 1
 459 330 l 1
168 155 m 1
 159 102 204 75 277 75 c 0
 355 75 421 100 434 180 c 1
 469 180 l 1
 451 71 372 -10 233 -10 c 0
 134 -10 42 41 60 150 c 5
 168 155 l 1
367 322 m 1
 385 248 l 1
 276 248 180 230 168 155 c 1
 60 150 l 5
 84 295 230 322 367 322 c 1
167 -170 m 0
 162 -199 180 -220 209 -220 c 0
 238 -220 262 -199 267 -170 c 0
 272 -141 254 -120 225 -120 c 4
 196 -120 172 -141 167 -170 c 0
117 -170 m 0
 126 -115 179 -70 234 -70 c 0
 289 -70 326 -115 317 -170 c 0
 308 -225 256 -270 201 -270 c 0
 146 -270 108 -225 117 -170 c 0
EndSplineSet
EndChar

StartChar: uni1E02
Encoding: 7682 7682 352
Width: 695
VWidth: 0
Flags: HM
LayerCount: 2
Fore
SplineSet
426 408 m 1
 509 408 558 427 570 502 c 0
 582 577 541 600 458 600 c 1
 474 700 l 1
 603 700 702 636 680 502 c 0
 658 369 544 340 415 340 c 1
 426 408 l 1
204 700 m 5
 314 700 l 5
 200 0 l 5
 90 0 l 5
 204 700 l 5
106 100 m 5
 416 100 l 1
 400 0 l 1
 90 0 l 5
 106 100 l 5
204 700 m 5
 474 700 l 1
 458 600 l 1
 188 600 l 5
 204 700 l 5
156 408 m 5
 466 408 l 1
 450 308 l 1
 140 308 l 5
 156 408 l 5
416 100 m 1
 499 100 555 120 568 200 c 0
 581 280 533 308 450 308 c 1
 461 375 l 1
 590 375 701 339 678 200 c 0
 655 61 529 0 400 0 c 1
 416 100 l 1
433 846 m 0
 440 888 479 922 520 922 c 0
 561 922 590 888 583 846 c 0
 576 804 536 770 495 770 c 0
 454 770 426 804 433 846 c 0
EndSplineSet
EndChar

StartChar: uni1E03
Encoding: 7683 7683 353
Width: 655
VWidth: 0
Flags: HMW
LayerCount: 2
Fore
SplineSet
222 260 m 4
 204 151 262 85 359 85 c 4
 456 85 529 151 547 260 c 4
 565 369 513 435 416 435 c 4
 319 435 240 369 222 260 c 4
187 260 m 4
 211 409 282 530 451 530 c 4
 580 530 678 419 652 260 c 4
 626 101 492 -10 363 -10 c 4
 204 -10 163 111 187 260 c 4
194 730 m 5
 299 730 l 5
 180 0 l 5
 75 0 l 5
 194 730 l 5
196 866 m 0
 203 908 242 942 283 942 c 0
 324 942 353 908 346 866 c 0
 339 824 300 790 259 790 c 0
 218 790 189 824 196 866 c 0
EndSplineSet
EndChar

StartChar: uni1E04
Encoding: 7684 7684 354
Width: 695
VWidth: 0
Flags: HM
LayerCount: 2
Fore
SplineSet
426 408 m 1
 509 408 558 427 570 502 c 0
 582 577 541 600 458 600 c 1
 474 700 l 1
 603 700 702 636 680 502 c 0
 658 369 544 340 415 340 c 1
 426 408 l 1
204 700 m 5
 314 700 l 5
 200 0 l 5
 90 0 l 5
 204 700 l 5
106 100 m 5
 416 100 l 1
 400 0 l 1
 90 0 l 5
 106 100 l 5
204 700 m 5
 474 700 l 1
 458 600 l 1
 188 600 l 5
 204 700 l 5
156 408 m 5
 466 408 l 1
 450 308 l 1
 140 308 l 5
 156 408 l 5
416 100 m 1
 499 100 555 120 568 200 c 0
 581 280 533 308 450 308 c 1
 461 375 l 1
 590 375 701 339 678 200 c 0
 655 61 529 0 400 0 c 1
 416 100 l 1
234 -114 m 0
 241 -72 280 -38 321 -38 c 0
 362 -38 391 -72 384 -114 c 0
 377 -156 338 -190 297 -190 c 0
 256 -190 227 -156 234 -114 c 0
EndSplineSet
EndChar

StartChar: uni1E05
Encoding: 7685 7685 355
Width: 655
VWidth: 0
Flags: HMW
LayerCount: 2
Fore
SplineSet
222 260 m 4
 204 151 262 85 359 85 c 4
 456 85 529 151 547 260 c 4
 565 369 513 435 416 435 c 4
 319 435 240 369 222 260 c 4
187 260 m 4
 211 409 282 530 451 530 c 4
 580 530 678 419 652 260 c 4
 626 101 492 -10 363 -10 c 4
 204 -10 163 111 187 260 c 4
194 730 m 5
 299 730 l 5
 180 0 l 5
 75 0 l 5
 194 730 l 5
255 -124 m 0
 262 -82 301 -48 342 -48 c 0
 383 -48 412 -82 405 -124 c 0
 398 -166 358 -200 317 -200 c 0
 276 -200 248 -166 255 -124 c 0
EndSplineSet
EndChar

StartChar: uni1E06
Encoding: 7686 7686 356
Width: 695
VWidth: 0
Flags: HM
LayerCount: 2
Fore
SplineSet
426 408 m 1
 509 408 558 427 570 502 c 0
 582 577 541 600 458 600 c 1
 474 700 l 1
 603 700 702 636 680 502 c 0
 658 369 544 340 415 340 c 1
 426 408 l 1
204 700 m 5
 314 700 l 5
 200 0 l 5
 90 0 l 5
 204 700 l 5
106 100 m 5
 416 100 l 1
 400 0 l 1
 90 0 l 5
 106 100 l 5
204 700 m 5
 474 700 l 1
 458 600 l 1
 188 600 l 5
 204 700 l 5
156 408 m 5
 466 408 l 1
 450 308 l 1
 140 308 l 5
 156 408 l 5
416 100 m 1
 499 100 555 120 568 200 c 0
 581 280 533 308 450 308 c 1
 461 375 l 1
 590 375 701 339 678 200 c 0
 655 61 529 0 400 0 c 1
 416 100 l 1
86 -60 m 1
 390 -60 l 5
 377 -140 l 5
 73 -140 l 1
 86 -60 l 1
EndSplineSet
EndChar

StartChar: uni1E07
Encoding: 7687 7687 357
Width: 655
VWidth: 0
Flags: HMW
LayerCount: 2
Fore
SplineSet
222 260 m 4
 204 151 262 85 359 85 c 4
 456 85 529 151 547 260 c 4
 565 369 513 435 416 435 c 4
 319 435 240 369 222 260 c 4
187 260 m 4
 211 409 282 530 451 530 c 4
 580 530 678 419 652 260 c 4
 626 101 492 -10 363 -10 c 4
 204 -10 163 111 187 260 c 4
194 730 m 5
 299 730 l 5
 180 0 l 5
 75 0 l 5
 194 730 l 5
187 -70 m 1
 491 -70 l 5
 478 -150 l 5
 174 -150 l 1
 187 -70 l 1
EndSplineSet
EndChar

StartChar: uni1E08
Encoding: 7688 7688 358
Width: 732
VWidth: 0
Flags: HM
LayerCount: 2
Fore
SplineSet
227 350 m 0
 203 204 289 90 440 90 c 0
 523 90 606 125 663 181 c 1
 720 113 l 1
 643 38 539 -10 423 -10 c 4
 218 -10 85 151 117 350 c 0
 149 549 336 710 541 710 c 4
 657 710 745 662 798 587 c 1
 719 519 l 1
 680 575 607 610 524 610 c 0
 373 610 251 496 227 350 c 0
405 -3 m 1
 445 -3 l 1
 489 -37 557 -77 548 -135 c 0
 539 -192 511 -227 434 -227 c 0
 397 -227 362 -213 343 -198 c 1
 373 -138 l 5
 387 -151 407 -163 427 -163 c 0
 458 -163 474 -154 478 -132 c 0
 484 -97 446 -42 405 -3 c 1
590 770 m 1
 510 770 l 5
 613 910 l 5
 733 910 l 1
 590 770 l 1
EndSplineSet
EndChar

StartChar: uni1E09
Encoding: 7689 7689 359
Width: 573
VWidth: 0
Flags: HM
LayerCount: 2
Fore
SplineSet
192 260 m 0
 176 161 232 85 339 85 c 0
 398 85 461 114 500 158 c 5
 553 92 l 1
 496 28 420 -10 323 -10 c 0
 164 -10 63 111 87 260 c 0
 111 409 252 530 411 530 c 0
 508 530 570 491 607 428 c 1
 533 361 l 1
 508 405 455 435 396 435 c 0
 289 435 208 359 192 260 c 0
305 -3 m 1
 345 -3 l 1
 389 -37 457 -77 448 -135 c 0
 439 -192 411 -227 334 -227 c 0
 297 -227 262 -213 243 -198 c 1
 273 -138 l 5
 287 -151 307 -163 327 -163 c 0
 358 -163 374 -154 378 -132 c 0
 384 -97 346 -42 305 -3 c 1
461 590 m 1
 381 590 l 5
 484 730 l 5
 604 730 l 1
 461 590 l 1
EndSplineSet
EndChar

StartChar: uni1E0A
Encoding: 7690 7690 360
Width: 810
VWidth: 0
Flags: HMW
LayerCount: 2
Fore
SplineSet
204 700 m 1
 494 700 l 1
 478 600 l 1
 188 600 l 1
 204 700 l 1
106 100 m 1
 396 100 l 1
 380 0 l 1
 90 0 l 1
 106 100 l 1
204 700 m 1
 314 700 l 1
 200 0 l 1
 90 0 l 1
 204 700 l 1
396 100 m 5
 547 100 673 204 697 350 c 4
 721 496 629 600 478 600 c 5
 494 700 l 5
 699 700 839 549 807 350 c 4
 775 151 585 0 380 0 c 5
 396 100 l 5
460 846 m 0
 467 888 507 922 548 922 c 0
 589 922 617 888 610 846 c 0
 603 804 564 770 523 770 c 0
 482 770 453 804 460 846 c 0
EndSplineSet
EndChar

StartChar: uni1E0B
Encoding: 7691 7691 361
Width: 655
VWidth: 0
Flags: HMW
LayerCount: 2
Fore
SplineSet
517 260 m 4
 535 369 478 435 381 435 c 4
 284 435 210 369 192 260 c 4
 174 151 227 85 324 85 c 4
 421 85 499 151 517 260 c 4
552 260 m 4
 528 111 447 -10 288 -10 c 4
 159 -10 61 101 87 260 c 4
 113 419 247 530 376 530 c 4
 545 530 576 409 552 260 c 4
699 730 m 5
 580 0 l 5
 475 0 l 5
 594 730 l 5
 699 730 l 5
586 866 m 0
 593 908 632 942 673 942 c 0
 714 942 743 908 736 866 c 0
 729 824 690 790 649 790 c 0
 608 790 579 824 586 866 c 0
EndSplineSet
EndChar

StartChar: uni1E0C
Encoding: 7692 7692 362
Width: 810
VWidth: 0
Flags: HMW
LayerCount: 2
Fore
SplineSet
204 700 m 1
 494 700 l 1
 478 600 l 1
 188 600 l 1
 204 700 l 1
106 100 m 1
 396 100 l 1
 380 0 l 1
 90 0 l 1
 106 100 l 1
204 700 m 1
 314 700 l 1
 200 0 l 1
 90 0 l 1
 204 700 l 1
396 100 m 5
 547 100 673 204 697 350 c 4
 721 496 629 600 478 600 c 5
 494 700 l 5
 699 700 839 549 807 350 c 4
 775 151 585 0 380 0 c 5
 396 100 l 5
306 -114 m 0
 313 -72 353 -38 394 -38 c 0
 435 -38 463 -72 456 -114 c 0
 449 -156 410 -190 369 -190 c 0
 328 -190 299 -156 306 -114 c 0
EndSplineSet
EndChar

StartChar: uni1E0D
Encoding: 7693 7693 363
Width: 655
VWidth: 0
Flags: HMW
LayerCount: 2
Fore
SplineSet
517 260 m 4
 535 369 478 435 381 435 c 4
 284 435 210 369 192 260 c 4
 174 151 227 85 324 85 c 4
 421 85 499 151 517 260 c 4
552 260 m 4
 528 111 447 -10 288 -10 c 4
 159 -10 61 101 87 260 c 4
 113 419 247 530 376 530 c 4
 545 530 576 409 552 260 c 4
699 730 m 5
 580 0 l 5
 475 0 l 5
 594 730 l 5
 699 730 l 5
205 -124 m 0
 212 -82 251 -48 292 -48 c 0
 333 -48 362 -82 355 -124 c 0
 348 -166 308 -200 267 -200 c 0
 226 -200 198 -166 205 -124 c 0
EndSplineSet
EndChar

StartChar: uni1E0E
Encoding: 7694 7694 364
Width: 810
VWidth: 0
Flags: HMW
LayerCount: 2
Fore
SplineSet
204 700 m 1
 494 700 l 1
 478 600 l 1
 188 600 l 1
 204 700 l 1
106 100 m 1
 396 100 l 1
 380 0 l 1
 90 0 l 1
 106 100 l 1
204 700 m 1
 314 700 l 1
 200 0 l 1
 90 0 l 1
 204 700 l 1
396 100 m 5
 547 100 673 204 697 350 c 4
 721 496 629 600 478 600 c 5
 494 700 l 5
 699 700 839 549 807 350 c 4
 775 151 585 0 380 0 c 5
 396 100 l 5
208 -60 m 1
 512 -60 l 5
 499 -140 l 5
 195 -140 l 1
 208 -60 l 1
EndSplineSet
EndChar

StartChar: uni1E0F
Encoding: 7695 7695 365
Width: 655
VWidth: 0
Flags: HMW
LayerCount: 2
Fore
SplineSet
517 260 m 4
 535 369 478 435 381 435 c 4
 284 435 210 369 192 260 c 4
 174 151 227 85 324 85 c 4
 421 85 499 151 517 260 c 4
552 260 m 4
 528 111 447 -10 288 -10 c 4
 159 -10 61 101 87 260 c 4
 113 419 247 530 376 530 c 4
 545 530 576 409 552 260 c 4
699 730 m 5
 580 0 l 5
 475 0 l 5
 594 730 l 5
 699 730 l 5
137 -70 m 1
 441 -70 l 5
 428 -150 l 5
 124 -150 l 1
 137 -70 l 1
EndSplineSet
EndChar

StartChar: uni1E10
Encoding: 7696 7696 366
Width: 810
VWidth: 0
Flags: HMW
LayerCount: 2
Fore
SplineSet
204 700 m 1
 494 700 l 1
 478 600 l 1
 188 600 l 1
 204 700 l 1
106 100 m 1
 396 100 l 1
 380 0 l 1
 90 0 l 1
 106 100 l 1
204 700 m 1
 314 700 l 1
 200 0 l 1
 90 0 l 1
 204 700 l 1
396 100 m 5
 547 100 673 204 697 350 c 4
 721 496 629 600 478 600 c 5
 494 700 l 5
 699 700 839 549 807 350 c 4
 775 151 585 0 380 0 c 5
 396 100 l 5
201 7 m 1
 241 7 l 1
 285 -27 354 -67 345 -125 c 0
 336 -182 308 -217 231 -217 c 0
 194 -217 158 -203 139 -188 c 1
 169 -128 l 5
 183 -141 204 -153 224 -153 c 0
 255 -153 270 -144 274 -122 c 0
 280 -87 242 -32 201 7 c 1
EndSplineSet
EndChar

StartChar: uni1E11
Encoding: 7697 7697 367
Width: 655
VWidth: 0
Flags: HMW
LayerCount: 2
Fore
SplineSet
517 260 m 4
 535 369 478 435 381 435 c 4
 284 435 210 369 192 260 c 4
 174 151 227 85 324 85 c 4
 421 85 499 151 517 260 c 4
552 260 m 4
 528 111 447 -10 288 -10 c 4
 159 -10 61 101 87 260 c 4
 113 419 247 530 376 530 c 4
 545 530 576 409 552 260 c 4
699 730 m 5
 580 0 l 5
 475 0 l 5
 594 730 l 5
 699 730 l 5
280 -3 m 1
 320 -3 l 1
 364 -37 432 -77 423 -135 c 0
 414 -192 386 -227 309 -227 c 0
 272 -227 237 -213 218 -198 c 1
 248 -138 l 5
 262 -151 282 -163 302 -163 c 0
 333 -163 349 -154 353 -132 c 0
 359 -97 321 -42 280 -3 c 1
EndSplineSet
EndChar

StartChar: uni1E12
Encoding: 7698 7698 368
Width: 810
VWidth: 0
Flags: HMW
LayerCount: 2
Fore
SplineSet
204 700 m 1
 494 700 l 1
 478 600 l 1
 188 600 l 1
 204 700 l 1
106 100 m 1
 396 100 l 1
 380 0 l 1
 90 0 l 1
 106 100 l 1
204 700 m 1
 314 700 l 1
 200 0 l 1
 90 0 l 1
 204 700 l 1
396 100 m 5
 547 100 673 204 697 350 c 4
 721 496 629 600 478 600 c 5
 494 700 l 5
 699 700 839 549 807 350 c 4
 775 151 585 0 380 0 c 5
 396 100 l 5
259 -160 m 1
 175 -60 l 1
 265 -60 l 1
 349 -160 l 1
 259 -160 l 1
155 -60 m 5
 245 -60 l 1
 129 -160 l 1
 39 -160 l 5
 155 -60 l 5
EndSplineSet
EndChar

StartChar: uni1E13
Encoding: 7699 7699 369
Width: 655
VWidth: 0
Flags: HMW
LayerCount: 2
Fore
SplineSet
517 260 m 4
 535 369 478 435 381 435 c 4
 284 435 210 369 192 260 c 4
 174 151 227 85 324 85 c 4
 421 85 499 151 517 260 c 4
552 260 m 4
 528 111 447 -10 288 -10 c 4
 159 -10 61 101 87 260 c 4
 113 419 247 530 376 530 c 4
 545 530 576 409 552 260 c 4
699 730 m 5
 580 0 l 5
 475 0 l 5
 594 730 l 5
 699 730 l 5
337 -170 m 1
 254 -70 l 1
 344 -70 l 1
 427 -170 l 1
 337 -170 l 1
234 -70 m 5
 324 -70 l 1
 207 -170 l 1
 117 -170 l 5
 234 -70 l 5
EndSplineSet
EndChar

StartChar: uni1E14
Encoding: 7700 7700 370
Width: 670
VWidth: 0
Flags: HM
LayerCount: 2
Fore
SplineSet
156 408 m 5
 631 408 l 1
 615 308 l 1
 140 308 l 5
 156 408 l 5
204 700 m 5
 729 700 l 1
 713 600 l 1
 188 600 l 5
 204 700 l 5
106 100 m 5
 631 100 l 1
 615 0 l 1
 90 0 l 5
 106 100 l 5
204 700 m 5
 314 700 l 5
 200 0 l 5
 90 0 l 5
 204 700 l 5
341 850 m 1
 645 850 l 5
 632 770 l 5
 328 770 l 1
 341 850 l 1
463 910 m 1
 366 1050 l 1
 486 1050 l 5
 543 910 l 5
 463 910 l 1
EndSplineSet
EndChar

StartChar: uni1E15
Encoding: 7701 7701 371
Width: 615
VWidth: 0
Flags: HMW
LayerCount: 2
Fore
SplineSet
612 260 m 5
 607 230 l 5
 502 230 l 5
 507 260 l 5
 612 260 l 5
502 230 m 5
 166 230 l 1
 179 307 l 1
 515 307 l 5
 502 230 l 5
507 260 m 5
 525 369 478 435 381 435 c 0
 284 435 215 369 197 260 c 1
 92 260 l 1
 118 419 247 530 396 530 c 4
 545 530 638 419 612 260 c 5
 507 260 l 5
92 260 m 1
 197 260 l 1
 179 151 237 85 334 85 c 0
 398 85 459 108 504 157 c 5
 558 92 l 5
 501 28 415 -10 318 -10 c 4
 159 -10 66 101 92 260 c 1
262 670 m 1
 566 670 l 5
 553 590 l 5
 249 590 l 1
 262 670 l 1
384 730 m 1
 287 870 l 1
 407 870 l 5
 464 730 l 5
 384 730 l 1
EndSplineSet
EndChar

StartChar: uni1E16
Encoding: 7702 7702 372
Width: 670
VWidth: 0
Flags: HM
LayerCount: 2
Fore
SplineSet
156 408 m 5
 631 408 l 1
 615 308 l 1
 140 308 l 5
 156 408 l 5
204 700 m 5
 729 700 l 1
 713 600 l 1
 188 600 l 5
 204 700 l 5
106 100 m 5
 631 100 l 1
 615 0 l 1
 90 0 l 5
 106 100 l 5
204 700 m 5
 314 700 l 5
 200 0 l 5
 90 0 l 5
 204 700 l 5
341 850 m 1
 645 850 l 5
 632 770 l 5
 328 770 l 1
 341 850 l 1
543 910 m 1
 463 910 l 5
 566 1050 l 5
 686 1050 l 1
 543 910 l 1
EndSplineSet
EndChar

StartChar: uni1E17
Encoding: 7703 7703 373
Width: 615
VWidth: 0
Flags: HMW
LayerCount: 2
Fore
SplineSet
612 260 m 5
 607 230 l 5
 502 230 l 5
 507 260 l 5
 612 260 l 5
502 230 m 5
 166 230 l 1
 179 307 l 1
 515 307 l 5
 502 230 l 5
507 260 m 5
 525 369 478 435 381 435 c 0
 284 435 215 369 197 260 c 1
 92 260 l 1
 118 419 247 530 396 530 c 4
 545 530 638 419 612 260 c 5
 507 260 l 5
92 260 m 1
 197 260 l 1
 179 151 237 85 334 85 c 0
 398 85 459 108 504 157 c 5
 558 92 l 5
 501 28 415 -10 318 -10 c 4
 159 -10 66 101 92 260 c 1
262 670 m 1
 566 670 l 5
 553 590 l 5
 249 590 l 1
 262 670 l 1
464 730 m 1
 384 730 l 5
 487 870 l 5
 607 870 l 1
 464 730 l 1
EndSplineSet
EndChar

StartChar: uni1E18
Encoding: 7704 7704 374
Width: 670
VWidth: 0
Flags: HM
LayerCount: 2
Fore
SplineSet
156 408 m 5
 631 408 l 1
 615 308 l 1
 140 308 l 5
 156 408 l 5
204 700 m 5
 729 700 l 1
 713 600 l 1
 188 600 l 5
 204 700 l 5
106 100 m 5
 631 100 l 1
 615 0 l 1
 90 0 l 5
 106 100 l 5
204 700 m 5
 314 700 l 5
 200 0 l 5
 90 0 l 5
 204 700 l 5
394 -160 m 1
 310 -60 l 1
 400 -60 l 1
 484 -160 l 1
 394 -160 l 1
290 -60 m 5
 380 -60 l 1
 264 -160 l 1
 174 -160 l 5
 290 -60 l 5
EndSplineSet
EndChar

StartChar: uni1E19
Encoding: 7705 7705 375
Width: 615
VWidth: 0
Flags: HMW
LayerCount: 2
Fore
SplineSet
612 260 m 5
 607 230 l 5
 502 230 l 5
 507 260 l 5
 612 260 l 5
502 230 m 5
 166 230 l 1
 179 307 l 1
 515 307 l 5
 502 230 l 5
507 260 m 5
 525 369 478 435 381 435 c 0
 284 435 215 369 197 260 c 1
 92 260 l 1
 118 419 247 530 396 530 c 4
 545 530 638 419 612 260 c 5
 507 260 l 5
92 260 m 1
 197 260 l 1
 179 151 237 85 334 85 c 0
 398 85 459 108 504 157 c 5
 558 92 l 5
 501 28 415 -10 318 -10 c 4
 159 -10 66 101 92 260 c 1
352 -170 m 1
 269 -70 l 1
 359 -70 l 1
 442 -170 l 1
 352 -170 l 1
249 -70 m 5
 339 -70 l 1
 222 -170 l 1
 132 -170 l 5
 249 -70 l 5
EndSplineSet
EndChar

StartChar: uni1E1A
Encoding: 7706 7706 376
Width: 670
VWidth: 0
Flags: HM
LayerCount: 2
Fore
SplineSet
156 408 m 5
 631 408 l 1
 615 308 l 1
 140 308 l 5
 156 408 l 5
204 700 m 5
 729 700 l 1
 713 600 l 1
 188 600 l 5
 204 700 l 5
106 100 m 5
 631 100 l 1
 615 0 l 1
 90 0 l 5
 106 100 l 5
204 700 m 5
 314 700 l 5
 200 0 l 5
 90 0 l 5
 204 700 l 5
202 -200 m 1
 125 -180 l 5
 142 -102 207 -63 258 -63 c 0
 322 -63 370 -107 414 -107 c 4
 449 -107 469 -97 475 -60 c 1
 552 -80 l 1
 533 -168 462 -197 412 -197 c 0
 350 -197 305 -153 262 -153 c 4
 228 -153 208 -163 202 -200 c 1
EndSplineSet
EndChar

StartChar: uni1E1B
Encoding: 7707 7707 377
Width: 615
VWidth: 0
Flags: HMW
LayerCount: 2
Fore
SplineSet
612 260 m 5
 607 230 l 5
 502 230 l 5
 507 260 l 5
 612 260 l 5
502 230 m 5
 166 230 l 1
 179 307 l 1
 515 307 l 5
 502 230 l 5
507 260 m 5
 525 369 478 435 381 435 c 0
 284 435 215 369 197 260 c 1
 92 260 l 1
 118 419 247 530 396 530 c 4
 545 530 638 419 612 260 c 5
 507 260 l 5
92 260 m 1
 197 260 l 1
 179 151 237 85 334 85 c 0
 398 85 459 108 504 157 c 5
 558 92 l 5
 501 28 415 -10 318 -10 c 4
 159 -10 66 101 92 260 c 1
161 -210 m 1
 83 -190 l 5
 100 -112 165 -73 216 -73 c 0
 280 -73 329 -117 373 -117 c 4
 408 -117 428 -107 434 -70 c 1
 510 -90 l 1
 491 -178 420 -207 370 -207 c 0
 308 -207 264 -163 221 -163 c 4
 187 -163 167 -173 161 -210 c 1
EndSplineSet
EndChar

StartChar: uni1E1C
Encoding: 7708 7708 378
Width: 670
VWidth: 0
Flags: HM
LayerCount: 2
Fore
SplineSet
156 408 m 5
 631 408 l 1
 615 308 l 1
 140 308 l 5
 156 408 l 5
204 700 m 5
 729 700 l 1
 713 600 l 1
 188 600 l 5
 204 700 l 5
106 100 m 5
 631 100 l 1
 615 0 l 1
 90 0 l 5
 106 100 l 5
204 700 m 5
 314 700 l 5
 200 0 l 5
 90 0 l 5
 204 700 l 5
336 7 m 1
 376 7 l 1
 420 -27 489 -67 480 -125 c 0
 471 -182 443 -217 366 -217 c 0
 329 -217 293 -203 274 -188 c 1
 304 -128 l 5
 318 -141 339 -153 359 -153 c 0
 390 -153 405 -144 409 -122 c 0
 415 -87 377 -32 336 7 c 1
495 860 m 1
 445 860 414 884 422 932 c 5
 326 926 l 5
 310 827 370 760 479 760 c 1
 495 860 l 1
495 860 m 1
 479 760 l 1
 588 760 670 827 686 926 c 5
 592 932 l 5
 584 884 545 860 495 860 c 1
EndSplineSet
EndChar

StartChar: uni1E1D
Encoding: 7709 7709 379
Width: 615
VWidth: 0
Flags: HMW
LayerCount: 2
Fore
SplineSet
612 260 m 5
 607 230 l 5
 502 230 l 5
 507 260 l 5
 612 260 l 5
502 230 m 5
 166 230 l 1
 179 307 l 1
 515 307 l 5
 502 230 l 5
507 260 m 5
 525 369 478 435 381 435 c 0
 284 435 215 369 197 260 c 1
 92 260 l 1
 118 419 247 530 396 530 c 4
 545 530 638 419 612 260 c 5
 507 260 l 5
92 260 m 1
 197 260 l 1
 179 151 237 85 334 85 c 0
 398 85 459 108 504 157 c 5
 558 92 l 5
 501 28 415 -10 318 -10 c 4
 159 -10 66 101 92 260 c 1
295 -3 m 1
 335 -3 l 1
 379 -37 447 -77 438 -135 c 0
 429 -192 401 -227 324 -227 c 0
 287 -227 252 -213 233 -198 c 1
 263 -138 l 5
 277 -151 297 -163 317 -163 c 0
 348 -163 364 -154 368 -132 c 0
 374 -97 336 -42 295 -3 c 1
416 680 m 1
 366 680 334 704 342 752 c 5
 246 746 l 5
 230 647 290 580 399 580 c 1
 416 680 l 1
416 680 m 1
 399 580 l 1
 508 580 590 647 606 746 c 5
 512 752 l 5
 504 704 466 680 416 680 c 1
EndSplineSet
EndChar

StartChar: uni1E1E
Encoding: 7710 7710 380
Width: 665
VWidth: 0
Flags: HM
LayerCount: 2
Fore
SplineSet
153 388 m 5
 633 388 l 1
 617 288 l 1
 137 288 l 5
 153 388 l 5
204 700 m 5
 734 700 l 1
 718 600 l 1
 188 600 l 5
 204 700 l 5
204 700 m 5
 314 700 l 5
 200 0 l 5
 90 0 l 5
 204 700 l 5
418 846 m 0
 425 888 464 922 505 922 c 0
 546 922 575 888 568 846 c 0
 561 804 521 770 480 770 c 0
 439 770 411 804 418 846 c 0
EndSplineSet
EndChar

